<svg width="1432" height="677" viewBox="0 0 1432 677" fill="none" xmlns="http://www.w3.org/2000/svg">
<g filter="url(#filter0_d_23_24279)">
<rect x="40" y="25" width="1352" height="597" rx="30" fill="white"/>
<path d="M138.512 237.48L138.032 231.432L148.688 229.224L140.432 234.696C141.648 232.776 142.64 231.112 143.408 229.704C144.176 228.296 144.848 226.952 145.424 225.672C146 224.392 146.544 223.016 147.056 221.544L164.816 169.32L173.84 168.264L193.232 224.04C193.744 225.576 194.384 227.112 195.152 228.648C195.92 230.184 196.624 231.624 197.264 232.968L190.064 228.84L201.584 230.76L201.104 237H192.464C191.696 237 190.256 237.032 188.144 237.096C186.096 237.16 183.824 237.224 181.328 237.288C178.896 237.352 176.752 237.416 174.896 237.48L174.416 231.432L186.512 228.744L181.616 235.944C181.232 232.552 180.88 229.992 180.56 228.264C180.304 226.472 179.888 224.776 179.312 223.176L166.736 181.704H170.096L156.464 225.576C156.08 226.856 155.792 228.2 155.6 229.608C155.408 231.016 155.312 232.712 155.312 234.696L149.936 229.32L161.744 230.76L161.264 237H151.856C151.088 237 149.904 237.032 148.304 237.096C146.704 237.16 145.008 237.224 143.216 237.288C141.488 237.352 139.92 237.416 138.512 237.48ZM155.888 218.184V211.08H180.944V218.184H155.888ZM225.471 237.96C219.583 237.96 215.039 235.848 211.839 231.624C208.639 227.4 207.039 221.416 207.039 213.672C207.039 205.608 209.087 199.368 213.183 194.952C217.343 190.472 223.167 188.232 230.655 188.232C231.679 188.232 232.703 188.264 233.727 188.328C234.815 188.392 235.935 188.52 237.087 188.712C238.239 188.84 239.423 189 240.639 189.192L240.831 199.176C238.975 198.344 237.311 197.768 235.839 197.448C234.367 197.064 233.023 196.872 231.807 196.872C228.223 196.872 225.599 198.152 223.935 200.712C222.335 203.208 221.535 207.176 221.535 212.616C221.535 217.736 222.239 221.544 223.647 224.04C225.055 226.472 227.199 227.688 230.079 227.688C232.767 227.688 234.847 226.6 236.319 224.424C237.855 222.248 238.751 219.08 239.007 214.92V180.264C239.007 179.368 238.911 178.12 238.719 176.52C238.527 174.92 238.303 173.384 238.047 171.912C237.855 170.44 237.695 169.448 237.567 168.936L243.519 173.352L230.655 170.472L231.519 163.944L242.559 164.424H250.623L252.639 166.248C252.511 167.976 252.351 169.928 252.159 172.104C252.031 174.28 251.903 176.36 251.775 178.344C251.711 180.328 251.679 181.928 251.679 183.144V218.76C251.679 221.96 251.839 224.808 252.159 227.304C252.543 229.736 252.863 231.72 253.119 233.256L246.879 229.224L258.495 230.376L257.919 237H240.831L239.391 224.04L242.463 225.576C241.375 227.688 240.223 229.512 239.007 231.048C237.791 232.584 236.479 233.864 235.071 234.888C233.727 235.912 232.255 236.68 230.655 237.192C229.055 237.704 227.327 237.96 225.471 237.96ZM283.408 237.96C277.52 237.96 272.976 235.848 269.776 231.624C266.576 227.4 264.976 221.416 264.976 213.672C264.976 205.608 267.024 199.368 271.12 194.952C275.28 190.472 281.104 188.232 288.592 188.232C289.616 188.232 290.64 188.264 291.664 188.328C292.752 188.392 293.872 188.52 295.024 188.712C296.176 188.84 297.36 189 298.576 189.192L298.768 199.176C296.912 198.344 295.248 197.768 293.776 197.448C292.304 197.064 290.96 196.872 289.744 196.872C286.16 196.872 283.536 198.152 281.872 200.712C280.272 203.208 279.472 207.176 279.472 212.616C279.472 217.736 280.176 221.544 281.584 224.04C282.992 226.472 285.136 227.688 288.016 227.688C290.704 227.688 292.784 226.6 294.256 224.424C295.792 222.248 296.688 219.08 296.944 214.92V180.264C296.944 179.368 296.848 178.12 296.656 176.52C296.464 174.92 296.24 173.384 295.984 171.912C295.792 170.44 295.632 169.448 295.504 168.936L301.456 173.352L288.592 170.472L289.456 163.944L300.496 164.424H308.56L310.576 166.248C310.448 167.976 310.288 169.928 310.096 172.104C309.968 174.28 309.84 176.36 309.712 178.344C309.648 180.328 309.616 181.928 309.616 183.144V218.76C309.616 221.96 309.776 224.808 310.096 227.304C310.48 229.736 310.8 231.72 311.056 233.256L304.816 229.224L316.432 230.376L315.856 237H298.768L297.328 224.04L300.4 225.576C299.312 227.688 298.16 229.512 296.944 231.048C295.728 232.584 294.416 233.864 293.008 234.888C291.664 235.912 290.192 236.68 288.592 237.192C286.992 237.704 285.264 237.96 283.408 237.96ZM355.309 237.96C350.957 237.96 347.501 236.776 344.941 234.408C342.445 231.976 341.197 228.68 341.197 224.52C341.197 221 342.189 218.088 344.173 215.784C346.221 213.48 349.453 211.976 353.869 211.272L369.229 208.776V214.824L359.821 216.456C357.965 216.712 356.621 217.384 355.789 218.472C355.021 219.496 354.637 220.84 354.637 222.504C354.637 224.488 355.085 225.992 355.981 227.016C356.877 228.04 358.253 228.552 360.109 228.552C361.965 228.552 363.565 227.944 364.909 226.728C366.317 225.512 367.245 223.88 367.693 221.832V205.704C367.693 202.44 367.117 200.104 365.965 198.696C364.877 197.224 362.989 196.488 360.301 196.488C359.149 196.488 357.837 196.648 356.365 196.968C354.957 197.288 353.613 197.672 352.333 198.12C351.053 198.504 350.061 198.824 349.357 199.08L353.293 192.744L351.661 202.152L351.757 206.28L344.749 206.568L343.405 190.728C345.325 190.216 347.341 189.8 349.453 189.48C351.629 189.096 353.709 188.808 355.693 188.616C357.677 188.36 359.405 188.232 360.877 188.232C367.149 188.232 371.981 189.736 375.373 192.744C378.765 195.752 380.461 200.136 380.461 205.896V218.76C380.461 222.024 380.621 224.936 380.941 227.496C381.325 229.992 381.645 231.976 381.901 233.448L375.661 229.224L387.181 230.376L386.605 237H369.613L368.077 224.328L370.669 225.576C369.837 228.328 368.685 230.632 367.213 232.488C365.805 234.344 364.109 235.72 362.125 236.616C360.141 237.512 357.869 237.96 355.309 237.96ZM156.368 464.44C151.568 464.44 148.176 463.096 146.192 460.408C144.208 457.72 143.216 454.008 143.216 449.272V416.824L148.688 422.488H136.304L136.016 416.728C137.168 416.28 138.48 415.768 139.952 415.192C141.488 414.616 143.024 414.008 144.56 413.368C146.096 412.664 147.376 412.024 148.4 411.448L143.792 415.672C144.304 415.032 144.88 414.2 145.52 413.176C146.16 412.152 146.8 411.096 147.44 410.008C148.08 408.856 148.688 407.8 149.264 406.84C149.84 405.816 150.288 405.016 150.608 404.44L155.888 404.824V449.56C155.888 451.288 156.272 452.728 157.04 453.88C157.872 455.032 159.152 455.608 160.88 455.608C162.032 455.608 163.12 455.416 164.144 455.032C165.232 454.584 166.32 454.04 167.408 453.4L170.576 458.872C168.4 460.408 166.064 461.72 163.568 462.808C161.136 463.896 158.736 464.44 156.368 464.44ZM154.064 422.488V415.576H168.176L167.312 422.488H154.064ZM200.742 464.344C195.686 464.344 191.398 463.352 187.878 461.368C184.422 459.384 181.766 456.536 179.91 452.824C178.118 449.048 177.222 444.536 177.222 439.288C177.222 434.04 178.118 429.56 179.91 425.848C181.766 422.072 184.422 419.224 187.878 417.304C191.398 415.32 195.686 414.328 200.742 414.328C208.294 414.328 214.054 416.504 218.022 420.856C222.054 425.208 224.07 431.352 224.07 439.288C224.07 444.536 223.174 449.048 221.382 452.824C219.59 456.536 216.966 459.384 213.51 461.368C210.054 463.352 205.798 464.344 200.742 464.344ZM200.742 456.664C202.918 456.664 204.678 456.024 206.022 454.744C207.43 453.4 208.422 451.448 208.998 448.888C209.638 446.328 209.958 443.128 209.958 439.288C209.958 435.448 209.638 432.28 208.998 429.784C208.422 427.224 207.43 425.304 206.022 424.024C204.678 422.68 202.918 422.008 200.742 422.008C198.502 422.008 196.71 422.68 195.366 424.024C194.022 425.304 193.03 427.224 192.39 429.784C191.75 432.28 191.43 435.448 191.43 439.288C191.43 443.128 191.75 446.328 192.39 448.888C193.03 451.448 194.022 453.4 195.366 454.744C196.71 456.024 198.502 456.664 200.742 456.664ZM275.204 464.44C270.468 464.44 266.116 463.928 262.148 462.904C258.18 461.816 255.204 460.76 253.22 459.736L254.66 442.36L262.052 442.936L262.148 448.888C262.148 449.208 262.276 449.848 262.532 450.808C262.852 451.704 263.204 452.696 263.588 453.784C263.972 454.808 264.292 455.736 264.548 456.568C264.868 457.4 265.06 457.944 265.124 458.2L259.076 451.768C261.06 452.728 263.332 453.752 265.892 454.84C268.516 455.864 271.364 456.376 274.436 456.376C277.572 456.376 280.164 455.576 282.212 453.976C284.324 452.376 285.38 450.04 285.38 446.968C285.38 444.472 284.612 442.424 283.076 440.824C281.54 439.16 279.588 437.688 277.22 436.408C274.916 435.128 272.42 433.848 269.732 432.568C267.044 431.288 264.516 429.784 262.148 428.056C259.844 426.328 257.924 424.216 256.388 421.72C254.852 419.224 254.084 416.152 254.084 412.504C254.084 408.6 255.044 405.272 256.964 402.52C258.884 399.704 261.476 397.56 264.74 396.088C268.068 394.616 271.844 393.88 276.068 393.88C279.268 393.88 282.66 394.2 286.244 394.84C289.892 395.48 293.348 396.28 296.612 397.24L295.268 414.328L288.452 413.848L288.26 408.568C288.26 408.248 288.1 407.576 287.78 406.552C287.524 405.528 287.172 404.376 286.724 403.096C286.34 401.816 285.924 400.664 285.476 399.64L292.196 405.976C290.212 404.952 287.972 403.96 285.476 403C282.98 401.976 280.452 401.464 277.892 401.464C274.948 401.464 272.516 402.264 270.596 403.864C268.74 405.4 267.812 407.544 267.812 410.296C267.812 412.6 268.548 414.552 270.02 416.152C271.556 417.688 273.508 419.064 275.876 420.28C278.308 421.496 280.836 422.776 283.46 424.12C286.148 425.4 288.676 426.904 291.044 428.632C293.476 430.296 295.428 432.376 296.9 434.872C298.436 437.368 299.204 440.44 299.204 444.088C299.204 448.44 298.116 452.152 295.94 455.224C293.828 458.232 290.948 460.536 287.3 462.136C283.716 463.672 279.684 464.44 275.204 464.44ZM327.743 464.44C322.943 464.44 319.551 463.096 317.567 460.408C315.583 457.72 314.591 454.008 314.591 449.272V416.824L320.063 422.488H307.679L307.391 416.728C308.543 416.28 309.855 415.768 311.327 415.192C312.863 414.616 314.399 414.008 315.935 413.368C317.471 412.664 318.751 412.024 319.775 411.448L315.167 415.672C315.679 415.032 316.255 414.2 316.895 413.176C317.535 412.152 318.175 411.096 318.815 410.008C319.455 408.856 320.063 407.8 320.639 406.84C321.215 405.816 321.663 405.016 321.983 404.44L327.263 404.824V449.56C327.263 451.288 327.647 452.728 328.415 453.88C329.247 455.032 330.527 455.608 332.255 455.608C333.407 455.608 334.495 455.416 335.519 455.032C336.607 454.584 337.695 454.04 338.783 453.4L341.951 458.872C339.775 460.408 337.439 461.72 334.943 462.808C332.511 463.896 330.111 464.44 327.743 464.44ZM325.439 422.488V415.576H339.551L338.687 422.488H325.439ZM362.997 463.96C358.645 463.96 355.189 462.776 352.629 460.408C350.133 457.976 348.885 454.68 348.885 450.52C348.885 447 349.877 444.088 351.861 441.784C353.909 439.48 357.141 437.976 361.557 437.272L376.917 434.776V440.824L367.509 442.456C365.653 442.712 364.309 443.384 363.477 444.472C362.709 445.496 362.325 446.84 362.325 448.504C362.325 450.488 362.773 451.992 363.669 453.016C364.565 454.04 365.941 454.552 367.797 454.552C369.653 454.552 371.253 453.944 372.597 452.728C374.005 451.512 374.933 449.88 375.381 447.832V431.704C375.381 428.44 374.805 426.104 373.653 424.696C372.565 423.224 370.677 422.488 367.989 422.488C366.837 422.488 365.525 422.648 364.053 422.968C362.645 423.288 361.301 423.672 360.021 424.12C358.741 424.504 357.749 424.824 357.045 425.08L360.981 418.744L359.349 428.152L359.445 432.28L352.437 432.568L351.093 416.728C353.013 416.216 355.029 415.8 357.141 415.48C359.317 415.096 361.397 414.808 363.381 414.616C365.365 414.36 367.093 414.232 368.565 414.232C374.837 414.232 379.669 415.736 383.061 418.744C386.453 421.752 388.149 426.136 388.149 431.896V444.76C388.149 448.024 388.309 450.936 388.629 453.496C389.013 455.992 389.333 457.976 389.589 459.448L383.349 455.224L394.869 456.376L394.293 463H377.301L375.765 450.328L378.357 451.576C377.525 454.328 376.373 456.632 374.901 458.488C373.493 460.344 371.797 461.72 369.813 462.616C367.829 463.512 365.557 463.96 362.997 463.96ZM401.671 463.48L401.191 457.048L413.287 454.84L406.951 460.216C407.143 459.32 407.335 458.072 407.527 456.472C407.783 454.808 408.007 453.176 408.199 451.576C408.391 449.912 408.487 448.6 408.487 447.64V431.416C408.487 430.52 408.391 429.208 408.199 427.48C408.007 425.688 407.751 423.928 407.431 422.2C407.175 420.472 406.983 419.224 406.855 418.456L413.095 424.504L400.327 422.488L401.191 415.576H416.551L418.567 417.4L420.967 434.392L416.359 429.016C417.127 427.608 417.991 426.104 418.951 424.504C419.911 422.84 421.031 421.272 422.311 419.8C423.655 418.264 425.191 417.048 426.919 416.152C428.711 415.192 430.791 414.712 433.159 414.712C434.439 414.712 435.719 414.808 436.999 415C438.343 415.192 439.623 415.416 440.839 415.672L439.495 434.488L432.583 434.2V429.016C432.583 428.824 432.487 428.248 432.295 427.288C432.167 426.328 432.007 425.336 431.815 424.312C431.687 423.288 431.527 422.552 431.335 422.104L434.503 424.312C434.055 424.184 433.511 424.088 432.871 424.024C432.295 423.96 431.719 423.928 431.143 423.928C428.583 423.928 426.279 425.08 424.231 427.384C422.247 429.688 421.255 433.016 421.255 437.368V444.76C421.255 447.96 421.415 450.904 421.734 453.592C422.119 456.216 422.407 458.264 422.599 459.736L416.359 455.224L430.279 456.376L429.799 463H413.095C412.711 463 411.847 463.032 410.503 463.096C409.159 463.16 407.655 463.224 405.991 463.288C404.391 463.352 402.951 463.416 401.671 463.48ZM466.493 464.44C461.693 464.44 458.301 463.096 456.317 460.408C454.333 457.72 453.341 454.008 453.341 449.272V416.824L458.813 422.488H446.429L446.141 416.728C447.293 416.28 448.605 415.768 450.077 415.192C451.613 414.616 453.149 414.008 454.685 413.368C456.221 412.664 457.501 412.024 458.525 411.448L453.917 415.672C454.429 415.032 455.005 414.2 455.645 413.176C456.285 412.152 456.925 411.096 457.565 410.008C458.205 408.856 458.813 407.8 459.389 406.84C459.965 405.816 460.413 405.016 460.733 404.44L466.013 404.824V449.56C466.013 451.288 466.397 452.728 467.165 453.88C467.997 455.032 469.277 455.608 471.005 455.608C472.157 455.608 473.245 455.416 474.269 455.032C475.357 454.584 476.445 454.04 477.533 453.4L480.701 458.872C478.525 460.408 476.189 461.72 473.693 462.808C471.261 463.896 468.861 464.44 466.493 464.44ZM464.189 422.488V415.576H478.301L477.437 422.488H464.189Z" fill="#264653"/>
<path d="M139.664 350.48L139.184 344.432L151.088 342.224L145.52 346.16C145.648 345.392 145.808 344.304 146 342.896C146.256 341.488 146.448 340.08 146.576 338.672C146.768 337.2 146.864 336.048 146.864 335.216V297.104C146.864 296.272 146.768 295.088 146.576 293.552C146.384 292.016 146.16 290.48 145.904 288.944C145.648 287.408 145.456 286.352 145.328 285.776L150.992 290.288L139.184 288.368L139.664 281.84C140.752 281.904 142 281.968 143.408 282.032C144.816 282.096 146.16 282.16 147.44 282.224C148.72 282.288 149.744 282.32 150.512 282.32H157.712L159.536 284.24C160.624 285.968 161.776 287.856 162.992 289.904C164.208 291.952 165.296 293.808 166.256 295.472C167.28 297.072 167.952 298.128 168.272 298.64L193.904 334.16L190.832 335.12V297.104C190.832 296.208 190.736 295.024 190.544 293.552C190.352 292.016 190.128 290.48 189.872 288.944C189.616 287.408 189.392 286.256 189.2 285.488L195.056 290.384L183.344 288.368L183.824 281.84C184.848 281.904 185.968 281.968 187.184 282.032C188.464 282.096 189.712 282.16 190.928 282.224C192.144 282.288 193.104 282.32 193.808 282.32C197.008 282.32 199.728 282.256 201.968 282.128C204.208 282 206.352 281.904 208.4 281.84L208.784 288.848L196.976 290L202.64 285.584C202.576 286.416 202.416 287.632 202.16 289.232C201.904 290.832 201.648 292.592 201.392 294.512C201.136 296.368 201.008 298.192 201.008 299.984V350H190.544L153.968 299.12L157.04 298.16V332.336C157.04 333.936 157.104 335.696 157.232 337.616C157.424 339.472 157.616 341.232 157.808 342.896C158 344.496 158.16 345.808 158.288 346.832L152.624 342.704L164.624 343.76L164.048 350H151.28C150.704 350 149.712 350.032 148.304 350.096C146.96 350.16 145.488 350.224 143.888 350.288C142.352 350.352 140.944 350.416 139.664 350.48ZM240.583 351.344C235.719 351.344 231.527 350.384 228.007 348.464C224.551 346.48 221.863 343.632 219.943 339.92C218.087 336.144 217.159 331.664 217.159 326.48C217.159 321.04 218.119 316.464 220.039 312.752C221.959 308.976 224.615 306.128 228.007 304.208C231.399 302.224 235.399 301.232 240.007 301.232C244.551 301.232 248.327 302.192 251.335 304.112C254.407 305.968 256.679 308.656 258.151 312.176C259.623 315.696 260.199 319.952 259.879 324.944L257.959 328.592H230.503L230.599 321.872L251.335 320.72L244.807 326.672C244.999 325.456 245.191 324.272 245.383 323.12C245.575 321.968 245.671 320.784 245.671 319.568C245.671 315.92 245.127 313.168 244.039 311.312C242.951 309.392 241.287 308.432 239.047 308.432C237.575 308.432 236.327 308.88 235.303 309.776C234.279 310.672 233.511 311.888 232.999 313.424C232.551 314.96 232.199 316.752 231.943 318.8C231.751 320.848 231.655 323.088 231.655 325.52C231.655 328.528 231.879 331.12 232.327 333.296C232.839 335.408 233.575 337.168 234.535 338.576C235.559 339.92 236.839 340.912 238.375 341.552C239.911 342.192 241.735 342.512 243.847 342.512C246.471 342.512 248.839 342.16 250.951 341.456C253.127 340.688 254.759 339.952 255.847 339.248L259.111 344.72C258.087 345.68 256.871 346.576 255.463 347.408C254.119 348.176 252.679 348.88 251.143 349.52C249.607 350.096 247.943 350.544 246.151 350.864C244.359 351.184 242.503 351.344 240.583 351.344ZM285.823 350L274.207 316.976C273.503 314.864 272.703 312.72 271.807 310.544C270.911 308.304 270.015 306.128 269.119 304.016L276.607 310.832L266.047 309.488L266.527 302.576H291.007L291.487 309.2L279.199 309.968L283.711 303.632C284.223 305.936 284.671 308.144 285.055 310.256C285.439 312.304 285.887 314.256 286.399 316.112L293.791 341.936L290.623 341.84L302.719 302.576H310.495L321.439 341.936L318.271 341.84L326.527 315.92C326.911 314.704 327.231 313.648 327.487 312.752C327.807 311.792 328.127 310.64 328.447 309.296C328.767 307.952 329.183 306.096 329.695 303.728L333.919 310.064L322.303 309.104L322.783 302.576H344.287L344.767 309.2L335.071 310.544L342.847 304.208C341.631 306.96 340.415 309.52 339.199 311.888C338.047 314.256 336.991 316.752 336.031 319.376L324.799 350H313.375L303.871 320.048H307.423L297.247 350H285.823ZM405.322 351.44C397.834 351.44 391.53 349.968 386.41 347.024C381.354 344.016 377.546 339.888 374.986 334.64C372.426 329.328 371.146 323.184 371.146 316.208C371.146 309.232 372.426 303.088 374.986 297.776C377.546 292.464 381.354 288.336 386.41 285.392C391.53 282.384 397.834 280.88 405.322 280.88C409.482 280.88 413.354 281.232 416.938 281.936C420.522 282.576 423.85 283.312 426.922 284.144L425.77 300.272L419.05 299.888L418.858 294.512C418.858 294.192 418.698 293.36 418.378 292.016C418.058 290.608 417.674 289.04 417.226 287.312L420.874 291.152C418.634 290.448 416.074 289.872 413.194 289.424C410.314 288.912 407.626 288.656 405.13 288.656C400.65 288.656 396.97 289.872 394.09 292.304C391.274 294.736 389.194 298.032 387.85 302.192C386.506 306.352 385.834 310.992 385.834 316.112C385.834 321.232 386.506 325.872 387.85 330.032C389.194 334.192 391.274 337.52 394.09 340.016C396.97 342.448 400.65 343.664 405.13 343.664C407.37 343.664 409.674 343.504 412.042 343.184C414.41 342.864 416.874 342.416 419.434 341.84L414.922 346.736C415.242 345.264 415.626 343.6 416.074 341.744C416.522 339.888 416.746 338.544 416.746 337.712V331.184C416.746 330.096 416.65 328.944 416.458 327.728C416.33 326.448 416.138 325.232 415.882 324.08C415.69 322.864 415.53 321.872 415.402 321.104L420.97 325.424L405.61 324.176L406.09 316.112H416.746C417.578 316.112 418.986 316.08 420.97 316.016C422.954 315.952 424.746 315.888 426.346 315.824L428.746 317.936C428.618 319.472 428.49 321.168 428.362 323.024C428.234 324.88 428.106 326.608 427.978 328.208C427.914 329.808 427.882 331.12 427.882 332.144V348.176C424.554 348.944 421.002 349.68 417.226 350.384C413.514 351.088 409.546 351.44 405.322 351.44ZM440.952 350.48L440.472 344.048L452.568 341.84L446.232 347.216C446.424 346.32 446.616 345.072 446.808 343.472C447.064 341.808 447.288 340.176 447.48 338.576C447.672 336.912 447.768 335.6 447.768 334.64V318.416C447.768 317.52 447.672 316.208 447.48 314.48C447.288 312.688 447.032 310.928 446.712 309.2C446.456 307.472 446.264 306.224 446.136 305.456L452.376 311.504L439.608 309.488L440.472 302.576H455.832L457.848 304.4L460.248 321.392L455.64 316.016C456.408 314.608 457.272 313.104 458.232 311.504C459.192 309.84 460.312 308.272 461.592 306.8C462.936 305.264 464.472 304.048 466.2 303.152C467.992 302.192 470.072 301.712 472.44 301.712C473.72 301.712 475 301.808 476.28 302C477.624 302.192 478.904 302.416 480.12 302.672L478.776 321.488L471.864 321.2V316.016C471.864 315.824 471.768 315.248 471.576 314.288C471.448 313.328 471.288 312.336 471.096 311.312C470.968 310.288 470.808 309.552 470.616 309.104L473.784 311.312C473.336 311.184 472.792 311.088 472.152 311.024C471.576 310.96 471 310.928 470.424 310.928C467.864 310.928 465.56 312.08 463.512 314.384C461.528 316.688 460.536 320.016 460.536 324.368V331.76C460.536 334.96 460.696 337.904 461.016 340.592C461.4 343.216 461.688 345.264 461.88 346.736L455.64 342.224L469.56 343.376L469.08 350H452.376C451.992 350 451.128 350.032 449.784 350.096C448.44 350.16 446.936 350.224 445.272 350.288C443.672 350.352 442.232 350.416 440.952 350.48ZM511.054 351.344C505.998 351.344 501.71 350.352 498.19 348.368C494.734 346.384 492.078 343.536 490.222 339.824C488.43 336.048 487.534 331.536 487.534 326.288C487.534 321.04 488.43 316.56 490.222 312.848C492.078 309.072 494.734 306.224 498.19 304.304C501.71 302.32 505.998 301.328 511.054 301.328C518.606 301.328 524.366 303.504 528.334 307.856C532.366 312.208 534.382 318.352 534.382 326.288C534.382 331.536 533.486 336.048 531.694 339.824C529.902 343.536 527.278 346.384 523.822 348.368C520.366 350.352 516.11 351.344 511.054 351.344ZM511.054 343.664C513.23 343.664 514.99 343.024 516.334 341.744C517.742 340.4 518.734 338.448 519.31 335.888C519.95 333.328 520.27 330.128 520.27 326.288C520.27 322.448 519.95 319.28 519.31 316.784C518.734 314.224 517.742 312.304 516.334 311.024C514.99 309.68 513.23 309.008 511.054 309.008C508.814 309.008 507.022 309.68 505.678 311.024C504.334 312.304 503.342 314.224 502.702 316.784C502.062 319.28 501.742 322.448 501.742 326.288C501.742 330.128 502.062 333.328 502.702 335.888C503.342 338.448 504.334 340.4 505.678 341.744C507.022 343.024 508.814 343.664 511.054 343.664ZM563.969 350.48C560.193 350.48 557.057 349.808 554.561 348.464C552.129 347.056 550.305 345.04 549.089 342.416C547.873 339.792 547.265 336.592 547.265 332.816V318.416C547.265 317.648 547.169 316.528 546.977 315.056C546.785 313.584 546.561 312.016 546.305 310.352C546.113 308.688 545.921 307.12 545.729 305.648L551.873 311.408L540.929 309.488L541.697 302.576H558.977L560.897 304.4C560.833 306.128 560.705 308.08 560.513 310.256C560.385 312.432 560.257 314.512 560.129 316.496C560.065 318.48 560.033 320.08 560.033 321.296V332.048C560.033 334.672 560.577 336.88 561.665 338.672C562.817 340.4 564.705 341.264 567.329 341.264C569.057 341.264 570.657 340.752 572.129 339.728C573.601 338.64 574.785 337.104 575.681 335.12C576.577 333.072 577.025 330.64 577.025 327.824V318.416C577.025 317.712 576.961 316.656 576.833 315.248C576.705 313.776 576.513 312.24 576.257 310.64C576.065 308.976 575.873 307.472 575.681 306.128L581.633 311.504L568.961 309.488L569.729 302.576H588.737L590.753 304.4C590.625 306.128 590.465 308.08 590.273 310.256C590.145 312.432 590.017 314.512 589.889 316.496C589.825 318.48 589.793 320.08 589.793 321.296V331.76C589.793 334.576 589.953 337.392 590.273 340.208C590.593 342.96 590.881 345.744 591.137 348.56L584.993 342.224L596.513 343.376L595.937 350H578.945L577.409 336.752L580.193 339.056C579.041 341.232 577.697 343.184 576.161 344.912C574.689 346.576 572.961 347.92 570.977 348.944C569.057 349.968 566.721 350.48 563.969 350.48ZM603.514 372.368L603.034 366.704L613.786 364.496L607.45 369.104C607.642 368.208 607.834 366.928 608.026 365.264C608.282 363.664 608.506 362.032 608.698 360.368C608.89 358.768 608.986 357.488 608.986 356.528V318.416C608.986 317.52 608.858 316.208 608.602 314.48C608.41 312.688 608.154 310.928 607.834 309.2C607.578 307.472 607.386 306.224 607.258 305.456L613.594 311.504L600.826 309.488L601.69 302.576H617.05L619.066 304.4L620.794 316.784L617.722 315.44C619.13 312.24 620.666 309.584 622.33 307.472C624.058 305.36 625.978 303.792 628.09 302.768C630.202 301.744 632.602 301.232 635.29 301.232C641.178 301.232 645.722 303.312 648.922 307.472C652.122 311.632 653.722 317.488 653.722 325.04C653.722 330.48 652.762 335.152 650.842 339.056C648.986 342.896 646.266 345.84 642.682 347.888C639.162 349.936 634.874 350.96 629.818 350.96C628.346 350.96 626.778 350.864 625.114 350.672C623.514 350.48 621.85 350.256 620.122 350L620.026 339.92C621.69 340.688 623.258 341.264 624.73 341.648C626.266 342.032 627.61 342.224 628.762 342.224C632.41 342.224 635.066 340.944 636.73 338.384C638.394 335.824 639.226 331.76 639.226 326.192C639.226 321.136 638.522 317.424 637.114 315.056C635.77 312.624 633.594 311.408 630.586 311.408C627.898 311.408 625.754 312.592 624.154 314.96C622.554 317.264 621.754 320.368 621.754 324.272V353.648C621.754 356.848 621.914 359.76 622.234 362.384C622.554 365.072 622.842 367.152 623.098 368.624L616.858 364.976L630.49 366.128L630.01 371.888H613.594C613.21 371.888 612.442 371.92 611.29 371.984C610.202 372.048 608.954 372.112 607.546 372.176C606.138 372.24 604.794 372.304 603.514 372.368Z" fill="#3AAF83"/>
<path d="M1019.18 457.354C1016.32 452.782 1014.2 447.839 1012.9 442.636C1012.27 440.071 1011.64 437.358 1011.6 434.719C1011.6 433.419 1011.75 431.746 1012.9 430.891C1013.9 430.185 1016.1 430.222 1016.21 431.858C1016.58 431.858 1016.95 431.858 1017.32 431.858C1017.21 430.891 1016.54 421.525 1017.99 422.046C1018.43 422.194 1018.73 421.748 1018.66 421.377C1017.58 414.241 1017.47 406.956 1018.36 399.783C1018.81 396.215 1019.51 392.684 1020.44 389.227C1021.07 386.849 1022.33 380.233 1025.97 381.237C1029.05 382.054 1028.87 387.704 1029.13 390.082C1029.53 393.873 1029.91 397.664 1030.24 401.418C1030.91 408.889 1031.43 416.322 1031.84 423.792C1032.32 432.378 1032.62 440.963 1032.76 449.549C1032.76 450.255 1033.88 450.255 1033.88 449.549C1033.54 431.895 1032.58 414.241 1030.87 396.661C1030.5 392.758 1030.39 388.707 1029.57 384.879C1029.16 382.909 1028.2 380.456 1025.97 380.047C1023.41 379.527 1021.74 381.943 1020.88 383.987C1019.4 387.518 1018.58 391.495 1017.88 395.248C1016.28 403.983 1016.17 412.903 1017.51 421.674C1017.73 421.451 1017.95 421.228 1018.17 421.005C1014.39 419.704 1015.95 430.408 1016.1 431.895C1016.17 432.601 1017.25 432.638 1017.21 431.895C1017.1 429.962 1015.09 429.033 1013.31 429.479C1010.53 430.148 1010.23 433.53 1010.45 435.872C1011.16 443.677 1013.94 451.333 1018.1 457.949C1018.62 458.506 1019.59 457.949 1019.18 457.354Z" fill="#3AAF83"/>
<path d="M1032.95 419.518C1033.14 418.18 1033.4 416.879 1033.73 415.541C1033.92 414.91 1034.1 414.241 1034.32 413.609C1034.44 413.311 1035.44 410.561 1036.18 411.936C1036.44 412.457 1037.18 412.196 1037.22 411.639C1037.48 406.398 1038.82 401.307 1041.3 396.661C1041.82 395.657 1043.23 392.61 1044.5 394.579C1045.09 395.546 1045.05 396.809 1045.09 397.887C1045.16 400.675 1045.2 403.462 1045.2 406.25C1045.2 417.437 1044.64 428.587 1043.49 439.7C1043.42 440.332 1044.42 440.443 1044.57 439.848C1044.83 438.994 1047.54 433.381 1048.91 436.28C1049.47 437.47 1048.88 439.848 1048.77 441.112C1048.47 444.829 1048.06 448.545 1047.5 452.262C1047.39 452.968 1048.47 453.266 1048.58 452.559C1049.03 449.698 1049.36 446.836 1049.66 443.937C1049.8 442.301 1049.95 440.629 1050.06 438.956C1050.14 437.916 1050.29 436.764 1049.95 435.76C1049.51 434.422 1048.28 433.902 1047.02 434.571C1045.2 435.537 1044.09 437.656 1043.53 439.514C1043.9 439.551 1044.27 439.625 1044.61 439.663C1046.02 425.762 1046.54 411.788 1046.2 397.85C1046.17 396.289 1046.13 393.836 1044.5 392.944C1042.86 392.052 1041.67 393.687 1040.97 394.914C1038 399.969 1036.44 405.729 1036.14 411.565C1036.48 411.453 1036.85 411.379 1037.18 411.267C1036.55 410.078 1035.07 410.152 1034.25 411.119C1033.51 412.011 1033.21 413.386 1032.91 414.464C1032.47 415.987 1032.17 417.511 1031.95 419.072C1031.76 419.927 1032.84 420.224 1032.95 419.518Z" fill="#3AAF83"/>
<path d="M854.49 535.181C849.218 530.944 844.615 525.889 840.939 520.203C839.157 517.452 837.635 514.591 836.299 511.617C835.111 508.941 832.735 504.295 835.482 501.842C835.668 501.657 835.668 501.359 835.556 501.173C834.814 499.761 828.651 488.128 831.287 487.57C831.658 487.496 831.77 487.05 831.621 486.753C828.243 480.174 824.827 473.41 823.379 466.051C822.674 462.557 822.191 458.395 823.119 454.901C823.379 453.823 823.342 453.972 824.53 453.6C825.718 453.228 825.718 453.228 826.609 454.083C827.315 454.789 827.871 455.681 828.391 456.536C829.431 458.172 830.396 459.844 831.324 461.554C834.962 468.281 838.081 475.268 841.348 482.144C844.8 489.392 848.29 496.602 851.743 503.849C855.641 511.989 859.539 520.091 863.437 528.231C863.734 528.863 864.699 528.305 864.402 527.673C856.495 511.208 848.624 494.706 840.717 478.242C837.004 470.474 833.626 462.297 828.762 455.124C827.574 453.377 825.05 450.515 822.897 452.745C822.117 453.563 821.931 454.715 821.783 455.793C821.523 457.874 821.486 459.956 821.634 462.037C822.34 471.068 826.535 479.394 830.619 487.347C830.73 487.087 830.841 486.79 830.953 486.53C828.688 487.013 829.431 489.875 829.95 491.399C831.213 494.967 832.735 498.423 834.554 501.768C834.591 501.545 834.628 501.322 834.628 501.099C832.475 503.032 832.92 506.079 833.737 508.532C834.962 512.063 836.707 515.52 838.601 518.716C842.536 525.332 847.622 531.167 853.599 535.999C854.267 536.407 855.047 535.627 854.49 535.181Z" fill="#3AAF83"/>
<path d="M849.998 496.453C848.736 494.409 847.808 492.254 847.251 489.912C846.991 488.723 846.842 487.533 846.768 486.307C846.731 485.787 846.731 485.266 846.768 484.709C846.768 484.486 846.805 484.3 846.805 484.077C846.694 483.185 847.102 482.776 848.068 482.813C848.402 483.445 849.33 482.888 849.033 482.256C845.951 475.714 844.132 468.616 843.761 461.405C843.613 458.543 843.019 453.786 845.135 451.482C847.659 448.694 851 457.763 851.632 459.361C856.866 472.667 861.581 486.195 865.739 499.91C868.115 507.715 870.305 515.594 872.31 523.511C872.496 524.217 873.572 523.92 873.387 523.213C869.266 507.046 864.403 491.064 858.834 475.343C857.46 471.44 856.012 467.575 854.527 463.71C853.191 460.216 852.04 456.536 850.109 453.303C849.181 451.742 847.251 448.434 845.06 449.958C842.759 451.556 842.61 455.198 842.573 457.689C842.425 466.386 844.392 474.971 848.068 482.85C848.402 482.665 848.699 482.479 849.033 482.293C848.587 481.438 847.659 481.178 846.805 481.661C845.58 482.367 845.654 484.188 845.617 485.378C845.58 489.503 846.805 493.554 848.996 497.048C849.404 497.643 850.369 497.085 849.998 496.453Z" fill="#3AAF83"/>
<path d="M1251.99 484.709C1249.05 480.174 1246.68 475.305 1244.97 470.214C1244.15 467.761 1243.45 465.233 1242.93 462.669C1242.37 459.956 1242.08 457.168 1243.45 454.641C1243.15 454.678 1242.85 454.715 1242.56 454.752C1245.05 456.945 1246.79 459.584 1247.79 462.743C1248.02 463.412 1249.05 463.152 1248.87 462.446C1244.9 447.653 1242.97 432.043 1246.75 416.991C1246.38 416.991 1246.05 416.991 1245.68 416.991C1247.24 422.269 1248.42 427.658 1249.24 433.121C1249.61 433.01 1249.95 432.935 1250.32 432.824C1249.13 426.468 1248.87 420.001 1249.57 413.572C1250.21 407.997 1251.1 401.084 1255.55 397.144C1255.29 397.144 1255.03 397.144 1254.77 397.144C1256 398.705 1255.92 400.712 1255.96 402.607C1256 404.28 1256 405.952 1255.96 407.662C1255.92 411.267 1255.85 414.872 1255.77 418.478C1255.59 425.576 1255.29 432.675 1255.18 439.737C1254.92 453.749 1255.33 467.835 1258.15 481.624C1258.3 482.33 1259.38 482.033 1259.23 481.326C1256.26 466.683 1256.03 451.705 1256.37 436.838C1256.52 429.516 1256.81 422.157 1257 414.835C1257.07 411.23 1257.11 407.625 1257.11 404.02C1257.11 401.381 1257.33 398.556 1255.59 396.363C1255.4 396.103 1254.99 396.178 1254.81 396.363C1250.43 400.229 1249.39 406.696 1248.68 412.196C1247.76 419.147 1248.02 426.208 1249.28 433.121C1249.43 433.827 1250.47 433.53 1250.35 432.824C1249.54 427.36 1248.35 421.971 1246.79 416.694C1246.64 416.173 1245.86 416.136 1245.71 416.694C1241.89 431.932 1243.82 447.765 1247.83 462.743C1248.2 462.632 1248.53 462.557 1248.91 462.446C1247.87 459.138 1246.01 456.276 1243.41 453.972C1243.15 453.749 1242.71 453.749 1242.52 454.083C1240 458.655 1242.08 464.676 1243.52 469.284C1245.31 474.934 1247.83 480.323 1251.06 485.303C1251.39 485.861 1252.36 485.303 1251.99 484.709Z" fill="#3AAF83"/>
<path d="M1256.7 458.915C1256.48 452.634 1257.37 446.464 1259.41 440.555C1259.19 440.666 1258.97 440.815 1258.74 440.926C1259.12 441.372 1259.49 441.818 1259.86 442.264C1259.97 442.896 1260.93 442.71 1260.93 442.116C1261.23 435.649 1262.42 429.256 1264.5 423.123C1265.54 420.039 1266.8 417.028 1268.29 414.092C1269.7 411.304 1271.22 408.405 1273.97 406.696C1273.71 406.473 1273.41 406.287 1273.15 406.064C1269.29 427.583 1266.32 449.215 1264.24 470.994C1264.61 470.994 1264.98 470.994 1265.35 470.994C1265.35 466.609 1266.76 462.483 1269.51 459.064C1269.18 458.915 1268.88 458.804 1268.55 458.655C1268.51 463.487 1268.06 468.318 1267.17 473.076C1267.02 473.782 1267.99 474.042 1268.25 473.373C1269.14 470.994 1270.96 469.21 1273.33 468.355C1273.11 468.132 1272.89 467.909 1272.67 467.686C1271.74 472.332 1270.81 477.015 1269.84 481.661C1269.7 482.367 1270.77 482.665 1270.92 481.958C1271.85 477.313 1272.78 472.63 1273.74 467.984C1273.82 467.612 1273.48 467.129 1273.07 467.315C1270.29 468.355 1268.25 470.362 1267.21 473.113C1267.58 473.224 1267.91 473.299 1268.29 473.41C1269.21 468.541 1269.7 463.635 1269.73 458.692C1269.73 458.246 1269.1 457.912 1268.77 458.283C1265.84 461.926 1264.24 466.311 1264.28 470.994C1264.28 471.738 1265.32 471.7 1265.39 470.994C1267.43 449.326 1270.4 427.769 1274.26 406.361C1274.34 405.915 1273.89 405.469 1273.45 405.729C1271.03 407.253 1269.47 409.595 1268.14 412.085C1266.5 415.133 1265.09 418.329 1263.94 421.6C1261.57 428.215 1260.27 435.128 1259.93 442.153C1260.3 442.116 1260.68 442.041 1261.01 442.004C1260.79 440.889 1260.19 440.257 1259.12 439.886C1258.82 439.774 1258.52 439.997 1258.45 440.257C1256.41 446.278 1255.48 452.56 1255.7 458.915C1255.59 459.621 1256.7 459.621 1256.7 458.915Z" fill="#3AAF83"/>
<path d="M1190.88 288.803C1191.33 284.157 1197.23 286.202 1199.64 287.577C1201.76 288.766 1203.95 290.178 1206.47 290.067C1210.93 289.918 1213.67 285.681 1217.83 284.752C1222.62 283.674 1225.59 289.398 1230.34 288.878C1232.5 288.617 1234.28 287.205 1236.14 286.164C1238.96 284.566 1241.18 284.864 1243.82 286.685C1245.75 287.986 1247.53 289.324 1249.98 289.212C1251.73 289.101 1253.25 288.283 1253.66 286.536C1253.84 285.83 1252.77 285.533 1252.58 286.239C1251.84 289.249 1247.76 288.023 1246.01 286.871C1244.12 285.644 1242.22 283.972 1239.85 283.897C1234.84 283.749 1232.01 289.695 1226.71 286.982C1224.7 285.941 1222.99 284.38 1220.8 283.749C1218.98 283.265 1217.16 283.637 1215.49 284.455C1213.49 285.421 1211.78 286.871 1209.85 287.911C1206.81 289.509 1204.17 288.878 1201.27 287.242C1198.97 285.941 1196.37 284.232 1193.55 284.826C1191.51 285.235 1189.95 286.722 1189.73 288.803C1189.69 289.509 1190.81 289.509 1190.88 288.803Z" fill="#3AAF83"/>
<path d="M1227.86 303.261C1229.42 300.436 1233.17 299.098 1236.02 300.734C1237.99 301.849 1239.59 304.227 1242.08 304.227C1244.97 304.227 1246.34 301.031 1248.87 300.139C1252.51 298.875 1254.66 301.18 1257.41 303.001C1259.19 304.19 1261.12 304.376 1262.94 303.149C1265.06 301.737 1266.47 298.801 1269.29 298.652C1273.56 298.429 1279.72 305.788 1283.66 300.696C1284.1 300.139 1283.32 299.359 1282.88 299.916C1279.57 304.19 1273.41 297.612 1269.58 297.537C1267.8 297.5 1266.39 298.392 1265.13 299.582C1263.68 300.957 1262.2 303.149 1259.93 302.889C1257.67 302.629 1256.18 300.325 1254.18 299.396C1252.43 298.578 1250.35 298.467 1248.53 299.098C1246.34 299.842 1245.27 301.923 1243.26 302.815C1240.78 303.967 1238.85 301.291 1236.95 300.065C1233.54 297.798 1228.75 299.173 1226.82 302.741C1226.56 303.335 1227.52 303.893 1227.86 303.261Z" fill="#3AAF83"/>
<path d="M790.635 295.196C790.672 293.115 793.011 293.263 794.199 293.895C794.942 294.304 795.573 294.899 796.204 295.456C797.058 296.199 797.912 296.98 798.951 297.389C800.696 298.058 802.33 297.575 803.777 296.497C805.485 295.233 806.859 293.152 808.975 292.557C811.574 291.814 813.727 294.118 815.732 295.345C817.365 296.348 819.11 296.98 821.003 296.237C823.565 295.233 824.753 292.334 827.352 291.368C828.763 290.847 829.728 291.07 830.693 292.297C831.064 292.743 831.287 293.226 831.733 293.635C832.327 294.192 833.106 294.49 833.923 294.601C835.705 294.824 837.45 294.007 838.341 292.446C838.712 291.814 837.747 291.256 837.376 291.888C836.559 293.338 834.628 293.969 833.106 293.226C831.881 292.594 831.547 291.07 830.359 290.401C828.54 289.361 826.312 290.401 824.864 291.628C822.377 293.709 820.521 296.757 816.883 294.787C814.989 293.746 813.393 292.037 811.277 291.516C809.458 291.07 807.787 291.739 806.376 292.854C804.594 294.23 802.849 296.906 800.325 296.645C797.429 296.348 796.093 292.78 793.16 292.408C791.341 292.148 789.559 293.338 789.521 295.233C789.484 295.902 790.598 295.902 790.635 295.196Z" fill="#3AAF83"/>
<path d="M819.481 286.647C820.112 284.566 821.857 283.154 823.973 282.745C825.013 282.522 826.127 282.559 827.129 282.931C828.317 283.377 828.948 284.269 829.876 285.049C832.475 287.279 835.074 285.384 837.413 283.749C838.935 282.671 840.791 281.333 842.536 282.819C843.613 283.749 844.169 285.347 845.617 285.83C847.214 286.313 848.179 285.049 849.144 284.046C851.557 281.481 854.713 283.228 857.126 284.864C857.72 285.272 858.277 284.306 857.683 283.897C855.864 282.671 853.599 281.295 851.297 281.556C850.444 281.667 849.701 281.965 849.07 282.522C847.993 283.414 846.991 285.644 845.283 284.269C843.91 283.191 843.427 281.37 841.496 281.035C839.937 280.775 838.489 281.704 837.227 282.522C835.779 283.488 833.812 285.384 831.881 284.901C830.619 284.566 829.913 283.228 828.874 282.522C828.169 282.039 827.352 281.704 826.461 281.556C823.045 280.961 819.407 282.931 818.442 286.313C818.182 287.019 819.259 287.316 819.481 286.647Z" fill="#3AAF83"/>
<path d="M1037.48 145.451C1037.11 143.705 1039.15 142.998 1040.38 143.296C1041.27 143.482 1042.08 144.151 1042.75 144.708C1043.79 145.6 1044.76 146.641 1045.94 147.347C1048.02 148.573 1049.99 148.165 1051.88 146.864C1052.92 146.158 1053.93 145.228 1055.11 144.82C1056.67 144.262 1058.08 144.782 1059.46 145.563C1061.28 146.604 1062.95 148.127 1065.1 148.462C1067.29 148.796 1069.04 147.57 1070.59 146.158C1072.86 144.113 1074.83 142.552 1078.02 143.63C1082.1 145.005 1086 148.722 1090.31 145.749C1091.5 144.931 1092.5 143.705 1093.87 143.221C1095.91 142.515 1096.62 144.485 1098.03 145.451C1100.11 146.938 1102.86 146.641 1104.82 145.117C1105.38 144.671 1104.6 143.89 1104.04 144.336C1102.37 145.637 1099.96 145.674 1098.33 144.262C1097.44 143.482 1096.88 142.478 1095.73 142.069C1093.54 141.326 1091.72 143.333 1090.16 144.522C1085.11 148.276 1080.84 141.921 1075.64 142.069C1073.23 142.144 1071.56 143.816 1069.89 145.34C1068.81 146.306 1067.59 147.347 1066.03 147.384C1064.54 147.384 1063.24 146.566 1062.06 145.823C1060.2 144.634 1058.23 143.147 1055.93 143.482C1053.37 143.816 1051.88 146.306 1049.43 146.938C1045.68 147.904 1043.72 142.552 1040.19 142.143C1038.07 141.883 1035.99 143.593 1036.48 145.786C1036.55 146.455 1037.63 146.158 1037.48 145.451Z" fill="#3AAF83"/>
<path d="M1077.91 155.598C1079.36 152.699 1082.77 152.29 1085.59 153.256C1087.82 154 1089.9 156.118 1092.28 156.341C1094.28 156.49 1095.51 155.003 1096.92 153.851C1099.55 151.695 1102.45 152.104 1105.27 153.591C1106.87 154.446 1108.69 155.561 1110.58 155.3C1112.62 155.003 1113.44 153.256 1115.03 152.253C1117 151.026 1119.15 153.368 1121.27 153.479C1123.2 153.591 1125.02 152.773 1126.32 151.398C1126.8 150.878 1126.02 150.097 1125.54 150.618C1124.46 151.733 1123.09 152.402 1121.53 152.402C1119.97 152.364 1119.04 151.51 1117.67 150.952C1116.3 150.395 1115.11 150.729 1113.99 151.658C1113.07 152.402 1112.32 153.479 1111.21 153.962C1109.61 154.631 1108.05 153.814 1106.64 153.071C1104.79 152.104 1102.97 151.101 1100.78 151.212C1098.81 151.324 1097.18 152.179 1095.73 153.442C1094.21 154.78 1092.87 155.746 1090.79 154.706C1089.57 154.111 1088.45 153.293 1087.19 152.736C1083.66 151.175 1078.91 151.175 1076.98 155.077C1076.65 155.672 1077.57 156.23 1077.91 155.598Z" fill="#3AAF83"/>
<path d="M823.899 370.904C825.607 369.529 828.057 367.782 830.173 369.455C831.064 370.161 831.621 371.239 832.586 371.871C833.96 372.8 835.445 372.577 836.67 371.536C838.267 370.198 839.64 367.002 842.165 367.857C844.132 368.488 845.283 370.681 847.065 371.648C851.149 373.878 852.931 368.934 855.678 367.113C858.5 365.255 859.836 369.195 861.692 370.495C863.103 371.462 865.034 371.722 866.073 370.198C866.482 369.603 865.516 369.046 865.108 369.641C863.326 372.242 859.836 366.296 858.24 365.701C856.718 365.143 855.27 365.887 854.156 366.927C852.782 368.228 851.632 370.495 849.664 371.016C847.325 371.61 845.58 368.897 843.947 367.671C842.722 366.742 841.274 366.296 839.826 366.927C838.081 367.708 837.264 369.603 835.816 370.756C833.292 372.763 831.881 368.934 829.876 367.968C827.426 366.816 824.864 368.6 823.045 370.087C822.563 370.57 823.342 371.35 823.899 370.904Z" fill="#3AAF83"/>
<path d="M1067.96 355.332C1068.22 353.101 1070.97 353.399 1072.34 354.142C1073.34 354.662 1074.16 355.443 1075.09 356.075C1076.61 357.116 1078.43 357.896 1080.28 357.227C1082.44 356.409 1083.7 354.402 1086 353.77C1088.9 352.953 1091.24 353.956 1093.83 355.109C1095.36 355.778 1097.06 356.372 1098.7 355.666C1100.48 354.923 1101.56 352.544 1103.75 353.139C1106.61 353.919 1108.2 357.339 1111.47 356.893C1112.17 356.818 1112.17 355.703 1111.47 355.778C1107.94 356.224 1106.09 351.355 1102.49 351.949C1100.26 352.284 1099.29 354.96 1096.92 354.885C1094.35 354.811 1092.16 352.767 1089.6 352.395C1087.38 352.098 1085.07 352.581 1083.18 353.808C1082.18 354.439 1081.4 355.406 1080.36 355.926C1078.32 357.004 1076.5 355.74 1074.9 354.551C1073.3 353.399 1071.56 352.024 1069.44 352.507C1068 352.841 1066.99 353.845 1066.81 355.332C1066.77 356.038 1067.88 356.038 1067.96 355.332Z" fill="#3AAF83"/>
<path d="M1222.88 186.446C1222.96 184.848 1224.92 184.476 1226.22 184.662C1227.56 184.848 1228.75 185.703 1229.97 186.223C1231.83 187.041 1233.46 187.041 1235.28 186.149C1236.62 185.517 1237.81 184.736 1239.29 184.513C1240.96 184.29 1242.52 184.662 1244.01 185.517C1245.79 186.558 1247.35 187.858 1249.5 187.97C1253.25 188.193 1256.44 185.331 1259.64 183.733C1262.12 182.469 1264.42 182.135 1266.91 183.547C1268.8 184.588 1270.66 186.112 1272.96 185.851C1275.56 185.554 1276.27 182.655 1278.72 181.949C1281.58 181.131 1284.77 182.432 1287.33 183.584C1287.96 183.882 1288.56 182.915 1287.89 182.618C1284.25 180.983 1278.98 179.087 1275.71 182.469C1274.41 183.807 1273.52 185.145 1271.37 184.588C1269.62 184.142 1268.25 182.878 1266.65 182.135C1264.83 181.28 1262.94 181.28 1261.05 181.912C1257.07 183.25 1253.06 187.784 1248.57 186.706C1245.86 186.037 1244.04 183.696 1241.11 183.361C1240.03 183.25 1238.92 183.324 1237.88 183.659C1236.43 184.105 1235.24 185.108 1233.83 185.517C1230.71 186.409 1228.45 183.324 1225.41 183.436C1223.59 183.51 1221.84 184.439 1221.73 186.372C1221.73 187.189 1222.84 187.189 1222.88 186.446Z" fill="#3AAF83"/>
<path d="M847.325 339.61C849.662 339.61 851.557 337.713 851.557 335.373C851.557 333.033 849.662 331.136 847.325 331.136C844.988 331.136 843.093 333.033 843.093 335.373C843.093 337.713 844.988 339.61 847.325 339.61Z" fill="#EC615B"/>
<path d="M1075.61 200.755C1078.37 200.755 1080.62 198.509 1080.62 195.738C1080.62 192.967 1078.37 190.72 1075.61 190.72C1072.84 190.72 1070.59 192.967 1070.59 195.738C1070.59 198.509 1072.84 200.755 1075.61 200.755Z" fill="#EC615B"/>
<path d="M1232.16 344.851C1233.6 344.851 1234.76 343.686 1234.76 342.249C1234.76 340.812 1233.6 339.647 1232.16 339.647C1230.73 339.647 1229.56 340.812 1229.56 342.249C1229.56 343.686 1230.73 344.851 1232.16 344.851Z" fill="#EC615B"/>
<path d="M1269.51 151.77C1272.09 151.77 1274.19 149.673 1274.19 147.087C1274.19 144.5 1272.09 142.404 1269.51 142.404C1266.93 142.404 1264.83 144.5 1264.83 147.087C1264.83 149.673 1266.93 151.77 1269.51 151.77Z" fill="#EC615B"/>
<path d="M829.653 170.613C831.724 170.613 833.403 168.933 833.403 166.859C833.403 164.786 831.724 163.106 829.653 163.106C827.583 163.106 825.904 164.786 825.904 166.859C825.904 168.933 827.583 170.613 829.653 170.613Z" fill="#EC615B"/>
<path d="M840.977 186.112C842.719 186.112 844.132 184.697 844.132 182.952C844.132 181.208 842.719 179.793 840.977 179.793C839.234 179.793 837.821 181.208 837.821 182.952C837.821 184.697 839.234 186.112 840.977 186.112Z" fill="#3AAF83"/>
<path d="M837.19 352.433C839.281 352.433 840.977 350.735 840.977 348.642C840.977 346.548 839.281 344.851 837.19 344.851C835.098 344.851 833.403 346.548 833.403 348.642C833.403 350.735 835.098 352.433 837.19 352.433Z" fill="#3AAF83"/>
<path d="M1247.57 161.173C1249.07 161.173 1250.28 159.958 1250.28 158.46C1250.28 156.961 1249.07 155.746 1247.57 155.746C1246.07 155.746 1244.86 156.961 1244.86 158.46C1244.86 159.958 1246.07 161.173 1247.57 161.173Z" fill="#3AAF83"/>
<path d="M1060.91 329.649C1062.77 329.649 1064.28 328.135 1064.28 326.267C1064.28 324.399 1062.77 322.885 1060.91 322.885C1059.04 322.885 1057.53 324.399 1057.53 326.267C1057.53 328.135 1059.04 329.649 1060.91 329.649Z" fill="#3AAF83"/>
<path d="M1221.8 360.758C1223.49 360.758 1224.85 359.393 1224.85 357.71C1224.85 356.027 1223.49 354.663 1221.8 354.663C1220.12 354.663 1218.76 356.027 1218.76 357.71C1218.76 359.393 1220.12 360.758 1221.8 360.758Z" fill="#3AAF83"/>
<path d="M1215.16 260.259C1216.35 259.107 1217.68 257.88 1219.32 257.434C1221.36 256.877 1222.18 258.215 1223.81 258.995C1225.29 259.702 1226.71 259.181 1228.04 258.438C1228.93 257.918 1229.82 257.249 1230.83 256.989C1232.42 256.58 1233.17 257.732 1234.2 258.624C1235.47 259.702 1236.88 259.85 1238.47 259.33C1240.33 258.735 1242.45 256.914 1244.49 257.546C1246.42 258.141 1247.09 260.556 1249.35 260.668C1251.28 260.742 1252.84 259.218 1254.33 258.252C1257.56 256.171 1260.56 257.769 1263.46 259.664C1264.05 260.073 1264.61 259.107 1264.02 258.698C1261.94 257.286 1259.49 255.762 1256.85 256.059C1254.44 256.32 1252.92 258.252 1250.8 259.181C1247.87 260.482 1246.86 256.691 1244.27 256.319C1242.3 256.059 1240.48 257.323 1238.73 258.029C1237.17 258.661 1235.99 258.661 1234.69 257.509C1234.02 256.914 1233.5 256.245 1232.61 255.911C1230.83 255.279 1229.19 256.505 1227.71 257.36C1226.15 258.252 1225.11 258.512 1223.51 257.472C1222.62 256.877 1221.95 256.319 1220.84 256.208C1218.32 255.948 1216.12 257.88 1214.45 259.516C1213.86 259.962 1214.64 260.779 1215.16 260.259Z" fill="#3AAF83"/>
<path d="M805.114 425.391C806.525 423.681 808.307 423.792 810.014 424.87C810.942 425.428 811.685 425.911 812.799 425.837C814.766 425.688 816.251 424.09 817.885 423.198C819.63 422.231 820.781 422.603 822.228 423.941C823.008 424.684 823.751 425.428 824.827 425.688C826.683 426.097 828.28 424.87 829.691 423.83C830.693 423.086 831.732 422.194 832.958 421.934C834.443 421.6 835.705 422.38 836.93 423.049C838.898 424.09 840.754 424.722 842.796 423.458C843.761 422.863 844.541 422.008 845.469 421.377C846.991 420.373 848.364 420.596 849.998 421.079C851.928 421.637 853.859 422.343 855.53 420.893C856.086 420.41 855.27 419.63 854.75 420.113C852.708 421.823 849.293 419.184 846.879 419.593C844.503 420.001 843.315 422.454 841.088 423.049C838.415 423.718 836.299 420.708 833.626 420.782C831.547 420.819 829.95 422.343 828.391 423.458C827.24 424.276 825.867 425.168 824.419 424.424C823.379 423.867 822.748 422.789 821.783 422.157C820.001 421.005 818.219 421.711 816.585 422.752C815.732 423.309 814.952 423.941 814.024 424.387C812.205 425.242 811.277 424.164 809.717 423.421C807.824 422.492 805.634 423.086 804.334 424.684C803.889 425.168 804.668 425.948 805.114 425.391Z" fill="#3AAF83"/>
<path d="M1037.37 127.872C1038.48 129.656 1040.34 130.77 1042.42 130.919C1045.16 131.105 1046.32 129.395 1048.58 128.317C1051.33 127.017 1053.44 130.362 1056.3 129.953C1058.38 129.655 1059.98 128.057 1061.68 126.942C1062.91 126.125 1064.25 125.53 1065.73 125.939C1066.96 126.236 1068 127.017 1069.07 127.611C1070.85 128.615 1072.71 129.135 1074.49 127.872C1075.68 127.054 1076.46 125.567 1077.95 125.195C1080.06 124.638 1082.03 126.348 1083.74 127.314C1085.7 128.466 1088.12 129.284 1090.16 127.872C1090.75 127.463 1090.2 126.496 1089.6 126.905C1086.74 128.912 1083.59 125.567 1081.03 124.526C1079.02 123.709 1077.2 123.895 1075.61 125.344C1074.38 126.422 1073.49 127.797 1071.63 127.5C1070.45 127.314 1069.37 126.496 1068.37 125.902C1066.73 124.972 1065.03 124.341 1063.17 124.935C1061.28 125.567 1059.87 127.017 1058.2 128.02C1057.08 128.689 1055.89 129.135 1054.63 128.726C1053.48 128.392 1052.59 127.537 1051.48 127.128C1049.1 126.273 1047.69 127.76 1045.8 128.949C1043.27 130.51 1040 129.841 1038.37 127.314C1037.92 126.682 1036.96 127.24 1037.37 127.872Z" fill="#EC615B"/>
<path d="M874.835 165.967C874.315 168.011 874.835 529.606 874.835 529.606L1006.41 460.439V135.453L874.835 165.967Z" fill="white" stroke="#161616" stroke-width="3" stroke-miterlimit="10"/>
<path d="M971.211 429.219C982.906 432.341 994.526 435.835 1006.03 439.626C1006.7 439.849 1007 438.771 1006.33 438.548C994.823 434.757 983.203 431.263 971.508 428.141C970.803 427.955 970.506 429.033 971.211 429.219Z" fill="#161616"/>
<path d="M946.152 461.777C942.365 463.152 936.908 464.676 930.151 464.973C922.689 465.345 916.563 464.118 912.517 462.966C911.885 463.003 908.396 463.04 905.537 460.364C903.718 458.655 902.53 456.276 902.419 453.563L899.486 372.428C899.3 367.039 903.495 362.505 908.878 362.319C913.073 360.869 919.236 359.271 926.884 359.16C933.307 359.085 938.653 360.052 942.551 361.092C943.182 361.055 946.672 361.018 949.53 363.694C951.349 365.404 952.537 367.782 952.649 370.495L955.582 451.63C955.73 457.057 951.535 461.591 946.152 461.777Z" fill="white" stroke="#161616" stroke-width="3" stroke-miterlimit="10"/>
<path d="M899.634 370.904C915.598 379.49 936.239 375.959 951.758 368.191C952.389 367.857 951.832 366.89 951.201 367.225C936.017 374.807 915.784 378.338 900.191 369.938C899.56 369.603 898.966 370.57 899.634 370.904Z" fill="#161616"/>
<path d="M899.746 381.237C915.784 392.907 938.059 391.643 952.723 378.338C953.243 377.855 952.463 377.074 951.943 377.557C937.613 390.565 915.932 391.643 900.302 380.27C899.746 379.862 899.189 380.828 899.746 381.237Z" fill="#161616"/>
<path d="M900.006 393.688C902.382 397.441 907.431 399.262 911.44 400.638C916.378 402.31 921.575 403.091 926.773 402.905C936.499 402.607 945.892 398.965 953.428 392.795C953.985 392.349 953.206 391.569 952.649 392.015C945.521 397.85 936.648 401.344 927.441 401.79C922.8 402.013 918.123 401.455 913.63 400.154C911.366 399.523 909.138 398.668 907.022 397.664C904.758 396.549 902.382 395.36 900.971 393.167C900.6 392.498 899.634 393.056 900.006 393.688Z" fill="#161616"/>
<path d="M900.302 407.328C903.347 410.896 907.765 412.977 912.145 414.426C917.046 416.062 922.28 416.805 927.441 416.582C937.242 416.173 946.634 412.271 953.985 405.767C954.542 405.283 953.725 404.503 953.206 404.986C946.078 411.267 936.945 415.058 927.441 415.467C922.689 415.653 917.937 415.058 913.37 413.646C908.841 412.271 904.201 410.189 901.082 406.547C900.637 405.99 899.857 406.77 900.302 407.328Z" fill="#161616"/>
<path d="M901.119 421.748C908.099 428.401 917.714 431.858 927.329 431.56C937.39 431.226 946.931 426.952 954.468 420.373C955.025 419.89 954.208 419.109 953.688 419.593C946.375 425.948 937.093 430.111 927.329 430.445C918.011 430.743 908.693 427.435 901.899 420.968C901.379 420.485 900.599 421.265 901.119 421.748Z" fill="#161616"/>
<path d="M901.342 437.953C909.027 444.754 919.311 448.211 929.557 447.282C938.95 446.427 949.122 442.97 954.728 434.943C955.136 434.348 954.171 433.79 953.763 434.385C948.305 442.227 938.022 445.535 928.852 446.241C919.125 446.984 909.398 443.639 902.085 437.173C901.602 436.689 900.822 437.507 901.342 437.953Z" fill="#161616"/>
<path d="M902.307 450.107C910.178 455.31 919.607 457.949 929.037 457.651C938.356 457.354 948.231 454.344 955.062 447.765C955.582 447.282 954.802 446.464 954.282 446.985C947.525 453.489 937.687 456.388 928.443 456.574C919.385 456.722 910.4 454.158 902.864 449.177C902.27 448.769 901.713 449.698 902.307 450.107Z" fill="#161616"/>
<path d="M910.103 366.965C912.999 366.928 915.858 366.89 918.754 366.853C919.459 366.853 919.459 365.738 918.754 365.738C915.858 365.775 912.999 365.813 910.103 365.85C909.398 365.887 909.398 367.002 910.103 366.965Z" fill="#161616"/>
<path d="M919.719 361.947C919.014 363.88 918.271 366.11 919.311 368.08C919.979 369.381 921.315 370.161 922.763 369.864C924.471 369.529 924.805 368.191 924.879 366.667C924.954 365.144 925.362 363.062 927.293 362.876C929.743 362.653 929.409 366.853 929.52 368.191C929.594 368.897 930.708 368.897 930.634 368.191C930.485 366.556 930.708 364.029 929.631 362.616C928.666 361.39 926.958 361.576 925.733 362.356C924.285 363.285 923.766 364.735 923.766 366.37C923.729 369.195 920.87 369.641 920.053 366.89C919.608 365.329 920.276 363.657 920.796 362.207C921.018 361.575 919.942 361.278 919.719 361.947Z" fill="#161616"/>
<path d="M930.374 365.85C932.564 365.887 934.755 365.961 936.908 365.998C937.613 365.998 937.613 364.883 936.908 364.883C934.717 364.846 932.527 364.772 930.374 364.735C929.631 364.735 929.631 365.85 930.374 365.85Z" fill="#161616"/>
<path d="M874.798 502.177L1006.41 438.808V460.439L874.835 529.606L874.798 502.177Z" fill="#161616" stroke="#161616" stroke-width="3" stroke-miterlimit="10"/>
<path d="M945.966 484.597C948.919 484.597 951.312 482.201 951.312 479.245C951.312 476.289 948.919 473.893 945.966 473.893C943.014 473.893 940.62 476.289 940.62 479.245C940.62 482.201 943.014 484.597 945.966 484.597Z" fill="white" stroke="#161616" stroke-width="3" stroke-miterlimit="10"/>
<path d="M1137.31 222.461C1135.3 222.349 1133.63 223.39 1128.77 228.259C1123.87 233.165 1121.53 236.138 1117.89 240.226C1116.59 241.713 1117.6 240.524 1104.27 253.606C1103.08 254.796 1100.93 256.877 1097.51 258.327C1096.43 258.773 1093.95 259.776 1090.94 259.739C1089.08 259.702 1085.93 259.256 1080.54 255.353C1078.99 254.201 1075.5 251.525 1067.66 241.602C1066.1 239.632 1063.1 235.766 1059.68 231.158C1057.34 227.961 1054.19 225.323 1052.22 221.866C1051.44 220.528 1050.14 218.001 1047.95 217.629C1047.73 217.592 1046.54 217.443 1045.91 218.112C1045.09 219.004 1045.54 220.974 1046.35 222.201C1047.17 223.464 1048.06 223.539 1048.54 224.839C1048.84 225.583 1048.8 226.289 1048.73 226.735C1045.31 224.765 1042.34 223.315 1040.15 222.275C1036.03 220.342 1033.73 219.599 1031.58 219.079C1026.16 217.778 1024.19 218.595 1023.19 219.301C1022.93 219.487 1021.44 220.491 1021.59 221.531C1021.78 222.832 1024.41 223.427 1026.42 223.91C1029.68 224.691 1031.84 224.505 1031.87 224.839C1031.91 225.248 1028.38 225.583 1023.71 227.553C1021.81 228.37 1019.92 229.337 1018.55 231.306C1018.36 231.604 1016.99 233.499 1017.54 234.168C1017.95 234.689 1019.44 234.391 1021.18 233.462C1021.03 233.685 1020.18 235.06 1020.74 235.989C1021.33 237.03 1023.26 236.807 1024.3 236.696C1026.19 236.473 1027.31 235.841 1028.38 235.395C1029.83 234.8 1032.1 234.243 1035.4 234.689C1032.5 235.878 1030.31 237.179 1028.79 238.182C1025.53 240.338 1025.08 241.341 1025.08 242.159C1025.08 242.977 1025.53 244.092 1026.38 244.389C1028.16 245.021 1029.53 241.453 1032.95 241.193C1033.99 241.118 1035.03 241.49 1037.03 242.233C1039.6 243.2 1041.08 244.166 1042.12 244.724C1044.01 245.727 1046.98 246.656 1051.66 246.099C1056.86 252.12 1061.61 256.728 1065.06 259.925C1073.19 267.358 1077.39 271.112 1084.29 273.416C1090.01 275.312 1094.76 275.275 1097.66 275.237C1108.5 275.089 1116.37 271.075 1120.01 269.142C1124.31 266.875 1132.19 262.749 1138.05 253.829C1140.58 250.001 1141.87 245.95 1144.47 237.848C1145.22 235.506 1145.74 233.648 1145.36 231.344C1144.62 227.181 1141.21 222.684 1137.31 222.461Z" fill="white"/>
<path opacity="0.15" d="M1025.41 243.497C1025.04 242.679 1026.86 241.081 1027.16 240.858C1029.76 238.591 1033.02 238.182 1034.51 238.034C1038.3 237.662 1043.2 237.179 1048.54 238.925C1059.05 242.308 1059.09 250.15 1070.63 259.107C1074.27 261.932 1084.22 269.662 1097.1 269.291C1105.86 269.031 1112.06 265.165 1118.67 261.04C1124.91 257.137 1135.38 249.369 1144.44 235.06C1144.44 236.621 1144.36 238.814 1143.81 241.379C1142.36 248.403 1138.79 253.049 1136.57 255.874C1128.88 265.611 1119.15 269.7 1115.33 271.261C1111.17 272.97 1105.42 275.275 1097.62 275.237C1084.52 275.163 1075.09 268.473 1072.49 266.578C1069.56 264.422 1065.55 260.259 1057.45 251.934C1054.67 249.072 1052.44 246.693 1050.96 245.095C1050.25 245.541 1049.1 246.173 1047.65 246.284C1044.79 246.507 1043.53 244.612 1038.85 242.828C1035.88 241.713 1034.44 241.155 1032.88 241.601C1030.95 242.196 1030.2 243.72 1027.64 243.98C1027.31 243.98 1025.75 244.129 1025.41 243.497Z" fill="#7A7A7A"/>
<path d="M1137.01 221.978C1129.51 225.508 1124.13 231.938 1118.89 238.145C1112.99 245.132 1106.35 252.454 1098.4 257.174C1088.56 263.01 1079.8 254.61 1073.53 247.66C1066.96 240.375 1061.54 232.236 1055.34 224.691C1053.67 222.609 1051.88 220.602 1050.03 218.707C1049.03 217.703 1047.69 216.328 1046.13 217.183C1045.05 217.778 1044.61 219.264 1044.83 220.417C1045.31 222.907 1048.54 224.393 1048.1 227.107C1047.99 227.813 1049.06 228.11 1049.17 227.404C1049.43 225.843 1048.88 224.616 1047.95 223.353C1047.39 222.609 1046.69 221.94 1046.28 221.086C1045.76 219.971 1045.42 217.257 1048.36 218.595C1048.84 218.818 1049.36 219.599 1049.73 219.971C1053.07 223.464 1056.08 227.292 1059.01 231.158C1064.51 238.48 1069.96 245.839 1076.42 252.343C1081.96 257.955 1089.75 262.712 1097.62 258.884C1101.3 257.1 1104.6 254.164 1107.65 251.488C1111.14 248.44 1114.37 245.132 1117.41 241.639C1123.42 234.689 1129.07 226.958 1137.61 222.944C1138.24 222.647 1137.68 221.68 1137.01 221.978Z" fill="#161616"/>
<path d="M1036.66 226.884C1034.32 225.062 1031.69 223.91 1028.72 223.576C1027.12 223.39 1025.38 223.501 1023.85 222.832C1022.89 222.386 1022.7 222.312 1022.67 221.16C1022.63 220.008 1022.7 220.082 1023.67 219.748C1024.75 219.376 1025.86 219.227 1026.97 219.19C1030.8 219.041 1034.58 220.342 1038.04 221.903C1041.64 223.501 1045.05 225.471 1048.32 227.627C1048.91 228.036 1049.47 227.069 1048.88 226.661C1044.83 223.985 1040.56 221.606 1036.03 219.859C1032.06 218.335 1027.53 217.369 1023.37 218.67C1022.37 219.004 1021.18 219.487 1021 220.677C1020.74 222.163 1022.18 223.316 1023.37 223.836C1024.97 224.542 1026.75 224.468 1028.46 224.654C1031.21 224.914 1033.73 225.954 1035.88 227.627C1036.44 228.11 1037.22 227.33 1036.66 226.884Z" fill="#161616"/>
<path d="M1031.72 224.356C1028.46 224.877 1025.3 225.954 1022.44 227.664C1020.44 228.853 1016.76 230.972 1016.91 233.722C1017.06 237.067 1020.48 234.726 1021.96 234.02C1025.67 232.198 1029.72 231.158 1033.84 230.86C1034.55 230.823 1034.55 229.708 1033.84 229.745C1031.43 229.931 1029.01 230.303 1026.68 231.009C1025.41 231.381 1024.23 231.827 1023 232.347C1021.96 232.793 1020.74 233.797 1019.66 234.02C1018.92 234.577 1018.55 234.02 1018.51 232.347C1018.77 231.975 1019.1 231.604 1019.44 231.306C1019.99 230.786 1020.62 230.303 1021.22 229.857C1022.22 229.151 1023.26 228.519 1024.34 227.961C1026.75 226.735 1029.35 225.917 1032.02 225.508C1032.73 225.323 1032.43 224.245 1031.72 224.356Z" fill="#161616"/>
<path d="M1022.18 232.533C1020.92 233.722 1018.55 237.885 1021.89 238.033C1022.67 238.071 1023.45 237.625 1024.15 237.327C1025.15 236.918 1026.19 236.547 1027.23 236.249C1028.38 235.915 1029.57 235.655 1030.76 235.432C1031.8 235.246 1034.18 234.614 1035.14 235.283C1035.73 235.692 1036.29 234.726 1035.7 234.317C1034.03 233.127 1030.31 234.317 1028.53 234.726C1027.05 235.06 1025.6 235.543 1024.15 236.101C1023.52 236.361 1021.4 237.625 1021.4 235.58C1021.4 234.8 1022.44 233.759 1022.96 233.276C1023.52 232.83 1022.74 232.05 1022.18 232.533Z" fill="#161616"/>
<path d="M1035.44 234.503C1032.17 235.692 1028.64 236.993 1026.23 239.595C1025.08 240.821 1022.56 245.021 1026.04 244.984C1027.79 244.947 1029.46 243.571 1030.98 242.828C1033.69 241.564 1036.33 242.345 1038.85 243.609C1042.79 245.578 1046.13 247.177 1050.66 246.47C1051.36 246.359 1051.07 245.281 1050.36 245.393C1046.06 246.062 1042.86 244.315 1039.11 242.494C1036.7 241.304 1034.03 240.487 1031.35 241.453C1030.09 241.936 1028.98 242.717 1027.75 243.274C1027.27 243.534 1026.75 243.683 1026.23 243.832C1025.45 243.2 1025.3 242.568 1025.82 241.936C1026.04 241.23 1026.86 240.524 1027.38 240.003C1029.68 237.773 1032.8 236.621 1035.73 235.581C1036.4 235.358 1036.11 234.28 1035.44 234.503Z" fill="#161616"/>
<path d="M1050.81 245.987C1056.93 252.863 1063.39 259.516 1070.34 265.5C1076.39 270.74 1083.07 274.494 1091.09 275.498C1106.57 277.393 1123.65 270.517 1134.26 259.293C1140.28 252.937 1144.33 244.872 1145.33 236.138C1145.4 235.432 1144.29 235.432 1144.21 236.138C1142.43 251.859 1130.63 264.013 1116.59 270.146C1109.39 273.305 1101.48 275.126 1093.58 274.643C1085.15 274.122 1077.98 270.592 1071.6 265.165C1064.43 259.07 1057.82 252.231 1051.55 245.207C1051.14 244.649 1050.32 245.467 1050.81 245.987Z" fill="#161616"/>
<path d="M927.404 252.491C925.844 253.346 923.728 254.758 921.649 256.914C912.702 266.317 914.707 280.069 915.041 282.336C915.635 286.424 917.38 298.355 927.738 304.19C934.309 307.907 941.066 307.275 943.85 306.866C943.293 302.964 942.588 298.95 941.734 294.787C938.281 278.434 933.01 264.273 927.404 252.491Z" fill="#161616" stroke="#161616" stroke-width="3" stroke-miterlimit="10"/>
<path d="M1058.46 287.056C1071.17 287.056 1081.47 276.739 1081.47 264.013C1081.47 251.287 1071.17 240.97 1058.46 240.97C1045.74 240.97 1035.44 251.287 1035.44 264.013C1035.44 276.739 1045.74 287.056 1058.46 287.056Z" fill="white" stroke="#161616" stroke-width="3" stroke-miterlimit="10"/>
<path d="M1056.97 247.697C1056.97 249.704 1056.97 251.711 1056.97 253.718C1056.97 254.424 1058.08 254.424 1058.08 253.718C1058.08 251.711 1058.08 249.704 1058.08 247.697C1058.08 246.991 1056.97 246.991 1056.97 247.697Z" fill="#161616"/>
<path d="M1061.76 254.127C1059.12 252.751 1055.93 252.974 1053.74 255.13C1052.07 256.728 1050.84 260.036 1053.07 261.746C1054.15 262.563 1055.63 262.563 1056.93 262.415C1059.53 262.08 1062.46 262.192 1063.47 265.165C1064.28 267.544 1062.98 271.372 1060.68 272.599C1058.2 273.937 1055.41 272.301 1053.37 270.926C1052.77 270.517 1052.22 271.483 1052.81 271.892C1055.37 273.639 1058.9 275.312 1061.76 273.23C1064.25 271.409 1065.55 267.209 1064.32 264.385C1063.06 261.523 1060.2 260.854 1057.38 261.225C1055.82 261.448 1053.85 261.671 1053.07 259.85C1052.55 258.661 1053.55 256.951 1054.33 256.096C1056.15 254.201 1058.86 253.904 1061.17 255.093C1061.83 255.427 1062.39 254.461 1061.76 254.127Z" fill="#161616"/>
<path d="M1058.2 273.602C1058.2 275.275 1058.2 276.91 1058.2 278.582C1058.2 279.288 1059.31 279.288 1059.31 278.582C1059.31 276.91 1059.31 275.275 1059.31 273.602C1059.31 272.896 1058.2 272.896 1058.2 273.602Z" fill="#161616"/>
<path d="M992.373 226.772C1003.55 226.772 1012.61 216.954 1012.61 204.844C1012.61 192.733 1003.55 182.915 992.373 182.915C981.198 182.915 972.139 192.733 972.139 204.844C972.139 216.954 981.198 226.772 992.373 226.772Z" fill="white" stroke="#161616" stroke-width="3" stroke-miterlimit="10"/>
<path d="M943.838 306.882C953.427 304.662 958.313 290.362 954.751 274.943C951.189 259.524 940.529 248.824 930.94 251.043C921.351 253.263 916.465 267.563 920.027 282.982C923.589 298.401 934.249 309.101 943.838 306.882Z" fill="white" stroke="#161616" stroke-width="3" stroke-miterlimit="10"/>
<path d="M990.628 188.788C990.628 190.757 990.628 192.764 990.628 194.734C990.628 195.44 991.741 195.44 991.741 194.734C991.741 192.764 991.741 190.757 991.741 188.788C991.741 188.081 990.628 188.081 990.628 188.788Z" fill="#161616"/>
<path d="M994.414 194.028C991.853 193.582 989.291 194.4 987.509 196.258C986.247 197.559 984.428 200.755 986.395 202.242C987.361 202.985 989.105 202.874 990.219 202.948C992.484 203.134 995.38 203.543 996.568 205.773C999.278 210.939 989.551 215.176 988.103 210.27C987.917 209.601 986.841 209.861 987.026 210.567C987.843 213.355 991.147 213.912 993.598 213.169C996.382 212.314 998.535 209.638 997.978 206.628C997.31 203.097 993.56 202.168 990.516 201.87C989.996 201.833 989.477 201.796 988.957 201.759C987.917 201.647 986.841 201.239 986.729 199.975C986.655 199.157 987.62 197.819 988.14 197.262C989.662 195.589 991.927 194.734 994.154 195.143C994.823 195.218 995.12 194.14 994.414 194.028Z" fill="#161616"/>
<path d="M991.556 213.206C991.556 214.247 991.556 215.287 991.556 216.328C991.556 217.034 992.669 217.034 992.669 216.328C992.669 215.287 992.669 214.247 992.669 213.206C992.669 212.5 991.556 212.5 991.556 213.206Z" fill="#161616"/>
<path d="M932.787 260.631C933.492 262.601 934.235 264.608 934.94 266.578C935.2 267.247 936.277 266.949 936.017 266.28C935.311 264.31 934.569 262.303 933.864 260.334C933.641 259.665 932.564 259.962 932.787 260.631Z" fill="#161616"/>
<path d="M939.878 265.5C936.611 265.648 933.567 267.507 931.97 270.406C930.597 272.933 930.225 276.798 932.676 278.805C936.165 281.667 940.546 276.352 944.444 278.248C947.451 279.697 946.523 283.451 945.15 285.755C944.518 286.833 943.702 287.837 942.699 288.543C941.994 289.063 939.432 290.401 938.69 289.323C938.281 288.729 937.316 289.286 937.725 289.881C939.618 292.594 944.073 289.1 945.335 287.428C947.303 284.826 948.936 280.18 945.818 277.765C944.37 276.612 942.402 276.501 940.658 276.835C938.133 277.356 934.309 280.106 932.527 276.91C929.891 272.152 935.237 266.801 939.804 266.578C940.583 266.578 940.583 265.463 939.878 265.5Z" fill="#161616"/>
<path d="M942.811 289.138C943.664 291.219 944.518 293.3 945.335 295.382C945.595 296.051 946.672 295.753 946.412 295.084C945.558 293.003 944.704 290.922 943.887 288.84C943.59 288.171 942.514 288.469 942.811 289.138Z" fill="#161616"/>
<path d="M1141.8 489.429C1141.95 494.149 1142.13 498.906 1142.28 503.627C1138.61 504.481 1134.08 505.856 1129.14 508.235C1123.91 510.725 1119.56 511.394 1118.6 514.628C1118.37 515.408 1118.37 516.077 1118.41 516.523C1120.19 516.486 1122.83 516.375 1125.99 515.929C1131.18 515.185 1134.82 513.959 1137.57 513.104C1141.5 511.878 1147.11 510.316 1154.39 508.978C1154.24 507.603 1154.09 506.228 1153.98 504.853C1153.46 498.943 1153.24 493.294 1153.2 487.868C1149.41 488.425 1145.59 488.908 1141.8 489.429Z" fill="black"/>
<path d="M1120.94 316.567C1120.86 318.165 1120.79 320.469 1120.68 323.257C1120.49 328.237 1119.86 346.746 1120.16 368.526C1120.82 418.032 1125.98 459.844 1127.36 470.585C1128.29 477.944 1129.18 483.965 1129.73 487.793C1131.26 488.574 1132.96 489.243 1134.86 489.689C1146.29 492.551 1156.54 486.232 1159.84 484.002C1158.99 478.576 1157.76 470.622 1156.54 460.996C1153.87 440.294 1150.45 413.088 1150.64 379.75C1150.71 365.627 1151.45 346.486 1154.27 323.777C1155.24 321.212 1159.58 309.096 1154.83 304.562C1149.89 299.879 1135.82 303.67 1120.94 316.567Z" fill="white"/>
<path opacity="0.17" d="M1144.1 331.173C1143.66 335.41 1142.99 342.583 1142.47 351.466C1141.65 365.069 1139.61 408.257 1148.22 466.2C1149.08 471.998 1150.27 479.468 1151.9 488.202C1154.53 486.79 1157.21 485.378 1159.84 484.002C1155.31 457.8 1153.16 435.574 1152.05 418.738C1151.08 404.206 1150.86 392.572 1150.75 386.068C1150.34 365.218 1150.86 347.489 1151.49 333.923C1149.04 333.031 1146.59 332.102 1144.1 331.173Z" fill="#7A7A7A"/>
<path d="M1120.38 316.567C1118.45 361.353 1119.79 406.25 1124.5 450.813C1125.8 463.226 1127.4 475.603 1129.22 487.942C1129.33 488.648 1130.4 488.351 1130.29 487.645C1123.8 443.491 1120.57 398.854 1120.64 354.179C1120.68 341.654 1120.97 329.092 1121.49 316.567C1121.53 315.861 1120.42 315.861 1120.38 316.567Z" fill="#161616"/>
<path d="M1129.62 488.5C1139.72 492.848 1151.68 491.25 1160.25 484.374C1160.81 483.928 1160.03 483.148 1159.47 483.594C1151.3 490.135 1139.8 491.696 1130.18 487.533C1129.51 487.273 1128.96 488.24 1129.62 488.5Z" fill="#161616"/>
<path d="M1150.71 336.637C1149 375.067 1150.34 413.609 1154.83 451.816C1156.09 462.52 1157.58 473.15 1159.32 483.779C1159.44 484.486 1160.51 484.188 1160.4 483.482C1154.2 445.572 1151.08 407.179 1151.08 368.749C1151.08 358.045 1151.34 347.341 1151.82 336.637C1151.86 335.893 1150.75 335.893 1150.71 336.637Z" fill="#161616"/>
<path d="M1141.13 490.878C1141.32 495.115 1141.5 499.39 1141.73 503.627C1141.87 503.441 1141.99 503.255 1142.13 503.106C1136.45 504.444 1131 506.488 1125.87 509.276C1124.5 510.019 1114.81 514.777 1118 516.895C1119.93 518.196 1122.83 517.267 1124.83 516.784C1128.14 515.966 1131.44 515.185 1134.75 514.368C1141.36 512.769 1147.93 511.134 1154.53 509.536C1154.76 509.499 1154.98 509.239 1154.94 509.016C1154.2 501.991 1153.79 494.967 1153.75 487.905C1153.75 487.199 1152.64 487.199 1152.64 487.905C1152.68 494.967 1153.05 502.028 1153.83 509.016C1153.98 508.83 1154.09 508.644 1154.24 508.495C1148.93 509.796 1143.62 511.097 1138.35 512.398C1133.11 513.662 1127.88 515.185 1122.61 516.226C1121.94 516.375 1121.23 516.449 1120.57 516.449C1120.08 516.449 1119.64 516.412 1119.19 516.263C1118.52 515.743 1118.45 515.371 1119.08 515.074C1119.6 514.256 1121.27 513.476 1122.09 512.955C1124.05 511.655 1126.1 510.465 1128.18 509.425C1132.7 507.12 1137.53 505.41 1142.47 504.258C1142.69 504.221 1142.88 503.961 1142.88 503.738C1142.69 499.501 1142.51 495.227 1142.28 490.99C1142.21 490.172 1141.1 490.172 1141.13 490.878Z" fill="#161616"/>
<path d="M1214.75 484.597C1216.27 486.827 1217.8 489.094 1219.32 491.324C1218.5 492.997 1217.13 495.636 1215.23 498.758C1212.04 503.924 1210.18 505.745 1207.44 510.242C1206.18 512.324 1204.43 515.483 1202.76 519.683C1203.91 519.311 1205.62 518.642 1207.51 517.527C1211.26 515.297 1212.75 512.993 1216.05 509.573C1220.58 504.853 1221.17 505.671 1225.15 501.545C1227.11 499.501 1229.9 496.23 1232.68 491.547C1232.16 490.098 1231.57 488.611 1230.94 487.125C1229.38 483.519 1227.71 480.249 1226.04 477.387C1222.29 479.766 1218.54 482.181 1214.75 484.597Z" fill="black"/>
<path d="M1137.09 316.641C1135.41 318.648 1132.37 322.327 1133.3 326.304C1133.86 328.72 1135.64 330.281 1136.79 331.136C1138.05 331.582 1139.87 332.4 1141.5 333.998C1142.95 335.447 1143.92 337.157 1146.03 343.884C1147.37 348.158 1147.96 350.351 1148.26 351.763C1150.38 361.538 1162.22 397.962 1166.9 410.858C1176.85 438.399 1192.7 465.716 1206.1 486.27C1208.55 486.121 1211.52 485.675 1214.75 484.56C1223.59 481.475 1228.71 475.194 1230.9 472.146C1229.04 468.207 1226.37 462.483 1223.25 455.533C1209.22 423.978 1200.79 399.151 1194.59 380.753C1182.64 345.334 1176.55 322.104 1175.21 316.827C1173.65 310.769 1172.47 305.714 1171.61 302.146C1167.75 302.815 1145.36 306.68 1137.09 316.641Z" fill="white"/>
<path opacity="0.15" d="M1164.3 309.059C1165.67 314.708 1167.75 323.108 1170.5 333.217C1174.06 346.337 1183.86 381.423 1201.13 426.468C1206.55 440.555 1213.9 458.841 1223.36 479.914C1225.89 477.461 1228.45 475.008 1230.97 472.555C1228.52 466.906 1225.03 458.692 1220.91 448.768C1211.52 426.06 1204.1 408.145 1196.11 385.251C1188.24 362.653 1182.94 344.182 1176.51 321.77C1173.54 311.438 1171.2 302.815 1169.53 296.645C1167.83 300.808 1166.08 304.934 1164.3 309.059Z" fill="#7A7A7A"/>
<path d="M1172.39 308.316C1183.38 350.797 1197.08 392.572 1213.41 433.27C1217.98 444.68 1222.81 456.053 1227.78 467.315C1228.08 467.984 1229.04 467.389 1228.75 466.757C1211 426.691 1195.82 385.511 1183.31 343.475C1179.82 331.731 1176.51 319.912 1173.47 308.018C1173.28 307.349 1172.21 307.647 1172.39 308.316Z" fill="#161616"/>
<path d="M1136.64 331.656C1141.39 332.585 1143.4 337.677 1144.7 341.803C1146.44 347.341 1148.04 352.916 1149.71 358.454C1153.16 369.938 1156.58 381.423 1160.1 392.907C1166.67 414.204 1176.03 434.311 1186.72 453.786C1192.77 464.862 1199.2 475.714 1205.62 486.567C1205.99 487.199 1206.95 486.641 1206.58 486.01C1194.93 466.274 1183.23 446.501 1173.73 425.651C1163.74 403.723 1157.5 380.456 1150.56 357.45C1148.71 351.355 1147.18 345.036 1144.92 339.09C1143.47 335.336 1141.21 331.396 1136.94 330.578C1136.23 330.467 1135.93 331.545 1136.64 331.656Z" fill="#161616"/>
<path d="M1206.51 487.125C1216.31 485.861 1225.29 480.806 1231.38 473.001C1231.83 472.444 1231.05 471.663 1230.6 472.221C1224.74 479.803 1216.05 484.82 1206.51 486.047C1205.8 486.084 1205.8 487.199 1206.51 487.125Z" fill="#161616"/>
<path d="M1227.71 467.315C1228.75 468.95 1229.64 470.697 1230.42 472.481C1230.71 473.15 1231.68 472.555 1231.38 471.923C1230.6 470.139 1229.71 468.43 1228.67 466.757C1228.3 466.162 1227.34 466.72 1227.71 467.315Z" fill="#161616"/>
<path d="M1214.27 484.857C1215.38 486.344 1216.5 487.793 1217.61 489.28C1218.5 490.432 1218.98 490.841 1218.35 492.588C1218.09 493.331 1217.54 494.038 1217.13 494.744C1215.46 497.568 1213.56 500.281 1211.67 502.957C1208.03 508.198 1204.39 513.476 1202.2 519.534C1202.05 519.905 1202.43 520.203 1202.72 520.24C1205.69 520.463 1207.92 517.899 1209.92 516.077C1212.63 513.587 1215.31 511.097 1217.91 508.495C1223.14 503.329 1228.15 497.977 1232.94 492.439C1233.42 491.882 1232.61 491.101 1232.16 491.659C1227.82 496.676 1223.29 501.582 1218.57 506.265C1216.31 508.533 1214.01 510.763 1211.67 512.955C1210.48 514.033 1209.33 515.148 1208.11 516.226C1206.55 517.638 1204.95 519.348 1202.72 519.162C1202.91 519.385 1203.09 519.645 1203.24 519.868C1205.73 512.918 1210.22 507.046 1214.34 501.025C1216.12 498.423 1218.43 495.561 1219.54 492.551C1220.02 491.25 1219.69 490.395 1218.91 489.28C1217.72 487.608 1216.42 485.972 1215.16 484.3C1214.83 483.742 1213.86 484.3 1214.27 484.857Z" fill="#161616"/>
<path d="M1225.55 477.647C1228.15 482.144 1230.38 486.827 1232.16 491.696C1232.42 492.365 1233.5 492.068 1233.24 491.399C1231.42 486.418 1229.19 481.661 1226.52 477.09C1226.15 476.458 1225.18 477.052 1225.55 477.647Z" fill="#161616"/>
<path d="M1137.09 220.825C1130.85 225.397 1128.32 231.195 1125.73 237.067C1121.75 246.024 1121.2 253.458 1120.27 266.986C1120.08 269.885 1119.79 274.271 1119.86 295.27C1119.9 304.004 1119.93 311.252 1119.97 316.269C1123.2 317.459 1126.84 318.499 1130.89 319.094C1150.75 322.03 1167.05 312.924 1173.88 308.501C1172.84 302.592 1171.8 296.645 1170.76 290.736C1171.09 281.481 1172.24 274.122 1173.21 269.179C1174.95 260.408 1176.7 256.245 1178.55 245.169C1180.71 232.124 1179.78 228.816 1178.55 226.438C1175.44 220.305 1169.12 217.926 1166.08 216.774C1156.65 213.169 1145.33 214.767 1137.09 220.825Z" fill="#EC615B"/>
<path d="M1178.03 228.37C1175.62 229.225 1174.14 231.009 1172.76 233.09C1169.35 238.256 1168.01 243.163 1167.49 245.095C1164.89 254.498 1163.63 259.219 1161.44 263.679C1159.66 267.358 1156.95 272.821 1151.23 277.281C1147.89 279.92 1144.96 281.035 1139.09 283.302C1134.45 285.086 1129.66 286.908 1123.16 287.391C1118.63 287.725 1114.85 287.316 1112.25 286.87C1106.72 285.532 1102.97 283.488 1100.44 281.741C1098.44 280.329 1095.8 278.136 1093.09 278.842C1092.72 278.954 1091.38 279.326 1091.12 280.255C1090.79 281.518 1092.5 283.042 1094.28 284.64C1095.21 285.458 1096.03 286.09 1096.58 286.462C1093.09 288.06 1090.2 289.584 1088.04 290.736C1080.77 294.675 1077.83 297.091 1076.72 298.058C1075.94 298.689 1073.86 299.358 1073.53 301.031C1073.38 301.774 1073.56 302.778 1074.16 303.112C1074.79 303.484 1075.57 302.926 1077.72 301.886C1078.95 301.291 1079.99 300.882 1080.69 300.585C1081.88 301.142 1083.25 301.7 1084.78 302.146C1088.41 303.187 1091.64 303.298 1094.02 303.187C1092.61 304.339 1091.38 305.231 1090.57 305.825C1088.27 307.498 1087.15 308.055 1087.04 309.17C1086.97 309.877 1087.26 310.694 1087.86 311.066C1088.97 311.772 1090.83 310.694 1091.9 310.062C1094.84 308.39 1098.18 307.498 1101.19 305.9C1103.67 304.562 1107.27 302.666 1111.91 300.473C1120.08 299.321 1126.21 298.466 1129.33 298.02C1133.41 297.463 1142.58 296.162 1153.79 293.672C1158.06 292.706 1161.51 291.851 1165.41 289.472C1166.27 288.952 1169.87 286.722 1173.43 282.522C1176.85 278.508 1178.44 274.828 1180.37 270.257C1182.53 265.239 1183.53 261.263 1184.53 257.509C1186.13 251.413 1186.65 247.288 1186.8 246.024C1187.17 243.051 1187.5 238.925 1186.57 234.057C1185.91 230.526 1185.09 229.336 1184.01 228.63C1181.67 227.032 1178.59 228.147 1178.03 228.37Z" fill="white"/>
<path opacity="0.14" d="M1184.01 228.63C1183.6 232.533 1182.86 237.996 1181.45 244.426C1179.45 253.643 1177.77 261.114 1174.1 267.692C1166.12 281.816 1151.01 287.391 1145.25 289.509C1138.76 291.925 1129.22 293.635 1110.17 297.054C1110.17 297.054 1108.61 297.351 1094.02 303.187C1093.24 303.484 1090.12 304.785 1088.19 307.87C1087.9 308.353 1086.74 310.137 1087.34 310.843C1088.01 311.661 1090.61 310.657 1091.94 310.1C1097.88 307.647 1106.09 303.558 1111.95 300.511C1118.41 299.581 1123.68 298.875 1127.25 298.392C1146.74 295.828 1152.38 295.53 1160.4 291.851C1163.82 290.29 1167.64 288.506 1171.54 284.715C1176.29 280.143 1178.22 275.46 1181.08 268.584C1184.16 261.151 1185.13 255.725 1186.54 247.846C1187.39 242.977 1187.72 239.557 1186.76 235.506C1186.09 232.458 1184.94 230.154 1184.01 228.63Z" fill="#7A7A7A"/>
<path d="M1097.18 285.793C1096.21 285.235 1095.28 284.678 1094.39 284.009C1093.91 283.637 1093.43 283.265 1092.98 282.856C1092.09 282.039 1092.13 282.262 1092.28 280.887C1092.31 280.478 1092.35 280.069 1092.42 279.697C1093.17 279.326 1093.95 279.289 1094.73 279.549C1095.25 279.697 1095.77 279.958 1096.29 280.181C1097.36 280.701 1098.4 281.258 1099.44 281.816C1102.97 283.711 1106.49 285.755 1110.36 286.945C1118.49 289.398 1127.1 287.8 1135.01 285.31C1142.36 282.968 1149.93 280.181 1155.28 274.382C1160.07 269.216 1162.85 262.563 1164.97 255.911C1167.19 248.96 1168.27 241.304 1172.13 235.023C1174.06 231.827 1178.55 226.512 1182.86 228.593C1186.76 230.489 1186.61 237.402 1186.57 241.007C1186.5 249.63 1184.09 258.327 1181.26 266.429C1178.81 273.416 1175.47 280.403 1169.98 285.458C1162.89 291.999 1153.16 293.338 1144.07 294.973C1133.41 296.868 1122.76 298.69 1111.99 299.916C1111.28 299.99 1111.28 301.105 1111.99 301.031C1122.12 299.842 1132.19 298.169 1142.21 296.422C1151.01 294.861 1160.66 293.858 1168.09 288.431C1174.28 283.934 1178.22 277.17 1181.04 270.183C1184.38 261.857 1186.98 252.752 1187.61 243.757C1187.98 238.294 1187.84 223.91 1178.52 227.59C1171.31 230.414 1168.49 239.557 1166.6 246.322C1164.45 254.164 1162.37 262.192 1157.95 269.105C1155.57 272.784 1152.57 275.981 1148.82 278.285C1144.7 280.85 1139.98 282.522 1135.38 284.009C1130.03 285.756 1124.46 287.094 1118.78 287.056C1112.95 287.019 1107.91 285.087 1102.82 282.373C1100.63 281.184 1098.48 279.883 1096.17 278.917C1094.61 278.248 1092.72 277.802 1091.31 279.066C1088.01 282.039 1094.54 285.644 1096.55 286.759C1097.21 287.131 1097.77 286.164 1097.18 285.793Z" fill="#161616"/>
<path d="M1096.29 285.979C1091.76 288.023 1087.38 290.327 1083.18 292.966C1081.06 294.267 1079.02 295.679 1077.02 297.128C1075.72 298.058 1073.71 299.135 1073.04 300.696C1072.67 301.551 1072.79 302.703 1073.56 303.335C1074.86 304.339 1076.57 303.075 1077.72 302.48C1082.29 300.065 1086.93 297.797 1091.64 295.753C1092.31 295.456 1091.72 294.49 1091.09 294.787C1087.56 296.348 1084.03 297.983 1080.58 299.73C1078.98 300.548 1077.2 301.96 1075.46 302.369C1074.6 302.592 1074.01 302.369 1074.08 301.44C1074.12 300.808 1074.46 300.473 1074.94 300.065C1075.76 299.321 1076.68 298.727 1077.57 298.058C1083.59 293.672 1090.05 289.955 1096.84 286.908C1097.51 286.648 1096.95 285.681 1096.29 285.979Z" fill="#161616"/>
<path d="M1080.54 301.105C1085.11 301.997 1089.68 301.44 1093.87 299.433C1094.5 299.135 1093.95 298.169 1093.32 298.466C1089.38 300.325 1085.11 300.845 1080.84 300.027C1080.14 299.916 1079.84 300.957 1080.54 301.105Z" fill="#161616"/>
<path d="M1083.03 301.7C1086.19 303.818 1089.94 304.45 1093.65 303.558C1094.35 303.372 1094.06 302.295 1093.35 302.48C1089.94 303.335 1086.52 302.703 1083.59 300.734C1082.99 300.362 1082.44 301.328 1083.03 301.7Z" fill="#161616"/>
<path d="M1093.76 302.666C1092.24 303.744 1090.79 304.896 1089.34 306.086C1088.34 306.941 1086.82 307.87 1086.45 309.208C1086.22 310.063 1086.45 310.917 1087.23 311.363C1088.3 311.995 1089.9 311.289 1090.94 310.955C1098.51 308.502 1105.53 304.227 1112.58 300.548C1113.21 300.213 1112.66 299.247 1112.03 299.581C1106.94 302.257 1101.89 305.045 1096.69 307.461C1095.32 308.093 1093.95 308.687 1092.54 309.208C1091.53 309.579 1089.71 310.509 1088.64 310.434C1086 310.211 1089.83 307.089 1090.38 306.643C1091.64 305.603 1092.98 304.599 1094.32 303.595C1094.87 303.224 1094.32 302.257 1093.76 302.666Z" fill="#161616"/>
<path d="M1143.84 164.258C1140.84 165.67 1138.76 168.272 1136.86 170.613C1135.9 171.802 1133.19 175.333 1131.44 180.722C1130.92 182.358 1128.25 190.906 1131.15 200.755C1132.63 205.773 1134.78 208.412 1135.27 209.006C1137.23 211.385 1139.39 212.797 1140.84 213.615C1141.73 213.689 1142.77 213.689 1143.84 213.615C1145.85 213.466 1147.56 213.095 1148.93 212.686C1149.45 213.949 1150.15 215.362 1151.08 216.886C1152.38 219.004 1153.75 220.639 1154.98 221.903C1156.84 220.937 1159.29 219.45 1161.92 217.22C1164.04 215.399 1168.57 211.459 1171.61 204.621C1172.65 202.279 1175.25 195.626 1174.21 187.004C1173.91 184.662 1173.47 180.945 1171.32 177.006C1165.89 167.194 1152.38 160.281 1143.84 164.258Z" fill="white"/>
<path opacity="0.12" d="M1154.94 174.107C1155.91 176.225 1157.17 179.756 1157.36 184.291C1157.54 189.345 1156.28 193.099 1155.57 195.106C1152.05 205.178 1144.18 211.274 1140.8 213.615C1142.13 213.764 1143.92 213.838 1146 213.541C1148.74 213.132 1150.9 212.166 1152.27 211.422C1153.42 213.689 1154.57 215.956 1155.72 218.186C1155.69 219.264 1155.8 220.602 1156.13 222.052C1156.91 225.434 1158.62 227.776 1159.73 229.039C1159.62 226.995 1159.58 224.059 1160.1 220.602C1160.4 218.67 1161.44 212.5 1165.41 205.438C1168.35 200.198 1169.57 200.347 1171.69 195.441C1174.06 189.94 1173.95 186.446 1173.88 185.406C1173.8 183.882 1173.58 180.462 1171.57 177.786C1168.57 173.624 1161.89 172.249 1154.94 174.107Z" fill="#7A7A7A"/>
<path d="M1130.7 183.175C1130.77 182.841 1131.85 178.641 1133.67 175.37C1137.09 169.35 1143.51 166.227 1145.62 165.261C1146.22 167.751 1147.89 173.141 1152.64 178.158C1157.62 183.398 1163.18 185.294 1165.67 185.963C1166.12 185.591 1167.49 184.513 1169.09 184.811C1171.39 185.257 1172.39 188.304 1172.43 190.311C1172.43 190.943 1172.39 192.913 1170.87 194.623C1168.83 196.89 1165.97 196.704 1165.6 196.667C1163.74 198.711 1161.22 201.945 1159.21 206.405C1156.98 211.385 1154.39 217.22 1156.61 223.576C1158.43 228.705 1163.3 233.871 1169.61 234.688C1178.78 235.878 1186.76 227.367 1188.62 220.008C1189.58 216.179 1188.21 215.287 1185.79 202.019C1183.97 191.984 1184.57 191.464 1182.86 183.51C1180.63 173.14 1179.45 167.9 1175.99 164.481C1171.28 159.872 1165.12 159.314 1158.66 158.757C1151.04 158.088 1141.1 157.196 1134.19 164.109C1130.18 168.123 1127.54 174.441 1128.06 180.834C1128.32 183.807 1129.18 186.186 1129.92 187.747C1129.99 186.632 1130.22 185.034 1130.7 183.175Z" fill="#E9C46A"/>
<path d="M1134.04 207.297C1132.78 207.334 1130.74 213.652 1132.26 220.008C1132.89 222.572 1134.12 227.775 1138.83 229.857C1143.17 231.752 1149.49 230.563 1151.94 226.177C1153.57 223.204 1152.79 220.008 1152.53 219.004C1151.34 216.886 1150.12 214.804 1148.93 212.686C1148.11 212.983 1147.15 213.318 1146.03 213.503C1143.69 213.949 1141.65 213.838 1140.17 213.615C1139.35 213.206 1138.2 212.537 1137.12 211.459C1134.86 209.266 1134.75 207.259 1134.04 207.297Z" fill="#E9C46A"/>
<path d="M1136.45 170.204C1131.29 176.746 1128.7 185.071 1129.25 193.396C1129.77 201.164 1133 210.121 1140.28 213.912C1140.91 214.247 1141.47 213.281 1140.84 212.946C1133.74 209.229 1130.7 200.384 1130.33 192.802C1129.96 184.96 1132.37 177.117 1137.27 170.948C1137.68 170.464 1136.9 169.647 1136.45 170.204Z" fill="#161616"/>
<path d="M1140.84 214.173C1148.04 214.581 1155.05 211.72 1159.99 206.442C1160.47 205.922 1159.69 205.141 1159.21 205.661C1154.5 210.753 1147.78 213.466 1140.87 213.058C1140.09 213.02 1140.13 214.135 1140.84 214.173Z" fill="#161616"/>
<path d="M1148.67 213.578C1149.86 216.105 1151.34 218.447 1153.12 220.602C1153.57 221.16 1154.35 220.379 1153.9 219.822C1152.16 217.741 1150.75 215.473 1149.63 213.02C1149.3 212.351 1148.37 212.909 1148.67 213.578Z" fill="#161616"/>
<path d="M1165.97 186.483C1167.05 185.703 1168.49 185.071 1169.83 185.554C1171.61 186.186 1171.95 188.342 1171.91 189.94C1171.83 193.285 1169.46 196.741 1165.75 196.184C1165.04 196.072 1164.74 197.15 1165.45 197.262C1170.13 197.968 1173.17 193.694 1172.99 189.345C1172.91 187.598 1172.35 185.591 1170.68 184.736C1168.94 183.807 1166.86 184.476 1165.37 185.554C1164.82 185.926 1165.37 186.892 1165.97 186.483Z" fill="#161616"/>
<path d="M1137.83 178.864C1136.6 186.372 1135.71 193.917 1135.08 201.499C1135.04 202.056 1135.86 202.242 1136.12 201.796C1137.38 199.566 1138.64 197.299 1139.91 195.069C1140.24 194.437 1139.31 193.88 1138.94 194.511C1137.68 196.741 1136.42 199.009 1135.16 201.239C1135.49 201.35 1135.86 201.424 1136.19 201.536C1136.79 194.065 1137.68 186.632 1138.9 179.199C1139.02 178.455 1137.94 178.158 1137.83 178.864Z" fill="#161616"/>
<path d="M1137.31 204.695C1141.17 206.442 1144.99 204.472 1147.07 201.053C1147.44 200.421 1146.48 199.863 1146.11 200.495C1144.4 203.357 1141.17 205.253 1137.87 203.729C1137.2 203.431 1136.64 204.398 1137.31 204.695Z" fill="#161616"/>
<path d="M1145.55 200.272C1146.18 200.384 1146.74 200.681 1147.11 201.238C1147.52 201.833 1148.48 201.276 1148.07 200.681C1147.56 199.9 1146.78 199.343 1145.85 199.194C1145.14 199.083 1144.84 200.161 1145.55 200.272Z" fill="#161616"/>
<path d="M1134 188.565C1134.31 188.565 1134.56 187.45 1134.56 186.075C1134.56 184.699 1134.31 183.584 1134 183.584C1133.7 183.584 1133.45 184.699 1133.45 186.075C1133.45 187.45 1133.7 188.565 1134 188.565Z" fill="#161616"/>
<path d="M1144.4 187.45C1144.71 187.45 1144.96 186.335 1144.96 184.959C1144.96 183.584 1144.71 182.469 1144.4 182.469C1144.09 182.469 1143.84 183.584 1143.84 184.959C1143.84 186.335 1144.09 187.45 1144.4 187.45Z" fill="#161616"/>
<path d="M1132.19 180.054C1132.67 178.976 1134.04 177.563 1135.19 178.79C1135.68 179.31 1136.45 178.53 1135.97 178.009C1134.34 176.225 1132.04 177.749 1131.22 179.496C1130.92 180.165 1131.89 180.723 1132.19 180.054Z" fill="#161616"/>
<path d="M1142.73 177.935C1143.36 176.04 1145.55 176.597 1146.63 177.675C1147.11 178.195 1147.93 177.415 1147.41 176.894C1145.7 175.148 1142.51 174.925 1141.65 177.638C1141.43 178.344 1142.51 178.641 1142.73 177.935Z" fill="#161616"/>
<path d="M1146.33 191.315C1147.04 191.315 1147.04 190.2 1146.33 190.2C1145.62 190.2 1145.62 191.315 1146.33 191.315Z" fill="#161616"/>
<path d="M1150.04 189.903C1150.75 189.903 1150.75 188.788 1150.04 188.788C1149.3 188.788 1149.3 189.903 1150.04 189.903Z" fill="#161616"/>
<path d="M1149.23 192.69C1149.93 192.69 1149.93 191.575 1149.23 191.575C1148.48 191.575 1148.48 192.69 1149.23 192.69Z" fill="#161616"/>
</g>
<defs>
<filter id="filter0_d_23_24279" x="0" y="0" width="1432" height="677" filterUnits="userSpaceOnUse" color-interpolation-filters="sRGB">
<feFlood flood-opacity="0" result="BackgroundImageFix"/>
<feColorMatrix in="SourceAlpha" type="matrix" values="0 0 0 0 0 0 0 0 0 0 0 0 0 0 0 0 0 0 127 0" result="hardAlpha"/>
<feOffset dy="15"/>
<feGaussianBlur stdDeviation="20"/>
<feColorMatrix type="matrix" values="0 0 0 0 0.870588 0 0 0 0 0.870588 0 0 0 0 0.870588 0 0 0 0.1 0"/>
<feBlend mode="normal" in2="BackgroundImageFix" result="effect1_dropShadow_23_24279"/>
<feBlend mode="normal" in="SourceGraphic" in2="effect1_dropShadow_23_24279" result="shape"/>
</filter>
</defs>
</svg>
