<svg width="668" height="478" viewBox="0 0 668 478" fill="none" xmlns="http://www.w3.org/2000/svg">
<g clip-path="url(#clip0_23_489)">
<path d="M13.4357 342.749H314.494C314.678 342.749 314.855 342.676 314.986 342.545C315.117 342.415 315.19 342.238 315.19 342.053C315.19 341.869 315.117 341.692 314.986 341.561C314.855 341.431 314.678 341.358 314.494 341.358H13.4357C13.2511 341.358 13.074 341.431 12.9435 341.561C12.8129 341.692 12.7396 341.869 12.7396 342.053C12.7396 342.238 12.8129 342.415 12.9435 342.545C13.074 342.676 13.2511 342.749 13.4357 342.749Z" fill="#E8E8E8"/>
<path d="M78.0387 380.243L84.6985 386.893C84.8305 387.016 85.005 387.083 85.1854 387.079C85.3657 387.076 85.5378 387.003 85.6654 386.876C85.7929 386.748 85.866 386.576 85.8692 386.396C85.8723 386.216 85.8054 386.042 85.6824 385.91L79.0272 379.26C78.8967 379.129 78.7195 379.055 78.5346 379.054C78.3496 379.054 78.1721 379.127 78.041 379.257C77.9099 379.388 77.836 379.565 77.8356 379.75C77.8351 379.934 77.9082 380.112 78.0387 380.243Z" fill="#E8E8E8"/>
<path d="M298.218 378.977H633.299C633.484 378.977 633.661 378.903 633.791 378.773C633.922 378.642 633.995 378.466 633.995 378.281C633.995 378.097 633.922 377.92 633.791 377.789C633.661 377.659 633.484 377.585 633.299 377.585H298.218C298.033 377.585 297.856 377.659 297.726 377.789C297.595 377.92 297.522 378.097 297.522 378.281C297.522 378.466 297.595 378.642 297.726 378.773C297.856 378.903 298.033 378.977 298.218 378.977Z" fill="#E8E8E8"/>
<path d="M364.793 348.662H667.332C667.516 348.662 667.693 348.588 667.824 348.458C667.955 348.327 668.028 348.151 668.028 347.966C668.028 347.782 667.955 347.605 667.824 347.474C667.693 347.344 667.516 347.27 667.332 347.27H364.793C364.608 347.27 364.431 347.344 364.301 347.474C364.17 347.605 364.097 347.782 364.097 347.966C364.097 348.151 364.17 348.327 364.301 348.458C364.431 348.588 364.608 348.662 364.793 348.662Z" fill="#E8E8E8"/>
<path d="M34.8772 450.662H248.661C248.846 450.662 249.023 450.589 249.153 450.459C249.284 450.328 249.357 450.151 249.357 449.967C249.357 449.782 249.284 449.605 249.153 449.475C249.023 449.344 248.846 449.271 248.661 449.271H34.8772C34.6926 449.271 34.5155 449.344 34.385 449.475C34.2544 449.605 34.1811 449.782 34.1811 449.967C34.1811 450.151 34.2544 450.328 34.385 450.459C34.5155 450.589 34.6926 450.662 34.8772 450.662Z" fill="#E8E8E8"/>
<path d="M21.3162 340.092C17.2026 336.019 14.2143 330.951 12.6421 325.382L11.9738 326.263L15.6448 325.994C15.795 325.989 15.9396 325.936 16.0572 325.843C16.1749 325.749 16.2595 325.621 16.2985 325.476C16.3375 325.331 16.3289 325.177 16.2738 325.037C16.2188 324.898 16.1203 324.779 15.9929 324.7C14.1275 323.409 12.8415 321.44 12.41 319.214C12.1572 318.001 12.1572 316.749 12.41 315.536C12.6189 314.567 13.4079 313.681 13.5796 312.782C13.8673 311.247 12.0898 308.868 11.4772 307.435C10.3262 304.754 9.27117 302.037 8.31203 299.282C4.63708 288.76 2.31044 277.815 1.38763 266.709L0.533689 267.376C1.88727 267.865 3.06164 268.751 3.90307 269.918C4.36717 270.511 5.4114 270.196 5.1747 269.38C3.16641 262.526 2.59293 255.332 3.49002 248.247L2.30191 248.739C5.91262 252.068 8.06606 256.414 9.76467 260.954C11.6768 266.055 13.329 271.286 15.0369 276.471C18.6197 287.353 22.0371 298.29 25.2889 309.28C25.5024 309.995 26.7601 309.902 26.6812 309.095C27.3402 307.509 27.8368 307.169 28.1709 308.075C28.3659 308.441 28.5561 308.812 28.7464 309.178C29.127 309.92 29.5029 310.667 29.8649 311.414C30.5332 312.786 31.169 314.178 31.7724 315.587C33.0022 318.435 34.738 320.837 36.1442 323.601C39.0307 329.324 40.5163 335.65 40.4789 342.058C40.4789 342.242 40.5523 342.419 40.6828 342.55C40.8134 342.68 40.9904 342.754 41.1751 342.754C41.3597 342.754 41.5368 342.68 41.6673 342.55C41.7979 342.419 41.8712 342.242 41.8712 342.058C41.8979 335.93 40.5864 329.87 38.0285 324.301C36.7058 321.44 34.6776 318.926 33.4663 316.033C32.0648 312.703 30.5023 309.457 28.7789 306.294C28.7179 306.189 28.6305 306.103 28.5255 306.042C28.4204 305.982 28.3013 305.951 28.1802 305.951C27.7695 305.926 27.3585 305.993 26.9773 306.148C26.5961 306.302 26.2543 306.54 25.977 306.844C25.6998 307.148 25.494 307.51 25.375 307.903C25.2559 308.297 25.2265 308.712 25.2889 309.118L26.6812 308.933C23.2468 297.364 19.6361 285.847 15.849 274.384C12.8741 265.401 10.5676 254.443 3.3183 247.779C3.21935 247.686 3.09569 247.623 2.96214 247.599C2.8286 247.575 2.69084 247.589 2.56541 247.641C2.43998 247.693 2.3322 247.78 2.255 247.892C2.1778 248.003 2.13447 248.135 2.1302 248.27C1.22435 255.481 1.81521 262.801 3.86594 269.774L5.13758 269.236C4.08721 267.779 2.62197 266.672 0.932816 266.059C0.829578 266.032 0.721322 266.028 0.616448 266.049C0.511573 266.07 0.412897 266.114 0.32807 266.179C0.243243 266.244 0.174546 266.328 0.127306 266.424C0.0800651 266.52 0.0555513 266.625 0.0556645 266.732C1.04793 278.948 3.71837 290.97 7.9918 302.459C9.00973 305.167 10.1158 307.84 11.3101 310.477C11.9506 311.891 12.1455 312.239 11.5654 313.626C11.2242 314.455 11.0008 315.327 10.9017 316.218C10.6851 318.08 10.9792 319.965 11.7525 321.672C12.5259 323.38 13.7494 324.845 15.2921 325.91L15.6448 324.612L11.9738 324.881C11.867 324.882 11.7619 324.908 11.6665 324.956C11.5711 325.004 11.4879 325.073 11.4231 325.158C11.3583 325.243 11.3136 325.341 11.2924 325.446C11.2712 325.551 11.2741 325.659 11.3008 325.762C12.9437 331.555 16.0544 336.826 20.3323 341.066C20.4642 341.188 20.6388 341.255 20.8191 341.252C20.9995 341.249 21.1715 341.176 21.2991 341.048C21.4266 340.921 21.4997 340.749 21.5029 340.569C21.5061 340.389 21.4391 340.214 21.3162 340.082V340.092Z" fill="#E8E8E8"/>
<path d="M33.406 427.011C33.5907 427.011 33.7677 426.938 33.8983 426.808C34.0288 426.677 34.1022 426.5 34.1022 426.316C34.1022 426.131 34.0288 425.954 33.8983 425.824C33.7677 425.693 33.5907 425.62 33.406 425.62C33.2214 425.62 33.0443 425.693 32.9138 425.824C32.7832 425.954 32.7099 426.131 32.7099 426.316C32.7099 426.5 32.7832 426.677 32.9138 426.808C33.0443 426.938 33.2214 427.011 33.406 427.011Z" fill="#E8E8E8"/>
<path d="M48.4986 424.739C47.4358 428.324 40.9708 427.188 38.3255 426.733C35.0931 426.132 31.9313 425.2 28.8903 423.951C25.8318 422.74 22.7363 421.261 20.439 418.849C18.0535 416.331 15.8537 411.74 18.7172 408.754C23.1029 404.181 32.3617 407.798 37.0213 410.224C41.421 412.51 51.6916 419.165 48.0205 425.217C47.5564 425.982 48.7585 426.682 49.2226 425.917C52.4713 420.547 46.6282 415.186 42.7251 412.204C37.6664 408.336 30.9416 405.359 24.4767 405.317C18.7172 405.276 14.4753 409.584 16.5869 415.362C18.8518 421.534 25.5441 424.359 31.3036 426.33C35.3598 427.721 39.7781 428.769 44.0989 428.532C46.5076 428.403 49.0833 427.642 49.8398 425.11C50.0951 424.252 48.7492 423.881 48.4939 424.739H48.4986Z" fill="#E8E8E8"/>
<path d="M16.6195 414.866C16.5127 421.136 22.9034 425.351 27.9714 427.702C33.6938 430.355 40.3954 430.925 45.8671 427.378C46.6143 426.914 45.9182 425.685 45.1617 426.177C40.1262 429.423 33.949 428.959 28.6768 426.501C24.0961 424.373 17.9143 420.579 18.0025 414.866C18.0025 414.681 17.9291 414.504 17.7986 414.374C17.668 414.244 17.491 414.17 17.3063 414.17C17.1217 414.17 16.9446 414.244 16.8141 414.374C16.6835 414.504 16.6102 414.681 16.6102 414.866H16.6195Z" fill="#E8E8E8"/>
<path d="M27.9528 410.511C22.973 419.007 41.0034 427.61 42.34 417.903C42.4606 417.027 41.1194 416.651 40.9987 417.532C39.9545 425.17 25.2749 417.852 29.1688 411.212C29.2539 411.053 29.274 410.867 29.2249 410.694C29.1759 410.521 29.0614 410.373 28.9057 410.282C28.7499 410.191 28.5651 410.165 28.3899 410.207C28.2148 410.25 28.0631 410.359 27.9667 410.511H27.9528Z" fill="#E8E8E8"/>
<path d="M30.3337 420.969L33.2436 415.26C33.652 414.462 32.45 413.758 32.0416 414.56L29.1316 420.25C28.7232 421.043 29.9253 421.748 30.3337 420.95V420.969Z" fill="#E8E8E8"/>
<path d="M34.3388 421.873C35.1003 420.048 36.1023 418.332 37.3184 416.772C37.8614 416.076 36.8868 415.084 36.3345 415.789C34.9769 417.535 33.8622 419.457 33.0208 421.502C32.6774 422.327 34.0279 422.689 34.362 421.873H34.3388Z" fill="#E8E8E8"/>
<path d="M82.8189 422.634C81.9882 417.829 85.028 413.322 88.6341 410.432C90.4023 409.013 93.1637 407.07 95.5353 407.251C99.1228 407.525 99.9721 411.717 99.4152 414.569C98.6355 418.567 95.823 422.031 92.2866 423.969C90.5416 424.92 88.3649 425.685 86.3461 425.639C83.1763 425.564 83.2412 422.434 83.5615 420.12C83.6821 419.244 82.3409 418.863 82.2156 419.749C81.9278 421.85 81.6772 424.618 83.5104 426.153C85.3436 427.688 88.3556 426.984 90.407 426.297C95.7534 424.507 100.241 419.638 100.914 413.938C101.23 411.286 100.534 408.401 98.2224 406.811C95.6049 405.007 92.6532 406.231 90.161 407.692C84.9213 410.79 80.3731 416.633 81.473 422.995C81.6262 423.876 82.9674 423.501 82.8143 422.624L82.8189 422.634Z" fill="#E8E8E8"/>
<path d="M95.3125 411.388C93.8924 410.572 92.4119 411.008 91.1356 411.898C89.4272 413.06 87.9704 414.553 86.852 416.29C86.4468 416.912 86.2673 417.654 86.3433 418.392C86.4193 419.131 86.7462 419.821 87.2696 420.347C88.6295 421.766 90.639 421.739 92.3748 421.136C93.2194 420.853 92.8389 419.508 92.0035 419.795C90.7179 420.227 89.2885 420.398 88.2907 419.332C86.9587 417.889 88.3464 416.498 89.3256 415.459C90.4766 414.231 92.7043 411.499 94.6117 412.598C94.7711 412.692 94.9612 412.718 95.14 412.671C95.3189 412.625 95.4719 412.509 95.5655 412.35C95.659 412.191 95.6854 412.001 95.6388 411.822C95.5923 411.643 95.4766 411.491 95.3172 411.397L95.3125 411.388Z" fill="#E8E8E8"/>
<path d="M86.5224 415.195C87.5912 415.536 88.5874 416.072 89.4602 416.776C90.1517 417.338 91.1402 416.359 90.4441 415.793C89.3915 414.93 88.1855 414.272 86.8891 413.855C86.0351 413.581 85.6685 414.926 86.5224 415.195Z" fill="#E8E8E8"/>
<path d="M88.713 412.941C90.3155 413.417 91.7863 414.257 93.0106 415.394C93.6696 416.002 94.6581 415.019 93.9945 414.411C92.5961 413.107 90.9136 412.145 89.0796 411.601C88.221 411.341 87.8544 412.682 88.713 412.941Z" fill="#E8E8E8"/>
<path d="M84.072 426.102C92.2262 435.989 108.813 417.88 99.7864 410.01C99.1135 409.426 98.125 410.405 98.8026 410.998C106.423 417.634 92.0824 433.634 85.0605 425.115C84.4897 424.424 83.5104 425.416 84.072 426.102Z" fill="#E8E8E8"/>
<path d="M626.607 413.479C625.386 409.083 628.551 405.535 632.292 403.741C634.357 402.767 637.114 401.974 639.254 403.221C641.523 404.552 642.038 407.455 641.518 409.82C640.734 413.53 637.806 417.755 633.851 418.441C628.667 419.332 626.918 414.509 626.755 410.312C626.723 409.422 625.331 409.417 625.363 410.312C625.549 415.232 627.684 420.482 633.545 419.874C638.831 419.327 642.943 413.382 643.106 408.355C643.291 402.544 638.098 400.105 633.081 401.909C628.143 403.685 623.72 408.253 625.27 413.827C625.326 413.996 625.445 414.138 625.602 414.222C625.759 414.307 625.943 414.327 626.115 414.28C626.287 414.233 626.435 414.122 626.527 413.97C626.619 413.817 626.65 413.635 626.611 413.461L626.607 413.479Z" fill="#E8E8E8"/>
<path d="M636.738 404.608L634.232 407.265C633.619 407.919 634.603 408.902 635.216 408.248L637.722 405.591C638.339 404.942 637.355 403.954 636.738 404.608Z" fill="#E8E8E8"/>
<path d="M636.975 408.086C634.933 406.695 632.719 407.896 631.406 409.639C631.329 409.773 631.298 409.928 631.318 410.08C631.338 410.233 631.408 410.375 631.517 410.483C631.86 410.808 633.837 411.564 633.308 412.195C632.943 412.34 632.558 412.431 632.167 412.464C631.829 412.538 631.48 412.541 631.141 412.473C630.803 412.405 630.482 412.268 630.199 412.069C629.466 411.55 628.769 412.756 629.493 413.271C630.77 414.198 633.322 414.152 634.566 413.122C634.812 412.918 634.984 412.638 635.057 412.327C635.13 412.016 635.1 411.689 634.97 411.397C634.506 410.261 633.299 410.252 632.501 409.5L632.608 410.344C633.508 409.171 634.905 408.35 636.293 409.287C637.035 409.792 637.731 408.587 636.993 408.086H636.975Z" fill="#E8E8E8"/>
<path d="M630.993 413.173C630.431 413.689 629.948 414.285 629.559 414.94C629.473 415.099 629.453 415.284 629.502 415.458C629.551 415.631 629.666 415.779 629.822 415.869C629.977 415.96 630.162 415.987 630.337 415.944C630.512 415.901 630.664 415.793 630.761 415.64C631.092 415.09 631.502 414.59 631.976 414.156C632.645 413.553 631.656 412.575 630.993 413.173Z" fill="#E8E8E8"/>
<path d="M656.773 397.183C653.854 396.307 651.548 393.663 650.035 391.099C647.798 387.319 650.731 383.215 655.014 383.498C658.648 383.744 661.233 386.823 662.352 390.042C662.932 391.702 663.512 393.919 662.528 395.532C661.192 397.73 658.412 397.503 656.337 396.752C655.493 396.451 655.131 397.791 655.966 398.097C660.319 399.664 664.891 397.577 664.361 392.49C663.897 387.853 660.695 383.081 655.896 382.218C651.965 381.513 647.542 384.3 647.747 388.618C647.942 392.741 652.638 397.397 656.402 398.523C657.265 398.783 657.632 397.443 656.773 397.183Z" fill="#E8E8E8"/>
<path d="M651.937 386.109L654.021 387.709C654.178 387.795 654.362 387.817 654.535 387.772C654.707 387.726 654.856 387.615 654.95 387.463C655.039 387.302 655.063 387.113 655.016 386.935C654.969 386.757 654.856 386.604 654.699 386.508L652.615 384.908C652.458 384.824 652.274 384.802 652.101 384.849C651.929 384.896 651.78 385.006 651.687 385.158C651.606 385.316 651.586 385.499 651.633 385.67C651.679 385.842 651.788 385.99 651.937 386.086V386.109Z" fill="#E8E8E8"/>
<path d="M657.79 386.647C657.709 386.406 657.571 386.189 657.387 386.013C657.203 385.838 656.979 385.71 656.734 385.64C656.49 385.571 656.232 385.562 655.983 385.615C655.734 385.667 655.502 385.78 655.307 385.942C654.809 386.325 654.415 386.826 654.162 387.401C653.909 387.976 653.804 388.605 653.859 389.23C654.044 390.306 654.847 390.9 655.854 390.376C656.541 390.018 657.172 389.207 658.022 389.235C658.523 389.235 659.047 389.462 658.746 390.162C658.504 390.737 657.66 390.886 657.135 391.011C656.263 391.224 656.63 392.564 657.502 392.356C658.588 392.091 659.697 391.632 660.11 390.501C660.278 390.088 660.295 389.63 660.158 389.206C660.022 388.782 659.74 388.419 659.363 388.182C658.98 387.966 658.551 387.845 658.111 387.831C657.671 387.816 657.235 387.908 656.838 388.099C656.578 388.214 655.302 389.225 655.154 389.156C655.005 389.086 655.52 387.834 655.553 387.765C655.636 387.616 656.333 386.684 656.444 386.986C656.759 387.811 658.105 387.449 657.79 386.615V386.647Z" fill="#E8E8E8"/>
<path d="M657.92 392.026C658.438 392.767 659.063 393.427 659.776 393.983C659.91 394.107 660.086 394.176 660.268 394.176C660.451 394.176 660.626 394.107 660.76 393.983C660.89 393.852 660.962 393.674 660.962 393.489C660.962 393.305 660.89 393.127 660.76 392.996C660.14 392.523 659.595 391.958 659.145 391.321C659.047 391.166 658.894 391.054 658.716 391.008C658.539 390.961 658.35 390.984 658.189 391.071C658.032 391.167 657.918 391.32 657.872 391.498C657.825 391.676 657.849 391.866 657.938 392.026H657.92Z" fill="#E8E8E8"/>
<path d="M385.738 469.231H585.896C586.08 469.231 586.258 469.157 586.388 469.027C586.519 468.896 586.592 468.72 586.592 468.535C586.592 468.351 586.519 468.174 586.388 468.043C586.258 467.913 586.08 467.839 585.896 467.839H385.738C385.553 467.839 385.376 467.913 385.246 468.043C385.115 468.174 385.042 468.351 385.042 468.535C385.042 468.72 385.115 468.896 385.246 469.027C385.376 469.157 385.553 469.231 385.738 469.231Z" fill="#E8E8E8"/>
<path d="M351.459 334.55C349.906 331.433 349.088 328.003 349.068 324.521C349.047 321.039 349.826 317.599 351.343 314.465L350.253 314.609L353.966 317.632C354.388 317.976 355.2 317.804 355.154 317.141C354.745 311.186 354.476 303.229 359.303 298.814C360.027 298.155 361.419 297.747 361.869 296.875C362.194 296.24 362.101 294.9 362.19 294.181C362.363 292.845 362.545 291.514 362.737 290.188C363.334 286.169 364.063 282.159 364.923 278.159C368.51 261.571 374.284 245.532 382.095 230.462L380.823 230.296C383.056 243.512 381.004 256.845 378.906 269.936C378.795 270.641 379.835 271.253 380.178 270.47C380.508 269.677 381.021 268.974 381.674 268.416C382.327 267.859 383.102 267.463 383.937 267.261L383.056 266.588C384.193 286.4 381.471 306.244 375.041 325.02C375.009 325.138 375.009 325.263 375.041 325.381C375.072 325.499 375.134 325.607 375.221 325.694C375.307 325.781 375.415 325.844 375.533 325.876C375.651 325.908 375.776 325.909 375.894 325.878L380.828 324.528L379.969 324.041C380.728 325.953 381.012 328.02 380.795 330.066C380.579 332.111 379.868 334.073 378.725 335.783C378.261 336.535 379.44 337.235 379.927 336.488C381.165 334.617 381.937 332.478 382.179 330.248C382.422 328.018 382.127 325.763 381.32 323.67C381.264 323.497 381.144 323.353 380.984 323.266C380.824 323.18 380.637 323.159 380.461 323.207L375.528 324.542L376.386 325.4C382.858 306.502 385.597 286.529 384.452 266.588C384.45 266.482 384.424 266.377 384.376 266.283C384.327 266.188 384.258 266.105 384.173 266.041C384.088 265.977 383.99 265.933 383.886 265.912C383.781 265.891 383.674 265.894 383.571 265.92C382.56 266.163 381.619 266.637 380.822 267.305C380.026 267.973 379.395 268.817 378.981 269.769L380.257 270.303C382.392 256.952 384.434 243.406 382.169 229.925C382.13 229.794 382.055 229.678 381.951 229.591C381.848 229.503 381.721 229.447 381.586 229.43C381.452 229.412 381.315 229.435 381.192 229.494C381.07 229.553 380.968 229.646 380.897 229.762C372.838 245.312 366.931 261.885 363.34 279.026C362.412 283.431 361.654 287.863 361.066 292.321C360.853 293.907 361.034 295.609 359.837 296.676C358.88 297.525 357.892 298.174 357.089 299.208C353.265 304.133 353.376 311.265 353.785 317.141L354.973 316.649L351.26 313.626C351.184 313.552 351.092 313.496 350.992 313.462C350.891 313.429 350.784 313.418 350.679 313.431C350.573 313.445 350.473 313.482 350.384 313.539C350.294 313.597 350.22 313.674 350.165 313.765C348.532 317.115 347.693 320.795 347.713 324.521C347.733 328.247 348.612 331.918 350.281 335.25C350.68 336.052 351.882 335.348 351.483 334.55H351.459Z" fill="#E8E8E8"/>
<path d="M48.3455 127.497C52.0415 127.497 55.0378 124.503 55.0378 120.81C55.0378 117.117 52.0415 114.123 48.3455 114.123C44.6494 114.123 41.6531 117.117 41.6531 120.81C41.6531 124.503 44.6494 127.497 48.3455 127.497Z" fill="#EC615B"/>
<path d="M559.479 24.8799C562.129 24.8799 564.278 22.733 564.278 20.0848C564.278 17.4365 562.129 15.2897 559.479 15.2897C556.829 15.2897 554.68 17.4365 554.68 20.0848C554.68 22.733 556.829 24.8799 559.479 24.8799Z" fill="#EC615B"/>
<path d="M646.252 137.514C648.367 137.514 650.081 135.801 650.081 133.688C650.081 131.575 648.367 129.862 646.252 129.862C644.138 129.862 642.423 131.575 642.423 133.688C642.423 135.801 644.138 137.514 646.252 137.514Z" fill="#EC615B"/>
<path d="M278.777 230.82C280.276 230.82 281.492 229.605 281.492 228.107C281.492 226.608 280.276 225.394 278.777 225.394C277.277 225.394 276.062 226.608 276.062 228.107C276.062 229.605 277.277 230.82 278.777 230.82Z" fill="#EC615B"/>
<path d="M64.3152 147.879C67.0706 147.879 69.3043 145.647 69.3043 142.894C69.3043 140.14 67.0706 137.908 64.3152 137.908C61.5598 137.908 59.3261 140.14 59.3261 142.894C59.3261 145.647 61.5598 147.879 64.3152 147.879Z" fill="#0AC4FF"/>
<path d="M193.628 27.2635C195.612 27.2635 197.22 25.6565 197.22 23.6742C197.22 21.6918 195.612 20.0848 193.628 20.0848C191.644 20.0848 190.036 21.6918 190.036 23.6742C190.036 25.6565 191.644 27.2635 193.628 27.2635Z" fill="#0AC4FF"/>
<path d="M644.27 248.247C648.159 248.247 651.311 245.097 651.311 241.212C651.311 237.327 648.159 234.177 644.27 234.177C640.382 234.177 637.23 237.327 637.23 241.212C637.23 245.097 640.382 248.247 644.27 248.247Z" fill="#0AC4FF"/>
<path d="M475.37 80.4411C479.081 80.4411 482.09 77.4347 482.09 73.7261C482.09 70.0175 479.081 67.0111 475.37 67.0111C471.658 67.0111 468.65 70.0175 468.65 73.7261C468.65 77.4347 471.658 80.4411 475.37 80.4411Z" fill="#0AC4FF"/>
<path d="M421.873 4.21081C422.485 3.59843 423.239 3.14643 424.068 2.89486C424.897 2.64329 425.776 2.59991 426.625 2.76856C428.602 3.19057 429.377 4.62354 430.696 5.94057C431.269 6.55744 432.002 7.00419 432.814 7.23165C433.625 7.45911 434.484 7.45846 435.295 7.22978C437.253 6.69647 438.892 5.3006 440.544 4.20153C443.143 2.48104 445.124 1.81325 447.612 4.14588C451.093 7.41992 454.485 6.20954 458.356 4.20617C460.63 3.02826 463.28 1.39124 465.953 1.88744C468.52 2.35119 470.594 4.86932 473.342 4.56789C474.47 4.44731 475.268 3.84908 476.066 3.0839C477.556 1.69267 478.633 0.927493 480.6 2.04975C482.568 3.17202 484.123 4.77657 486.546 4.40558C487.427 4.26645 487.051 2.92623 486.174 3.06072C483.677 3.44563 481.881 0.630698 479.584 0.0927544C477.366 -0.426639 476.405 1.07589 474.873 2.30481C471.95 4.62354 469.04 0.959957 466.056 0.4823C463.837 0.129854 461.684 0.992417 459.725 1.93382C457.497 3.00971 455.214 4.66991 452.694 4.90178C449.538 5.18931 448.601 2.11932 445.946 1.27066C441.806 -0.0510076 438.697 4.72092 435.142 5.80608C431.786 6.82632 430.635 2.66654 427.855 1.66485C426.667 1.23868 425.382 1.158 424.15 1.43216C422.918 1.70633 421.789 2.3241 420.894 3.21375C420.249 3.83517 421.232 4.81831 421.878 4.19689L421.873 4.21081Z" fill="#0AC4FF"/>
<path d="M470.91 14.8816C471.838 13.5877 473.309 11.7374 475.013 11.4684C477.291 11.1067 477.728 13.2585 479.013 14.39C479.556 14.8707 480.227 15.1821 480.945 15.286C481.662 15.3898 482.394 15.2815 483.051 14.9743C485.13 14.1396 486.648 12.1919 488.815 11.5565C491.423 10.7867 493.683 12.8365 495.967 13.75C497.749 14.4596 499.429 14.5059 501.072 13.4625C502.283 12.702 503.239 11.6075 504.748 11.4174C505.922 11.2829 507.11 11.7884 508.135 12.2985C511.384 13.9216 514.633 17.1632 518.559 15.8693C519.408 15.5911 519.023 14.2462 518.193 14.5291C513.705 16.0038 510.131 10.6151 505.866 10.0725C503.462 9.76183 502.302 11.167 500.371 12.2614C497.475 13.9031 495.062 11.5148 492.421 10.5038C491.554 10.1412 490.616 9.98184 489.678 10.0381C488.74 10.0944 487.827 10.3648 487.01 10.8284C484.968 11.9136 482.322 15.1274 479.951 13.3095C478.247 12.011 477.783 9.81284 475.203 10.0633C472.827 10.2766 471.026 12.4191 469.694 14.2045C469.165 14.9279 470.372 15.5957 470.896 14.9048L470.91 14.8816Z" fill="#0AC4FF"/>
<path d="M35.9261 209.042C37.1134 207.898 38.5908 207.1 40.1988 206.734C41.8068 206.368 43.4843 206.448 45.0503 206.965C46.9717 207.6 48.6146 210.211 50.7309 209.942C51.7566 209.807 52.4295 209.014 53.1442 208.37C54.5922 207.057 55.8731 206 57.9245 205.903C61.0572 205.759 63.2756 208.156 66.0695 209.112C68.1254 209.817 69.9122 209.316 71.4113 207.795C72.3627 206.835 73.1052 205.476 74.5532 205.198C75.7831 204.957 76.9758 205.601 77.9829 206.218C80.9114 208.008 83.9049 211.514 87.6455 209.877C88.4624 209.52 87.7569 208.323 86.9447 208.676C83.0416 210.382 79.417 204.21 75.6207 203.793C73.4672 203.561 72.177 204.882 70.8358 206.357C67.7124 209.789 64.7096 206.556 61.4516 205.193C60.4443 204.752 59.3563 204.524 58.2563 204.524C57.1563 204.524 56.0683 204.752 55.061 205.193C54.0525 205.683 53.1419 206.352 52.3738 207.169C51.4456 208.068 50.5963 208.778 49.1669 207.878C48.7028 207.577 48.2897 207.094 47.8071 206.774C43.8297 204.108 38.3255 204.776 34.9422 208.059C34.2971 208.685 35.281 209.668 35.9261 209.042Z" fill="#0AC4FF"/>
<path d="M163.805 173.964C164.635 167.537 174.748 173.663 178.238 173.468C180.192 173.362 181.311 172.388 182.796 171.265C184.861 169.707 186.676 170.408 188.755 171.539C190.834 172.671 193.465 174.665 196.037 173.858C196.619 173.645 197.16 173.331 197.633 172.93C199.058 171.817 200.158 172.212 201.777 172.722L209.718 175.212C210.577 175.481 210.943 174.136 210.09 173.872C207.031 172.912 203.987 171.813 200.896 170.987C200.046 170.76 199.169 170.523 198.306 170.806C197.276 171.159 196.696 172.198 195.665 172.541C192.417 173.654 188.889 169.248 185.617 168.961C183.817 168.798 182.666 169.656 181.315 170.732C178.015 173.362 174.72 171.409 171.263 170.268C167.805 169.128 162.979 169.605 162.412 173.978C162.296 174.864 163.689 174.855 163.805 173.978V173.964Z" fill="#0AC4FF"/>
<path d="M185.961 166.072C187.882 163.442 190.059 161.494 193.502 162.64C195.684 163.363 197.596 164.722 200 164.495C202.074 164.286 202.785 162.765 204.344 161.712C205.903 160.66 207.509 161.596 209.194 162.107L214.02 163.567C214.879 163.827 215.25 162.487 214.392 162.227L208.688 160.497C207.43 160.117 206.015 159.519 204.669 159.76C203.89 159.935 203.192 160.366 202.687 160.984C202.172 161.504 201.787 162.338 201.142 162.719C200.037 163.368 198.7 163.127 197.563 162.793C195.039 162.056 192.797 160.284 190.026 160.938C187.706 161.499 186.095 163.516 184.759 165.348C184.23 166.072 185.436 166.767 185.961 166.048V166.072Z" fill="#0AC4FF"/>
<path d="M299.021 58.7564C294.352 62.0026 292.365 66.2645 290.843 69.5292C288.819 73.8906 287.75 78.634 287.711 83.4416C287.711 86.7156 287.632 95.0352 293.54 102.557C295.169 104.63 299.336 109.768 306.818 111.572C314.898 113.52 321.4 110.274 323.386 109.254C331.192 105.21 334.343 98.3324 335.485 95.7308C337.317 91.4393 338.155 86.7896 337.936 82.1292C337.801 79.1148 337.374 71.8943 332.097 65.1932C330.705 63.4495 324.263 55.6957 313.533 54.9908C311.524 54.8888 305.045 54.5688 299.021 58.7564Z" fill="#FFF502"/>
<path d="M351.933 128.258C345.899 130.196 342.651 135.149 341.857 136.378C338.743 141.252 338.706 146.005 338.683 148.927C338.599 158.879 343.741 165.881 345.05 167.569C347.561 170.816 352.239 176.844 360.542 177.962C361.6 178.106 370.423 179.154 377.022 172.861C383.417 166.753 383 158.234 382.81 154.524C382.693 152.257 381.974 143.663 375.124 136.489C374.043 135.362 363.429 124.571 351.933 128.258Z" fill="#FFF500"/>
<path d="M245.779 133.846C251.185 124.483 258.755 116.548 267.856 110.705C268.32 110.413 268.32 109.546 267.689 109.434C264.728 108.92 262.004 109.434 259.247 110.571L259.786 111.841C262.21 110.621 264.83 109.836 267.527 109.523L266.835 108.614L263.707 116.961C263.396 117.8 264.737 118.162 265.053 117.332L268.176 108.985C268.204 108.882 268.208 108.774 268.187 108.669C268.167 108.564 268.122 108.466 268.058 108.381C267.994 108.296 267.91 108.227 267.815 108.179C267.72 108.13 267.615 108.105 267.508 108.103C264.565 108.444 261.706 109.301 259.062 110.636C258.37 110.988 258.867 112.212 259.6 111.911C262.092 110.877 264.603 110.302 267.299 110.77L267.132 109.499C257.835 115.474 250.101 123.583 244.577 133.15C244.492 133.309 244.472 133.495 244.521 133.668C244.57 133.841 244.684 133.989 244.84 134.08C244.996 134.17 245.181 134.197 245.356 134.154C245.531 134.112 245.683 134.003 245.779 133.851V133.846Z" fill="#161616"/>
<path d="M312.786 111.897C326.681 111.897 337.945 99.1612 337.945 83.4508C337.945 67.7405 326.681 55.0047 312.786 55.0047C298.891 55.0047 287.627 67.7405 287.627 83.4508C287.627 99.1612 298.891 111.897 312.786 111.897Z" stroke="#161616" stroke-width="2" stroke-miterlimit="10"/>
<path d="M310.178 111.897C322.586 111.897 332.645 99.1612 332.645 83.4508C332.645 67.7405 322.586 55.0047 310.178 55.0047C297.769 55.0047 287.71 67.7405 287.71 83.4508C287.71 99.1612 297.769 111.897 310.178 111.897Z" stroke="#161616" stroke-width="2" stroke-miterlimit="10"/>
<path d="M371.784 176.791C382.391 171.916 386.073 157.284 380.009 144.109C373.945 130.935 360.43 124.206 349.823 129.081C339.216 133.956 335.533 148.588 341.598 161.763C347.662 174.938 361.177 181.666 371.784 176.791Z" stroke="#161616" stroke-width="2" stroke-miterlimit="10"/>
<path d="M370.102 177.242C380.307 174.216 385.291 160.69 381.234 147.031C377.177 133.372 365.616 124.752 355.411 127.779C345.206 130.805 340.222 144.331 344.279 157.99C348.336 171.649 359.897 180.269 370.102 177.242Z" stroke="#161616" stroke-width="2" stroke-miterlimit="10"/>
<path d="M355.785 136.99L359.266 144.053C359.66 144.855 360.862 144.15 360.468 143.348L356.987 136.29C356.588 135.483 355.386 136.188 355.785 136.99Z" fill="#161616"/>
<path d="M365.55 142.393C362.468 142.323 359.164 143.547 357.368 146.182C356.045 148.12 355.813 151.19 358.426 152.155C362.036 153.481 364.923 148.908 368.511 151.306C370.803 152.841 371.007 155.971 369.29 158.03C367.239 160.497 363.721 160.349 361.35 158.438C360.658 157.886 359.669 158.865 360.366 159.426C362.839 161.406 366.339 162.069 369.072 160.15C371.439 158.485 372.595 155.215 371.342 152.526C370.713 151.18 369.596 150.124 368.217 149.572C366.838 149.02 365.3 149.013 363.916 149.553C362.988 149.901 362.101 150.48 361.131 150.745C360.774 150.887 360.387 150.944 360.004 150.91C359.62 150.876 359.249 150.753 358.922 150.55C357.706 149.989 357.674 149.159 358.059 147.911C358.955 144.976 362.853 143.738 365.564 143.784C366.464 143.784 366.464 142.393 365.564 142.393H365.55Z" fill="#161616"/>
<path d="M367.401 160.228L370.348 166.15C370.748 166.953 371.95 166.248 371.55 165.45L368.603 159.528C368.204 158.726 367.007 159.431 367.401 160.228Z" fill="#161616"/>
<path d="M313.282 65.6523L311.38 73.2902C311.162 74.1574 312.503 74.5284 312.721 73.6612L314.624 66.0187C314.842 65.1515 313.496 64.7805 313.282 65.6523Z" fill="#161616"/>
<path d="M317.278 76.1793C315.046 74.0786 311.672 72.9609 308.642 73.7307C307.356 74.0554 305.996 74.8345 305.393 76.0495C305.09 76.6781 305.002 77.3886 305.142 78.0721C305.282 78.7555 305.642 79.3743 306.168 79.8336C307.328 80.9281 308.85 81.2249 310.345 81.6886C311.839 82.1523 312.972 82.8109 313.593 84.2346C314.726 86.8964 313.129 89.6882 310.438 90.4348C307.147 91.3623 304.158 88.7561 303.676 85.5655C303.541 84.6844 302.2 85.06 302.33 85.9365C302.761 88.7653 305.003 91.3901 307.899 91.9049C310.795 92.4196 313.821 90.9774 314.944 88.2877C315.998 85.751 315.046 82.4816 312.624 81.095C311.18 80.2695 309.444 80.2324 307.982 79.4348C306.79 78.7763 305.899 77.4407 306.966 76.2396C308.034 75.0385 309.876 74.7974 311.412 74.9365C313.253 75.1173 314.982 75.9035 316.327 77.1717C316.981 77.7839 317.965 76.8007 317.311 76.184L317.278 76.1793Z" fill="#161616"/>
<path d="M307.142 90.8939L305.564 97.3168C305.351 98.1886 306.692 98.5596 306.906 97.6878L308.484 91.2649C308.697 90.3931 307.356 90.0221 307.142 90.8939Z" fill="#161616"/>
<path d="M417.399 192.472C417.937 189.013 416.694 185.98 415.171 182.929C413.777 179.97 412.08 177.163 410.108 174.553C408.716 172.777 406.233 169.67 403.801 169.359C400.552 168.942 401.48 173.352 400.807 175.077L402.153 175.448C402.752 173.269 403.007 171.01 402.91 168.752L402.399 169.424C405.066 168.846 407.836 168.95 410.451 169.726C410.627 169.769 410.813 169.742 410.969 169.65C411.125 169.559 411.24 169.41 411.288 169.236C411.336 169.061 411.315 168.875 411.228 168.716C411.141 168.558 410.996 168.439 410.823 168.386C407.964 167.553 404.942 167.447 402.033 168.08C401.886 168.121 401.756 168.209 401.664 168.331C401.571 168.452 401.52 168.599 401.518 168.752C401.616 170.884 401.378 173.019 400.812 175.077C400.575 175.959 401.842 176.269 402.158 175.448C402.501 174.549 402.251 173.593 402.515 172.731C402.743 172.007 404.056 171.117 404.808 171.372C405.365 171.558 405.954 172.235 406.391 172.615C408.16 174.22 409.687 176.072 410.925 178.115C413.403 182.029 416.805 187.306 416.062 192.101C415.928 192.978 417.269 193.354 417.404 192.472H417.399Z" fill="#161616"/>
<path d="M162.886 159.111C166.322 161.691 169.54 164.55 172.507 167.658C175.212 170.486 179.663 175.578 187.01 188.6C193.414 199.967 195.702 206.158 203.179 216.476C205.356 219.486 208.702 223.849 214.317 225.371C214.898 225.524 221.743 227.29 224.709 223.896C225.702 222.764 226.004 220.97 226.612 217.376C226.978 215.27 227.213 213.143 227.317 211.008C227.656 200.166 227.563 189.375 228.217 181.083C228.649 175.615 230.148 169.577 233.146 157.506C233.49 156.115 235.411 148.727 240.799 144.22C243.398 142.045 244.512 142.444 244.818 142.569C246.424 143.288 246.252 146.71 246.211 147.271C246.081 149.298 245.394 149.929 243.848 153.555C241.593 158.846 241.792 160.46 241.885 160.975C242.211 162.612 243.052 164.101 244.285 165.228C250.215 165.384 256.118 166.083 261.92 167.314C270.882 169.234 273.825 171.228 275.43 172.541C277.992 174.658 280.045 177.324 281.436 180.341L271.226 179.451C270.975 181.206 270.636 182.947 270.209 184.668C269.559 187.297 269.207 188.702 268.279 190.423C267.441 192.16 266.211 193.679 264.686 194.861C262.366 196.6 259.85 196.966 258.156 197.212C257.03 197.376 255.892 197.435 254.755 197.388L245.63 202.907C245.992 209.246 246.062 214.607 246.048 218.642C245.992 231.362 245.032 235.258 243.978 238.212C242.962 241.05 241.709 244.454 238.595 247.834C237.792 248.706 232.946 253.821 225.423 255.083C217.534 256.409 211.078 252.764 206.753 250.209C188.035 239.209 177.268 215.961 174.038 208.472" fill="white"/>
<path opacity="0.17" d="M176.892 176.32C188.244 194.086 194.064 207.632 197.285 217.074C198.417 220.381 200.631 227.277 206.841 233.305C209.398 235.791 216.035 242.251 225.006 241.903C233.796 241.56 241.913 234.789 245.89 225.046C246.149 229.527 245.487 234.014 243.946 238.23C242.92 241.013 241.161 245.812 236.543 249.768C236.037 250.199 229.043 256.033 219.836 255.44C210.09 254.814 203.592 247.352 199.373 242.348C181.533 221.197 177.853 188.378 176.892 176.32Z" fill="#AAAAAA"/>
<path d="M152.611 154.464C167.712 158.684 177.407 172.142 184.476 185.28C188.448 192.658 191.938 200.287 196.227 207.493C199.824 213.522 204.079 220.2 210.108 224.091C215.654 227.666 223.716 227.963 227.879 222.143C228.398 221.41 227.192 220.715 226.672 221.438C221.706 228.394 212.285 224.87 207.305 220.047C201.81 214.746 197.837 207.813 194.254 201.145C187.418 188.415 181.77 174.762 171.411 164.36C166.246 159.171 160.073 155.085 152.982 153.114C152.806 153.071 152.62 153.098 152.464 153.19C152.308 153.281 152.193 153.43 152.145 153.605C152.097 153.779 152.118 153.965 152.205 154.124C152.292 154.283 152.438 154.401 152.611 154.455V154.464Z" fill="#161616"/>
<path d="M200.45 243.814C206.043 253.599 217.924 258.528 228.728 254.967C240.572 251.057 245.552 239.927 246.48 228.278C247.125 220.204 246.679 212.01 246.6 203.918C246.6 203.733 246.527 203.556 246.396 203.426C246.266 203.295 246.089 203.222 245.904 203.222C245.72 203.222 245.543 203.295 245.412 203.426C245.281 203.556 245.208 203.733 245.208 203.918C245.282 211.639 245.672 219.435 245.171 227.147C244.707 234.488 243.031 242.195 237.792 247.686C227.312 258.667 209.11 256.163 201.652 243.113C201.556 242.961 201.404 242.852 201.229 242.81C201.054 242.767 200.869 242.794 200.713 242.884C200.558 242.975 200.443 243.123 200.394 243.296C200.345 243.469 200.365 243.655 200.45 243.814Z" fill="#161616"/>
<path d="M227.043 222.324C229.053 206.895 227.507 191.253 229.438 175.824C230.301 168.868 231.902 161.912 234.747 155.447C236.04 152.496 237.629 149.684 239.49 147.053C240.109 146.185 240.756 145.345 241.43 144.535C241.635 144.221 241.882 143.935 242.164 143.687L242.414 143.404L245.338 144.54C246.647 146.228 244.702 150.193 243.992 151.7C242.02 155.911 238.78 162.482 243.941 165.854C244.693 166.345 245.389 165.139 244.642 164.652C241.24 162.431 242.656 157.631 244.085 154.645C245.514 151.658 247.464 148.472 246.87 145.041C246.531 143.102 244.753 140.515 242.461 141.567C241.333 142.091 240.479 143.487 239.736 144.424C238.696 145.731 237.729 147.095 236.84 148.51C228.691 161.494 227.336 177.341 227.02 192.296C226.811 202.322 226.946 212.363 225.628 222.324C225.512 223.21 226.909 223.2 227.02 222.324H227.043Z" fill="#161616"/>
<path d="M244.043 165.441C254.629 166.498 266.784 167.416 275.83 173.649C276.909 174.371 277.89 175.23 278.749 176.204C279.422 176.988 280.842 178.801 280.656 179.914C280.471 181.027 279.477 180.953 278.8 180.842C278.053 180.73 276.841 179.914 276.131 179.553C275.059 178.987 273.992 178.426 272.883 177.948C268.086 175.913 262.87 175.058 257.674 175.453C256.783 175.518 256.778 176.909 257.674 176.844C261.443 176.547 265.234 176.929 268.868 177.971C272.154 178.936 274.934 180.754 278.071 182.034C279.463 182.595 281.7 183.165 282.123 181.106C282.545 179.047 280.958 176.626 279.728 175.207C275.96 170.857 269.666 168.682 264.278 167.212C257.679 165.408 250.819 164.717 244.039 164.04C243.147 163.952 243.157 165.343 244.039 165.432L244.043 165.441Z" fill="#161616"/>
<path d="M257.832 175.653C254.448 176.116 250.295 178.036 249.134 181.547C248.007 184.969 250.889 186.421 253.84 186.333C258.598 186.225 263.304 185.324 267.763 183.666C268.692 183.309 274.363 180.193 271.583 178.876C270.775 178.495 270.07 179.692 270.878 180.077C270.771 180.026 268.65 181.755 268.232 181.964C267.003 182.517 265.724 182.953 264.413 183.267C261.808 183.98 259.149 184.474 256.463 184.747C255.376 184.882 254.281 184.954 253.186 184.96C252.091 184.937 250.61 184.13 250.276 182.98C250.123 182.46 250.74 181.347 251.028 180.874C252.499 178.509 255.59 177.354 258.212 176.997C259.094 176.872 258.718 175.532 257.841 175.653H257.832Z" fill="#161616"/>
<path d="M250.1 184.529C249.76 185.516 249.74 186.585 250.043 187.584C250.346 188.583 250.957 189.461 251.789 190.094C254.11 191.986 257.535 191.948 260.319 191.661C265.712 191.132 271.551 187.951 271.314 181.802C271.281 180.907 269.889 180.902 269.922 181.802C270.103 186.546 265.935 189.324 261.702 190.08C258.454 190.655 249.329 190.738 251.441 184.913C251.747 184.074 250.401 183.708 250.1 184.547V184.529Z" fill="#161616"/>
<path d="M251.056 189.593C249.148 194.977 254.82 198.469 259.567 197.796C264.932 197.04 269.123 192.496 269.949 187.241C270.084 186.365 268.743 185.985 268.603 186.87C268.33 188.78 267.577 190.589 266.416 192.129C265.255 193.67 263.723 194.892 261.962 195.682C257.957 197.43 250.304 195.876 252.397 189.968C252.699 189.124 251.353 188.758 251.056 189.597V189.593Z" fill="#161616"/>
<path d="M246.234 203.264C248.392 199.837 253.743 200.792 255.785 197.054C256.217 196.266 255.015 195.566 254.583 196.349C252.648 199.897 247.241 199.053 245.032 202.564C244.568 203.324 245.756 204.024 246.234 203.264Z" fill="#161616"/>
<path d="M224.231 369.999C221.372 373.676 218.462 377.65 215.566 381.921C211.561 387.82 208.089 393.515 205.073 398.955C205.879 401.865 207.233 404.594 209.064 406.996C212.313 411.244 216.086 412.951 220.666 415.371C221.516 415.835 227.09 419.271 238.233 426.163C242.456 428.778 248.443 432.655 255.544 437.891C253.893 433.964 252.034 430.128 249.974 426.399C244.281 416.113 237.133 406.701 228.751 398.454L239.657 385.089L224.231 369.999Z" fill="black"/>
<path d="M137.857 288.296C144.413 281.746 152.396 276.8 161.182 273.846C186.244 265.549 208.298 277.352 212.642 279.796C223.484 273.767 232.097 268.666 237.643 265.369C257.47 253.492 265.16 247.839 280.206 241.824C291.674 237.242 298.306 236.083 304.873 236.199C309.834 236.287 317.989 236.537 326.222 241.847C328.626 243.396 337.198 249.096 340.279 259.868C342.136 266.361 341.143 271.722 339.899 277.955C338.006 287.148 334.566 295.954 329.726 303.998C319.088 322.275 313.77 331.415 304.251 343.922C291.18 361.07 276.989 377.337 261.772 392.615C258.762 392.949 255.718 392.813 252.75 392.212C250.429 391.748 243.291 389.967 229.916 376.241C225.136 371.33 220.714 366.084 216.684 360.543L229.28 344.692C223.864 346.742 218.239 348.196 212.507 349.028C212.507 349.028 198.422 351.073 185.896 348.421C168.241 344.692 147.886 321.69 137.857 288.296Z" fill="white"/>
<path opacity="0.15" d="M191.744 349.343C198.385 346.097 205.165 342.457 212.029 338.436C240.64 321.606 266.509 300.507 288.741 275.868C285.028 284.832 280.754 294.121 275.885 303.627C262.845 329.084 247.063 353.042 228.821 375.077C226.147 373.342 221.423 369.679 218.815 363.376C218.194 361.882 217.728 360.328 217.422 358.739L228.616 345.48C222.88 348.179 213.199 351.662 201.234 350.864C198.031 350.648 194.854 350.139 191.744 349.343Z" fill="#7A7A7A"/>
<path d="M211.282 281.59L240.841 264.307C250.258 258.802 259.581 253.089 269.193 247.932C285.72 239.056 305.393 232.322 323.414 241.133C330.84 244.76 336.961 250.872 339.314 258.922C342.321 269.199 339.193 280.153 335.374 289.771C328.046 308.223 317.478 325.243 305.569 341.066C292.003 359.082 276.637 375.647 261.294 392.138C260.681 392.796 261.665 393.779 262.278 393.121C290.309 362.977 319.149 331.907 335.346 293.476C339.356 283.974 342.971 273.535 341.597 263.082C340.544 255.032 336.209 248.085 329.702 243.299C314.624 232.206 295.141 234.613 278.93 241.62C267.327 246.629 256.597 253.483 245.733 259.836L210.577 280.385C210.498 280.431 210.428 280.492 210.373 280.565C210.317 280.638 210.277 280.722 210.254 280.81C210.23 280.899 210.225 280.991 210.237 281.082C210.25 281.173 210.28 281.261 210.326 281.34C210.373 281.419 210.434 281.488 210.507 281.544C210.58 281.599 210.664 281.64 210.752 281.663C210.841 281.686 210.934 281.692 211.025 281.679C211.115 281.667 211.203 281.637 211.282 281.59Z" fill="#161616"/>
<path d="M287.571 277.05C263.682 303.521 240.312 330.446 217.459 357.825C216.889 358.512 217.868 359.499 218.443 358.808C241.293 331.444 264.663 304.519 288.555 278.033C289.154 277.37 288.17 276.382 287.571 277.05Z" fill="#161616"/>
<path d="M217.52 358.317C216.471 363.08 220.462 366.794 223.33 370.05C226.913 374.234 230.738 378.206 234.784 381.945C242.089 388.516 252.003 395.565 262.375 393.265C263.252 393.075 262.881 391.73 262.009 391.924C252.193 394.099 242.656 387.157 235.768 380.962C232.499 377.968 229.391 374.802 226.458 371.478C223.516 368.204 217.789 363.566 218.861 358.688C219.051 357.816 217.71 357.44 217.52 358.317Z" fill="#161616"/>
<path d="M238.284 384.685L228.793 396.279C228.231 396.965 229.211 397.958 229.777 397.262L239.268 385.668C239.834 384.978 238.855 383.99 238.284 384.681V384.685Z" fill="#161616"/>
<path d="M223.205 369.878L214.851 382.617C214.359 383.368 215.566 384.064 216.053 383.317L224.407 370.578C224.899 369.827 223.692 369.131 223.205 369.878Z" fill="#161616"/>
<path d="M214.949 381.574L207.328 392.931C205.472 395.685 203.281 398.166 205.254 401.427C208.618 406.991 214.123 411.536 219.316 415.292C230.816 423.612 244.108 429.205 255.015 438.382C255.124 438.488 255.265 438.555 255.417 438.573C255.568 438.591 255.721 438.559 255.853 438.483C255.984 438.406 256.087 438.289 256.146 438.149C256.205 438.008 256.217 437.853 256.179 437.705C251.32 421.303 237.504 410.052 228.932 395.746C228.836 395.593 228.684 395.484 228.509 395.442C228.334 395.399 228.149 395.426 227.993 395.517C227.837 395.607 227.723 395.755 227.674 395.928C227.625 396.102 227.645 396.287 227.73 396.446C236.228 410.636 250.007 421.822 254.838 438.076L255.998 437.399C246.252 429.177 234.603 423.77 223.975 416.814C218.615 413.303 213.501 409.338 209.314 404.455C208.136 403.064 206.293 401.301 205.857 399.516C205.323 397.322 207.931 394.517 209.031 392.88L216.146 382.274C216.647 381.527 215.441 380.832 214.944 381.574H214.949Z" fill="#161616"/>
<path d="M197.22 351.899C207.43 350.609 218.262 349.765 227.999 346.334C228.839 346.037 228.463 344.692 227.628 344.989C218.016 348.36 207.277 349.209 197.22 350.484C196.343 350.595 196.334 351.987 197.22 351.875V351.899Z" fill="#161616"/>
<path d="M100.186 148.867C104.13 149.293 110.029 149.882 117.209 150.416C142.14 152.271 148.387 150.879 156.931 154.538C166.181 158.508 171.008 165.343 177.565 174.642C189.702 191.842 191.86 205.61 203.36 247.32C207.008 260.569 210.238 271.675 212.642 279.782C203.824 277.463 172.53 270.303 143.519 287.512C136.134 291.914 129.513 297.485 123.915 304.008C116.007 252.3 108.097 200.586 100.186 148.867Z" fill="#3AAF83"/>
<path d="M101.912 149.122C99.522 149.743 96.0598 151.065 93.3866 154.102C88.9358 159.157 89.3117 165.983 89.4417 169.281C89.9058 181.417 88.0958 193.725 90.0589 205.708C91.4141 213.976 91.3956 230.629 91.3677 263.931C91.3399 291.579 90.0172 296.667 90.1146 328.702C90.1471 340.912 90.3745 350.906 90.5787 357.413C88.9773 357.153 87.3967 356.778 85.8495 356.29C82.3595 355.191 81.0043 354.134 77.2358 353.188C74.3584 352.464 73.1981 352.599 72.2467 352.937C71.0175 353.41 69.9574 354.238 69.2022 355.316C67.188 354.782 65.0753 354.734 63.0389 355.177C61.034 355.641 59.289 356.791 55.8732 359.077C52.8334 361.118 50.8006 362.732 49.9559 363.413C45.2546 367.211 44.4146 368.77 43.9876 369.906C43.5603 371.059 43.348 372.28 43.361 373.509L53.7337 370.824C59.3029 369.377 61.7255 368.742 64.8211 369.586C66.0046 369.906 68.1255 370.513 69.5874 372.521C70.4395 373.715 70.9235 375.132 70.9797 376.598C68.5325 377.819 65.9766 378.809 63.3453 379.556C60.8113 380.27 59.0338 380.516 58.6718 381.699C58.2494 383.09 60.0641 384.727 60.4029 385.019C60.9969 385.539 62.3474 386.512 65.508 386.726C66.3619 386.781 69.2811 386.911 74.1031 385.256C78.345 383.8 78.5724 382.844 81.2921 382.626C83.8029 382.418 84.0395 383.201 86.8195 383.007C89.4788 382.821 91.4048 381.949 93.5351 380.989C95.9111 379.882 98.1597 378.52 100.241 376.927C104.493 373.875 106.613 372.35 107.876 369.697C108.772 367.695 109.132 365.494 108.92 363.311C107.992 345.721 112.396 328.238 113.38 310.649C113.928 300.85 114.202 295.952 114.373 292.164C114.805 282.731 115.445 266.273 115.571 245.163C115.687 225.491 115.394 213.248 115.06 204.544C114.429 188.025 113.668 181.459 111.811 174.155C109.609 165.418 106.281 157.003 101.912 149.122Z" fill="white"/>
<path opacity="0.14" d="M102.269 149.451C101.596 156.523 100.71 167.537 100.316 180.986C99.2528 217 102.808 232.851 105.37 287.183C106.883 319.372 106.511 332.38 102.242 348.643C99.0976 360.547 94.4797 372.013 88.4949 382.775C91.2819 381.929 93.9741 380.797 96.5285 379.399C100.088 377.446 105.184 374.655 107.825 369.697C109.774 366.047 109.5 362.885 109.426 358.006C109.305 350.234 110.498 342.489 110.67 334.722C110.943 322.108 112.327 319.497 114.053 302.463C115.835 284.869 115.974 271.703 116.141 256.284C116.211 249.569 115.914 238.035 115.325 214.969C114.749 192.565 114.461 188.072 113.31 181.797C111.225 170.536 107.505 159.639 102.269 149.451Z" fill="#898989"/>
<path d="M102.098 148.449C96.8812 147.104 92.8899 152.73 91.1728 156.899C88.8244 162.612 88.6481 169.104 88.4624 175.189C87.9983 190.845 89.6041 206.454 90.2678 222.078C91.5998 253.562 90.0172 285.054 89.5391 316.533C89.2653 334.253 89.3628 351.987 90.4673 369.679C90.523 370.569 91.9153 370.574 91.8596 369.679C89.9615 339.758 91.0428 309.781 91.7343 279.842C92.0731 265.174 92.3145 250.496 92.0499 235.823C91.7808 220.895 90.5323 206.028 89.9615 191.114C89.6552 183.165 89.5345 175.138 90.2864 167.212C90.6251 163.679 91.2145 160.071 92.695 156.815C94.1755 153.56 97.531 148.695 101.708 149.789C101.884 149.833 102.069 149.805 102.226 149.714C102.382 149.622 102.496 149.474 102.545 149.299C102.593 149.125 102.571 148.939 102.484 148.78C102.398 148.621 102.252 148.503 102.079 148.449H102.098Z" fill="#161616"/>
<path d="M101.671 149.803C108.762 160.84 111.839 173.695 113.199 186.606C114.619 200.027 114.633 213.624 114.772 227.11C115.082 256.839 114.249 286.554 112.275 316.255C111.152 333.08 109.664 349.872 107.811 366.632C107.709 367.522 109.106 367.518 109.203 366.632C112.529 336.47 114.672 306.207 115.631 275.845C116.107 260.828 116.29 245.809 116.179 230.787C116.076 216.875 116.072 202.823 114.786 188.939C113.501 175.054 110.526 161.017 102.873 149.103C102.409 148.352 101.183 149.047 101.671 149.803Z" fill="#161616"/>
<path d="M80.155 370.866C77.3881 372.956 74.3981 374.734 71.2396 376.166C68.1116 377.558 64.9139 378.267 61.6559 379.218C56.639 380.679 58.7645 386.058 62.9043 387.074C65.6375 387.675 68.4726 387.636 71.1886 386.962C74.5951 386.16 77.3843 383.545 80.9022 383.34C85.6592 383.062 91.7622 385.335 94.9274 380.391C95.3915 379.635 94.2034 378.935 93.7253 379.691C90.9175 384.078 84.6846 381.643 80.517 381.968C78.4378 382.125 76.8042 383.021 75.0081 383.985C72.476 385.36 69.6382 386.076 66.7564 386.067C65.4683 386.11 64.1807 385.969 62.9322 385.65C60.918 385.066 58.3561 382.302 61.4888 380.748C62.5238 380.233 63.8975 380.155 65.0067 379.853C66.1159 379.552 67.3272 379.181 68.4364 378.777C72.8905 377.177 77.0774 374.915 80.8558 372.067C81.5659 371.538 80.8558 370.332 80.155 370.866Z" fill="#161616"/>
<path d="M71.6341 376.602C71.7083 371.965 67.4293 368.978 63.1364 368.649C59.9387 368.403 56.7736 369.317 53.7105 370.105L43.1568 372.841L44.034 373.514C43.426 368.853 48.0763 366.84 51.7613 365.714C55.0807 364.709 58.4703 363.953 61.9019 363.45C62.7837 363.321 62.4078 361.98 61.5306 362.11C55.5901 363.001 41.4861 364.712 42.6417 373.514C42.6441 373.62 42.6704 373.725 42.7187 373.82C42.767 373.914 42.8361 373.997 42.9208 374.062C43.0055 374.126 43.1036 374.171 43.2079 374.193C43.3123 374.214 43.4201 374.212 43.5235 374.186C48.4197 372.916 53.3206 371.404 58.2819 370.43C62.8997 369.53 70.3485 370.328 70.2418 376.602C70.2418 377.497 71.6341 377.497 71.6341 376.602Z" fill="#161616"/>
<path d="M49.0555 365.714C50.8076 363.132 53.2341 361.079 56.0717 359.778C58.9092 358.477 62.0492 357.978 65.1506 358.335C66.0417 358.433 66.037 357.042 65.1506 356.944C61.8086 356.589 58.433 357.152 55.3879 358.573C52.3429 359.994 49.7441 362.22 47.8721 365.009C47.3708 365.755 48.5775 366.451 49.0741 365.714H49.0555Z" fill="#161616"/>
<path d="M58.0545 358.734C62.5423 353.763 69.5224 355.882 74.9663 357.765C75.811 358.062 76.1776 356.717 75.333 356.425C69.4018 354.37 61.9112 352.386 57.0706 357.746C56.4719 358.414 57.4511 359.397 58.0545 358.734Z" fill="#161616"/>
<path d="M70.3161 355.159C71.7084 352.182 77.0873 353.768 79.4264 354.412C82.5388 355.303 85.4778 356.715 88.119 358.586C88.8569 359.101 89.5531 357.895 88.8198 357.385C85.2108 354.841 81.0732 353.145 76.716 352.423C74.1263 352.015 70.4367 351.611 69.114 354.477C68.7428 355.284 69.9401 355.993 70.3161 355.182V355.159Z" fill="#161616"/>
<path d="M107.625 365.788C108.089 369.906 105.216 372.851 102.028 374.961C99.1368 376.876 96.1015 378.596 93.1359 380.391C92.3702 380.855 93.0663 382.061 93.8367 381.592C99.5034 378.16 109.978 374.005 109.017 365.788C108.915 364.911 107.518 364.897 107.625 365.788Z" fill="#161616"/>
<path d="M208.266 452.68C208.53 453.607 208.994 453.653 212.238 457.368C215.264 460.828 215.993 462.089 220.068 467.278C221.766 469.449 224.245 472.551 227.401 476.284C229.338 476.756 231.324 476.997 233.318 477.003C237.199 476.979 241.03 476.125 244.554 474.499C246.749 473.571 245.695 474.258 269.332 468.976C277.686 467.121 290.24 464.241 307.908 460.021L309.444 457.4C307.036 456.988 303.411 456.431 298.988 456.009C289.975 455.147 286.745 455.708 277.89 455.341C270.64 455.033 263.418 454.258 256.268 453.023C247.023 451.525 242.345 450.727 238.701 448.158C232.515 443.776 230.097 437.028 229.094 433.17C210.865 443.901 207.365 449.526 208.266 452.68Z" fill="black"/>
<path d="M120.569 280.134C115.589 282.346 112.986 286.232 111.988 287.763C109.314 291.858 108.479 296.11 108.168 301.068C107.658 310.165 108.808 319.279 111.561 327.965C116.434 342.897 122.866 353.619 127.503 361.183C144.127 388.298 154.718 403.156 154.718 403.156C164.371 416.702 177.602 434.529 194.366 455.096C197.826 455.158 201.278 454.757 204.632 453.904C213.774 451.585 219.617 446.424 225.382 441.234C230.904 436.251 235.735 430.552 239.746 424.289C236.497 417.968 232.223 409.867 227.029 400.541C224.3 395.644 216.067 380.98 204.056 361.855C197.248 351.018 191.029 341.872 178.6 323.587C172.016 313.767 164.764 304.411 156.894 295.586C149.636 287.466 142.971 281.08 133.466 279.202C130.946 278.683 125.92 277.76 120.569 280.134Z" fill="white"/>
<path opacity="0.06" d="M120.569 280.134C120.19 285.76 120.402 291.41 121.2 296.991C123.646 313.997 131.044 326.022 135.081 332.435C145.329 348.722 173.504 392.388 213.371 450.287C207.594 453.613 201.007 455.271 194.343 455.077C190.927 450.806 185.989 444.536 180.085 436.88C160.941 411.972 148.211 393.436 142.702 385.298C128.292 364.026 122.527 353.698 117.933 344.075C117.933 344.075 111.315 330.219 108.331 310.347C107.834 307.036 107.449 303.525 108.293 299.217C110.201 289.557 116.805 283.195 120.569 280.134Z" fill="#A5A5A5" stroke="#A5A5A5" stroke-miterlimit="10"/>
<path d="M195.456 454.187C178.205 434.21 162.166 413.219 147.427 391.326C140.131 380.475 133.16 369.413 126.514 358.141C119.822 346.774 113.937 335.232 110.735 322.358C107.713 310.18 105.555 294.965 115.055 284.952C124.737 274.75 139.527 279.721 148.652 287.906C153.102 291.904 156.894 296.588 160.653 301.216C164.83 306.348 168.891 311.57 172.836 316.881C180.642 327.362 188.04 338.139 195.141 349.102C211.087 373.709 225.544 399.228 239.987 424.73C240.08 424.889 240.234 425.005 240.412 425.051C240.591 425.098 240.781 425.071 240.941 424.978C241.1 424.884 241.216 424.731 241.262 424.553C241.309 424.374 241.282 424.184 241.189 424.025C227.586 400.007 213.969 375.976 199.114 352.701C191.776 341.209 184.137 329.908 176.066 318.917C172.162 313.606 168.155 308.373 164.046 303.219C160.032 298.174 156.008 293.031 151.367 288.546C143.389 280.793 131.336 274.49 120.23 279.559C109.556 284.428 106.182 297.098 106.887 307.847C107.76 321.157 112.22 334.434 118.267 346.241C124.467 358.345 131.837 369.938 139.198 381.356C155.882 407.215 174.345 431.884 194.454 455.184C195.043 455.866 196.023 454.878 195.442 454.201L195.456 454.187Z" fill="#161616"/>
<path d="M194.366 455.773C214.958 456.58 229.016 439.403 240.344 424.618C240.887 423.909 239.681 423.227 239.142 423.918C228.115 438.294 214.42 455.165 194.366 454.382C193.465 454.344 193.47 455.736 194.366 455.773Z" fill="#161616"/>
<path d="M208.368 453.575L217.339 464.936C220.216 468.581 222.908 472.551 226.073 475.955C228.51 478.575 231.178 478.186 234.404 477.476C239.221 476.409 244.039 475.324 248.856 474.23L305.75 461.542C306.623 461.347 306.251 460.007 305.379 460.202L252.077 472.106L238.53 475.125C236.474 475.589 234.422 476.127 232.348 476.516C229.503 477.031 227.851 476.006 226.152 473.91C220.458 466.884 214.935 459.71 209.333 452.61C208.776 451.91 207.797 452.898 208.349 453.593L208.368 453.575Z" fill="#161616"/>
<path d="M230.078 436.291C232.018 450.101 247.621 453.607 259.215 454.057C275.997 454.711 292.63 455.629 309.259 458.073L308.795 457.215C308.639 458.104 308.157 458.903 307.443 459.455C306.729 460.008 305.834 460.274 304.933 460.202C304.038 460.16 304.038 461.551 304.933 461.593C306.141 461.678 307.338 461.316 308.297 460.578C309.256 459.839 309.91 458.775 310.136 457.586C310.184 457.411 310.162 457.225 310.076 457.066C309.989 456.907 309.845 456.787 309.672 456.733C294.639 454.52 279.487 453.21 264.297 452.809C252.193 452.499 233.629 451.335 231.461 435.92C231.336 435.039 229.995 435.414 230.12 436.291H230.078Z" fill="#161616"/>
<path d="M115.111 97.8176C115.042 97.5394 114.048 93.9036 110.735 92.8324C107.421 91.7611 104.404 93.9917 102.984 95.9163C100.71 98.9955 101.675 102.706 102.056 104.199C102.859 107.292 104.738 109.23 106.414 110.965C107.491 112.078 108.307 112.903 109.69 113.45C111.513 114.115 113.51 114.125 115.339 113.478C115.506 114.819 115.756 116.998 115.96 119.692C116.202 122.98 116.541 129.287 115.496 147.642C115.394 149.367 115.246 151.876 115.032 154.923C115.564 156.048 116.347 157.036 117.32 157.812C119.404 159.435 121.79 159.486 123.354 159.551C127.44 159.737 131.514 160.135 135.559 160.743C136.393 159.826 137.124 158.822 137.741 157.747C140.33 153.226 140.205 148.63 139.959 146.33C144.882 148 150.086 148.69 155.275 148.361C158.106 146.703 160.695 144.664 162.969 142.3C165.888 139.272 167.471 136.536 169.179 133.549C171.881 128.775 174.029 123.709 175.584 118.45C177.023 113.61 177.973 108.639 178.419 103.61C178.904 97.5798 178.725 91.5148 177.886 85.5238C176.957 78.5259 176.456 74.9875 174.038 70.6839C171.977 67.132 169.202 64.0451 165.889 61.6177C157.864 55.7467 148.155 55.0511 142.465 56.0203C128.185 58.4504 115.445 75.5254 115.111 97.8176Z" fill="white"/>
<path opacity="0.06" d="M129.656 71.8433C128.37 74.9579 127.383 78.1878 126.709 81.4892C125.846 85.7092 124.523 94.8126 128.835 111.633C132.077 124.136 137.109 136.107 143.774 147.174L138.836 145.481C139.848 147.429 140.827 149.803 139.992 150.629C138.539 152.062 132.288 148.254 128.742 145.407C125.275 142.625 119.613 136.911 116.211 125.819L115.348 113.478C113.753 114.008 112.045 114.103 110.401 113.752C103.495 112.152 101.694 102.358 101.583 101.778C101.23 99.7004 100.478 95.2856 103.007 92.0394C105.75 88.5103 109.198 90.4163 112.54 87.3648C117.603 82.7274 113.635 74.7602 117.938 71.3703C119.539 70.095 122.699 69.1443 129.656 71.8433Z" fill="#AAAAAA"/>
<path d="M115.965 119.692C111.282 117.601 104.966 113.863 100.877 107.083C95.772 98.6431 100.255 95.638 94.7556 81.8231C91.131 72.729 88.3835 65.8193 83.5801 59.4892C83.5012 59.3825 81.6216 56.9107 81.9836 56.5629C82.754 55.8209 92.6579 66.0558 94.2219 64.8083C95.1501 64.0709 92.1984 60.1013 90.7644 55.2366C89.1771 49.7644 89.1771 42.2981 94.2219 32.0958C95.301 35.0937 97.0282 37.8172 99.2806 40.0722C102.614 43.3472 106.897 45.4878 111.519 46.189C108.664 40.8119 107.636 34.6528 108.591 28.6409C110.67 16.3006 120.634 10.1421 122.165 9.23315L133.606 24.1194C133.336 23.4145 131.461 18.2344 134.404 13.2214C135.87 10.7779 138.121 8.90292 140.79 7.90221C142.534 13.848 145.33 19.4332 149.046 24.393C155.762 33.2551 161.002 33.8255 169.806 44.334C173.467 48.7071 176.888 52.788 179.115 58.7101C183.399 70.0486 180.712 81.2712 178.243 88.0326C177.195 75.6769 172.552 63.8976 164.886 54.1468L154.151 64.6182L140.623 57.393L129.661 71.8433L118.216 74.4217L117.065 88.3341C117.464 95.1418 116.74 97.224 115.779 97.4977C114.09 97.9614 112.34 92.2991 108.818 92.6005C105.022 92.9251 103.342 97.0478 102.989 98.031C102.061 100.577 102.65 102.812 102.989 104.143C103.304 105.367 104.919 110.965 110.173 112.917C111.822 113.516 113.592 113.703 115.329 113.464C115.546 115.545 115.758 117.621 115.965 119.692Z" fill="#FFA965"/>
<path d="M115.455 114.642C116.202 119.28 118.211 123.477 120.485 127.548C122.76 131.62 125.029 135.803 128.203 139.244C134.543 146.126 144.633 149.006 153.729 149.381C154.625 149.418 154.625 148.027 153.729 147.99C144.716 147.619 134.766 144.693 128.668 137.676C125.855 134.43 123.771 130.572 121.706 126.843C119.488 122.874 117.529 118.797 116.819 114.271C116.675 113.39 115.334 113.766 115.473 114.642H115.455Z" fill="#161616"/>
<path d="M173.379 70.8926C178.416 84.505 179.393 99.2851 176.192 113.441C173.263 126.356 166.659 142.082 154.04 148.222C153.232 148.612 153.938 149.813 154.745 149.423C167.471 143.251 174.27 127.599 177.361 114.577C180.841 99.9526 179.923 84.6267 174.72 70.5216C174.414 69.6915 173.068 70.0579 173.379 70.8926Z" fill="#161616"/>
<path d="M114.861 114.179C115.583 122.388 115.763 130.635 115.399 138.868C115.218 142.829 114.902 146.784 114.471 150.731C114.239 153.133 113.775 155.916 115.784 157.668C117.998 159.593 122.073 160.043 124.848 160.562C128.041 161.165 131.61 161.796 134.863 161.522C137.346 161.318 137.889 159.565 138.576 157.432C139.721 153.83 140.419 150.102 140.655 146.33C140.716 145.435 139.323 145.44 139.263 146.33C139.052 149.547 138.499 152.733 137.611 155.832C137.11 157.548 136.734 159.788 134.562 160.136C133.169 160.358 131.452 160.038 130.051 159.904C127.024 159.618 124.028 159.077 121.093 158.285C119.701 157.91 117.52 157.548 116.494 156.463C115.38 155.28 115.566 153.439 115.724 151.969C116.972 139.36 117.343 126.839 116.248 114.197C116.174 113.311 114.777 113.302 114.856 114.197L114.861 114.179Z" fill="#161616"/>
<path d="M115.631 112.439C109.834 116.669 103.049 107.208 102.334 102.2C101.87 98.9538 103.221 95.4247 106.312 93.9268C107.101 93.5193 107.975 93.3039 108.863 93.2982C109.751 93.2925 110.628 93.4967 111.422 93.8942C112.216 94.2916 112.905 94.871 113.433 95.5851C113.96 96.2992 114.311 97.1277 114.457 98.0031C114.61 98.8842 115.951 98.5086 115.803 97.6321C115.496 95.8544 114.504 94.268 113.039 93.2142C111.574 92.1604 109.753 91.7235 107.969 91.9976C104.061 92.5541 101.341 95.9487 100.9 99.7468C100.13 106.383 108.869 119.09 116.336 113.659C117.051 113.135 116.336 111.925 115.631 112.458V112.439Z" fill="#161616"/>
<path d="M133.791 80.8214C134.947 77.5335 137.968 73.5081 141.927 74.2687C145.612 74.9736 147.292 78.6001 147.867 81.9251C148.021 82.8062 149.366 82.4352 149.213 81.5541C148.503 77.4732 146.02 73.1557 141.435 72.8033C137.007 72.4601 133.759 76.7126 132.445 80.4504C132.148 81.2991 133.494 81.6608 133.791 80.8214Z" fill="#161616"/>
<path d="M164.464 80.622C165.211 78.4702 166.826 76.5225 169.156 76.0216C169.784 75.8883 170.433 75.8799 171.064 75.9969C171.696 76.114 172.298 76.3542 172.837 76.7039C173.376 77.0536 173.84 77.5058 174.204 78.0349C174.568 78.5639 174.824 79.1594 174.957 79.7872C175.143 80.6637 176.489 80.2927 176.298 79.4209C175.963 77.9337 175.098 76.6194 173.864 75.7233C172.629 74.8272 171.111 74.4107 169.592 74.5516C166.427 74.853 164.111 77.3943 163.122 80.2556C162.83 81.0996 164.176 81.466 164.464 80.622Z" fill="#161616"/>
<path d="M158.5 85.7556C158.525 92.2481 158.322 98.7405 157.892 105.233C157.672 108.405 157.4 111.571 157.075 114.73C156.76 117.805 156.639 121.07 154.912 123.741L156.189 123.908C155.004 120.927 154.083 117.849 153.437 114.707C153.256 113.831 151.914 114.202 152.091 115.078C152.739 118.219 153.66 121.298 154.843 124.279C154.884 124.408 154.96 124.522 155.064 124.609C155.167 124.696 155.294 124.751 155.428 124.769C155.562 124.786 155.698 124.765 155.821 124.708C155.943 124.651 156.047 124.56 156.119 124.446C157.511 122.313 157.883 119.915 158.175 117.434C158.584 113.979 158.894 110.51 159.154 107.046C159.683 99.9509 159.916 92.8417 159.892 85.7139C159.892 85.5294 159.819 85.3525 159.688 85.222C159.558 85.0916 159.381 85.0183 159.196 85.0183C159.012 85.0183 158.834 85.0916 158.704 85.222C158.573 85.3525 158.5 85.5294 158.5 85.7139V85.7556Z" fill="#161616"/>
<path d="M136.163 120.875C137.778 123.94 138.994 127.205 142.117 129.06C143.399 129.81 144.822 130.287 146.297 130.461C147.773 130.635 149.268 130.502 150.689 130.071C151.543 129.821 151.181 128.48 150.318 128.731C148.973 129.143 147.553 129.248 146.163 129.038C144.772 128.828 143.446 128.308 142.284 127.516C139.755 125.767 138.734 122.776 137.365 120.17C136.952 119.377 135.745 120.082 136.163 120.875Z" fill="#161616"/>
<path d="M143.171 106.397C144.465 106.397 145.514 103.783 145.514 100.558C145.514 97.3338 144.465 94.7198 143.171 94.7198C141.876 94.7198 140.827 97.3338 140.827 100.558C140.827 103.783 141.876 106.397 143.171 106.397Z" fill="#161616"/>
<path d="M169.625 106.397C170.919 106.397 171.968 103.783 171.968 100.558C171.968 97.3338 170.919 94.7198 169.625 94.7198C168.33 94.7198 167.281 97.3338 167.281 100.558C167.281 103.783 168.33 106.397 169.625 106.397Z" fill="#161616"/>
<path d="M513.496 299.723C500.631 298.378 489.938 297.348 482.294 296.634C426.296 291.394 440.191 294.362 427.233 292.396C420.272 291.338 411.259 289.72 399.67 291.825C388.727 293.81 384.002 297.566 382.035 299.347C377.045 303.878 374.976 309.202 373.504 312.99C370.762 320.053 370.581 326.022 370.488 330.177C370.39 334.666 370.316 337.921 371.764 341.882C373.509 346.668 376.475 349.765 379.05 352.181C385.502 358.223 392.672 363.45 400.399 367.745C430.064 383.447 421.687 380.066 432.775 385.251C451.03 393.747 469.783 401.131 488.931 407.362C489.785 404.204 491.01 399.919 492.644 394.892C494.711 388.257 497.151 381.743 499.953 375.383C502.693 369.276 505.821 363.351 509.319 357.644C502.135 354.616 495.693 351.718 495.911 351.11C496.217 350.257 509.18 354.82 526.593 358.795C549.854 364.114 561.484 366.776 573.319 363.622C577.426 362.528 599.772 356.017 604.353 337.87C608.187 322.752 597.294 309.118 595.999 307.555C581.097 289.474 548.132 286.469 513.496 299.723Z" fill="white"/>
<path opacity="0.23" d="M419.529 315.356C431.78 319.892 444.258 323.791 456.913 327.037C479.654 332.871 494.876 334.527 537.62 340.203C549.933 341.84 569.443 344.46 593.902 347.887C593.676 352.942 593.447 358 593.215 363.061C582.553 363.756 571.859 363.799 561.192 363.191C539.012 361.913 517.081 357.851 495.916 351.101L509.319 357.644C507.602 360.427 505.866 363.427 504.172 366.715C501.885 371.165 499.861 375.746 498.111 380.433L419.529 315.356Z" fill="#AAAAAA"/>
<path d="M492.249 394.869C494.642 394.984 497.022 395.27 499.373 395.727C503.578 396.543 507.727 397.346 510.976 399.901C513.76 402.09 514.331 404.33 516.545 408.897C518.791 413.535 521.186 417.069 525.925 424.131C530.566 431.046 528.709 427.095 541.588 442.927C543.514 445.297 546.345 448.817 549.478 448.39C550.188 448.287 550.863 448.018 551.448 447.603C552.033 447.189 552.511 446.642 552.843 446.006C553.891 443.808 552.378 441.086 551.914 440.298C547.491 432.103 547.046 422.258 543.379 413.697C539.057 403.485 535.474 392.976 532.659 382.251C529.094 380.734 526.115 379.705 524.073 379.056C517.32 376.894 513.737 376.57 506.799 374.042C504.52 373.212 502.696 372.443 501.541 371.932C498.444 379.584 495.346 387.23 492.249 394.869Z" fill="black"/>
<path d="M370.887 337.56C371.184 326.124 371.852 313.909 378.688 304.23C385.13 295.108 395.656 292.261 406.326 292.052C417.97 291.825 429.744 293.253 441.347 294.107C453.618 295.016 465.882 295.976 478.141 296.987C492.24 298.149 506.333 299.386 520.42 300.697C521.311 300.78 521.307 299.389 520.42 299.305C494.084 296.872 467.726 294.679 441.347 292.725C429.28 291.834 416.94 290.23 404.822 290.717C394.904 291.111 385.107 293.917 378.688 301.939C370.664 311.975 369.815 325.252 369.495 337.569C369.495 338.464 370.887 338.464 370.887 337.569V337.56Z" fill="#161616"/>
<path d="M369.764 338.789C375.444 354.751 391.646 363.548 405.5 371.515C422.235 381.147 439.555 389.814 457.521 396.924C462.61 398.939 467.749 400.821 472.938 402.567C475.599 403.461 478.272 404.317 480.958 405.136C482.168 405.504 483.379 405.863 484.592 406.212L486.62 406.792L487.432 407.019C487.721 407.162 488.038 407.236 488.36 407.236C488.682 407.236 489 407.162 489.288 407.019V408.002L489.432 407.835C490.008 407.154 489.024 406.166 488.444 406.852L488.304 407.019C488.176 407.151 488.105 407.327 488.105 407.511C488.105 407.694 488.176 407.871 488.304 408.002C489.827 409.394 490.973 407.075 489.149 406.087C487.325 405.099 484.596 404.756 482.536 404.139C479.98 403.376 477.435 402.577 474.901 401.742C464.826 398.417 454.945 394.554 445.236 390.255C435.726 386.04 426.398 381.407 417.251 376.463C408.549 371.761 399.824 366.929 391.595 361.433C382.94 355.655 374.692 348.448 371.11 338.404C370.813 337.564 369.467 337.94 369.768 338.77L369.764 338.789Z" fill="#161616"/>
<path d="M419.181 315.958C448.475 331.401 480.327 341.464 508.971 358.233L508.72 357.278C499.43 372.591 492.711 389.32 488.829 406.801C488.634 407.673 489.975 408.044 490.17 407.172C494.025 389.819 500.697 373.214 509.922 358.015C510.013 357.856 510.037 357.667 509.99 357.489C509.943 357.312 509.829 357.159 509.672 357.065C481.032 340.319 449.176 330.232 419.882 314.79C419.088 314.372 418.388 315.574 419.181 315.991V315.958Z" fill="#161616"/>
<path d="M497.721 352.033C528.535 361.889 560.93 365.865 593.215 363.752C594.106 363.692 594.115 362.3 593.215 362.361C561.049 364.469 528.774 360.511 498.074 350.693C497.22 350.419 496.853 351.76 497.703 352.033H497.721Z" fill="#161616"/>
<path d="M501.763 373.324L525.326 380.159C526.927 380.623 528.575 380.999 530.139 381.583C532.654 382.51 533.262 384.435 534.009 386.758C535.247 390.586 536.475 394.41 537.694 398.231C542.691 413.822 547.692 429.412 552.699 445C552.968 445.849 554.314 445.464 554.04 444.629L537.903 394.331C536.766 390.788 535.963 386.86 534.329 383.512C532.965 380.73 530.217 380.127 527.442 379.338L502.135 371.993C501.272 371.742 500.905 373.087 501.763 373.338V373.324Z" fill="#161616"/>
<path d="M492.249 395.565C496.909 395.807 501.512 396.695 505.926 398.204C508.034 398.932 510.062 399.748 511.551 401.45C513.041 403.152 513.895 405.327 514.911 407.302C518.638 414.517 522.95 421.414 527.804 427.925C532.506 434.291 537.733 440.253 543.431 445.747C545.324 447.555 547.974 449.837 550.81 448.849C552.973 448.098 554.212 445.867 553.228 443.748C552.847 442.941 551.65 443.646 552.026 444.453C553.228 447.013 549.77 447.931 548.253 447.458C547.23 447.074 546.293 446.493 545.496 445.747C544.103 444.569 542.855 443.224 541.593 441.925C539.173 439.452 536.853 436.892 534.631 434.246C529.939 428.702 525.664 422.82 521.841 416.647C519.947 413.595 518.168 410.476 516.503 407.288C515.079 404.566 513.9 401.413 511.482 399.405C509.194 397.485 505.954 396.622 503.128 395.857C499.578 394.909 495.938 394.337 492.268 394.15C491.372 394.099 491.377 395.491 492.268 395.542L492.249 395.565Z" fill="#161616"/>
<path d="M533.192 395.588C531.842 396.863 529.823 398.797 527.438 401.218C522.332 406.398 519.39 409.941 513.705 416.818C508.02 423.696 506.957 425.379 507.04 427.721C507.166 431.078 509.449 433.286 512.359 436.397C517.385 441.731 521.46 447.926 526.63 453.12C533.875 460.401 541.064 467.677 549.334 476.02C547.983 468.901 546.252 461.277 544.025 453.259C541.496 444.168 538.508 435.211 535.072 426.422C536.585 423.86 538.385 421.478 540.437 419.322C541.774 417.931 543.045 416.8 549.315 411.875C551.71 409.992 553.729 408.424 555.209 407.279C556.996 403.226 556.24 400.819 555.854 399.915C553.71 394.846 544.461 392.226 533.192 395.588Z" fill="black"/>
<path d="M516.281 391.887C518.091 388.641 520.68 384.18 524.045 379.065C529.438 370.87 535.569 362.866 545.955 351.375C553.896 342.596 562.784 332.76 576.456 320.73C604.079 296.426 614.628 295.359 618.443 295.187C621.191 295.067 629.712 294.793 638.168 299.908C640.952 301.596 648.034 305.881 650.174 313.946C651.195 317.804 650.889 321.788 648.782 328.034C644.066 342.03 635.699 351.389 633.327 354.05C613.835 375.958 665.986 320.364 602.232 391.451C590.036 405.053 579.612 416.582 571.629 425.379C568.58 421.186 565.209 417.236 561.549 413.563C555.831 407.831 548.401 400.374 536.659 395.801C530.155 393.289 523.253 391.963 516.281 391.887Z" fill="white"/>
<path opacity="0.14" d="M639.342 300.766C638.965 306.251 637.991 311.678 636.437 316.951C633.865 325.651 629.586 334.3 621.441 344.822C610.424 359.059 588.054 382.251 556.695 408.819C562.622 413.68 567.443 419.75 570.836 426.622C573.903 423.134 579.491 416.8 586.541 408.907C602.543 390.978 617.172 371.867 633.332 354.055C639.644 346.659 644.717 338.292 648.355 329.277C650.35 324.329 651.26 320.721 650.675 316.636C649.38 307.801 641.922 302.459 639.342 300.766Z" fill="#AAAAAA"/>
<path d="M516.721 391.034C527.779 374.084 540.302 358.135 554.147 343.37C560.994 336.08 568.149 329.09 575.611 322.4C583.088 315.703 590.783 308.91 599.239 303.461C607.903 297.896 618.452 293.898 628.853 296.37C634.014 297.594 638.293 300.544 642.214 304.026C646.136 307.509 649.575 311.534 650.002 317.011C650.8 327.167 643.839 337.068 638.567 345.174C632.763 353.971 626.445 362.418 619.645 370.472C604.102 389.133 587.39 406.857 571.123 424.887C570.529 425.551 571.509 426.538 572.112 425.87C587.632 408.666 603.504 391.711 618.476 374.019C625.507 365.829 632.073 357.252 638.144 348.328C643.63 340.147 650.211 330.854 651.302 320.8C652.388 310.871 645.305 303.716 637.541 298.651C629.15 293.179 618.652 293.263 609.477 296.662C599.805 300.242 591.655 306.934 583.826 313.463C575.723 320.219 567.941 327.329 560.482 334.796C543.625 351.716 528.553 370.324 515.506 390.324C515.014 391.076 516.22 391.776 516.708 391.025L516.721 391.034Z" fill="#161616"/>
<path d="M516.281 392.583C538.929 392.908 560.37 406.607 570.237 426.97C570.627 427.777 571.824 427.072 571.439 426.269C561.368 405.475 539.388 391.526 516.281 391.192C515.385 391.192 515.385 392.583 516.281 392.583Z" fill="#161616"/>
<path d="M532.7 395.096C527.47 400.006 522.512 405.199 517.849 410.65C515.714 413.155 513.644 415.713 511.64 418.325C509.751 420.783 506.961 423.594 506.414 426.756C505.996 429.172 507.374 431.236 508.781 433.059C511.078 436.017 513.477 438.911 515.877 441.786C520.62 447.469 525.507 453.034 530.538 458.481C536.259 464.664 542.154 470.67 548.225 476.497C548.87 477.119 549.854 476.136 549.209 475.514C536.76 463.544 525.033 450.846 514.09 437.487C511.398 434.195 506.07 429.761 508.488 425.133C510.461 421.354 513.714 417.871 516.378 414.588C521.73 408.067 527.499 401.898 533.647 396.121C534.302 395.505 533.318 394.521 532.663 395.138L532.7 395.096Z" fill="#161616"/>
<path d="M554.857 406.671C549.288 410.895 543.882 415.327 538.641 419.967C536.891 421.525 534.213 423.213 534.2 425.847C534.2 427.155 534.859 428.532 535.272 429.734C535.847 431.397 536.421 433.063 536.993 434.733C541.672 448.325 546.201 462.01 548.661 476.205C548.814 477.087 550.155 476.715 550.002 475.834C547.798 463.095 543.922 450.755 539.764 438.531C538.725 435.475 537.666 432.419 536.617 429.363C535.972 427.508 535.132 425.815 536.376 423.96C537.212 422.708 538.845 421.641 539.954 420.658C544.991 416.197 550.193 411.935 555.558 407.873C556.263 407.335 555.558 406.129 554.857 406.671Z" fill="#161616"/>
<path d="M517.543 174.79C514.909 176.165 512.467 177.881 510.28 179.891C504.168 185.521 501.833 191.948 499.87 197.263C489.929 224.225 491.131 218.651 489.196 225.408C484.787 240.79 484.42 249.244 478.415 251.438C476.28 252.217 474.029 251.989 471.161 251.697C466.546 251.181 462.116 249.593 458.226 247.06C449.872 241.889 445.732 234.409 444.354 231.64C440.497 223.882 442.651 221.633 437.806 212.599C434.144 205.768 431.155 203.788 429.823 203.004C424.695 200.018 419.613 200.709 417.45 201.001C415.459 201.27 412.916 201.65 412.141 203.422C411.426 205.045 412.605 206.946 412.86 207.377C415.269 211.305 421.274 211.087 421.915 211.064C421.451 210.976 413.631 209.738 410.038 214.278C408.298 216.481 407.755 219.778 407.574 220.872C407.348 222.373 407.286 223.894 407.388 225.408C407.421 225.927 407.546 227.55 408.465 230.931C409.551 234.919 410.094 236.913 411.412 238.351C412.159 239.176 413.928 241.133 416.253 240.823C418.081 240.591 419.218 239.102 419.548 238.638C421.743 239.348 423.725 240.03 425.396 240.609C428.844 241.824 429.721 242.214 430.57 243.011C432.371 244.699 432.659 246.907 432.988 248.442C433.67 251.632 435.569 254.526 439.356 260.323C441.556 263.681 445.041 269.004 451.543 273.405C456.202 276.507 461.464 278.593 466.984 279.527C476.465 281.15 483.877 278.91 487.404 277.806C492.125 276.246 496.597 274.016 500.682 271.184C504.773 268.267 508.487 264.854 511.737 261.023C518.299 253.014 518.541 246.211 523.655 224.132C529.192 200.194 532.06 194.564 528.296 186.481C525.502 180.573 520.857 176.9 517.543 174.79Z" fill="white"/>
<path opacity="0.29" d="M410.878 235.55C414.159 236.525 417.631 236.66 420.977 235.944C425.52 234.908 429.582 232.377 432.51 228.756C433.159 232.756 434.194 236.684 435.601 240.484C438.028 247.027 442.461 258.992 454.133 266.097C456.838 267.748 465.48 273.006 476.062 271.346C487.223 269.589 493.869 261.186 501.699 251.285C509.217 241.773 512.888 233.31 517.139 223.511C520.819 215.029 525.595 204.034 527.41 192.213C527.605 190.947 527.735 189.894 527.948 189.894C528.932 189.894 532.589 212.743 526.403 236.802C524.732 243.294 523.316 248.623 519.302 254.702C513.05 264.167 504.799 268.981 499.234 272.144C492.802 275.798 486.741 279.244 477.885 279.893C464.928 280.821 455.307 275.098 452.262 273.22C443.672 267.928 439.133 261.084 436.2 256.553C433.16 251.855 430.77 246.768 429.094 241.43C424.918 239.408 421.715 239.315 419.562 239.621C416.944 239.988 415.097 241.054 413.329 240.085C411.728 239.195 411.124 237.117 410.878 235.55Z" fill="#AAAAAA"/>
<path d="M521.817 173.932C515.014 172.865 510.006 178.477 506.604 183.629C502.186 190.311 498.747 197.583 495.772 205.003C492.695 212.678 490.124 220.543 487.446 228.366C486.146 232.16 484.828 235.944 483.413 239.691C481.96 243.54 480.689 249.212 477.041 251.567C476.289 252.031 476.99 253.255 477.742 252.769C480.433 251.03 481.547 248.131 482.712 245.27C484.225 241.56 485.613 237.813 486.949 234.043C489.53 226.734 491.897 219.356 494.556 212.08C497.262 204.66 500.274 197.356 504.107 190.451C507.495 184.352 512.999 173.951 521.446 175.277C522.323 175.411 522.699 174.071 521.817 173.932Z" fill="#161616"/>
<path d="M423.024 210.637C420.55 210.323 418.144 209.602 415.905 208.504C414.872 208.06 413.928 207.431 413.12 206.649C411.728 205.1 412.767 203.403 414.41 202.656C417.905 201.029 422.073 200.982 425.73 202.035C429.313 203.03 432.472 205.17 434.724 208.129C437.509 211.908 438.219 216.694 439.397 221.113C442.182 231.469 448.406 241.625 457.562 247.436C463.484 251.196 470.427 252.769 477.389 252.838C477.573 252.838 477.751 252.765 477.881 252.634C478.012 252.504 478.085 252.327 478.085 252.143C478.085 251.958 478.012 251.781 477.881 251.651C477.751 251.52 477.573 251.447 477.389 251.447C469.402 251.368 461.609 249.179 455.316 244.129C449.552 239.492 445.343 233.055 442.586 226.242C440.075 220.028 439.885 212.655 435.773 207.196C431.489 201.525 423.706 198.784 416.814 200.384C414.09 201.015 409.444 202.846 411.245 206.468C413.101 210.178 419.358 211.509 423.001 211.987C423.887 212.103 423.878 210.707 423.001 210.596L423.024 210.637Z" fill="#161616"/>
<path d="M421.906 210.354C417.209 210.874 403.806 212.766 406.678 220.506C409.639 228.529 420.184 225.992 425.934 223.506C426.755 223.154 426.05 221.953 425.233 222.305C420.128 224.503 411.551 226.943 408.228 220.575C404.789 213.986 418.151 212.158 421.906 211.764C422.787 211.667 422.797 210.271 421.906 210.373V210.354Z" fill="#161616"/>
<path d="M413.677 219.537C417.148 218.405 424.695 216.814 424.713 222.736C424.713 222.921 424.787 223.098 424.917 223.228C425.048 223.359 425.225 223.432 425.409 223.432C425.594 223.432 425.771 223.359 425.902 223.228C426.032 223.098 426.106 222.921 426.106 222.736C426.106 220.32 424.565 218.391 422.356 217.478C419.418 216.253 416.169 217.26 413.306 218.192C412.461 218.47 412.842 219.815 413.677 219.537Z" fill="#161616"/>
<path d="M406.896 220.677C404.989 225.607 408.669 230.569 413.635 231.371C418.332 232.127 424.286 229.581 424.983 224.415C425.103 223.539 423.762 223.158 423.641 224.044C422.342 233.658 404.441 230.884 408.238 221.044C408.558 220.209 407.212 219.847 406.896 220.677Z" fill="#161616"/>
<path d="M408.326 228.185C407.925 229.148 407.752 230.189 407.818 231.229C407.884 232.269 408.189 233.279 408.708 234.183C409.227 235.087 409.948 235.859 410.813 236.44C411.679 237.021 412.667 237.396 413.7 237.535C418.699 238.193 422.411 233.903 422.235 229.131C422.203 228.241 420.81 228.236 420.843 229.131C420.982 232.892 418.378 236.38 414.345 236.208C410.312 236.037 408.187 232.035 409.653 228.538C409.997 227.712 408.651 227.355 408.307 228.167L408.326 228.185Z" fill="#161616"/>
<path d="M410.182 235.55C409.76 238.898 412.902 241.894 416.243 241.514C419.687 241.119 421.813 237.678 421.78 234.437C421.78 234.252 421.707 234.075 421.576 233.945C421.446 233.814 421.269 233.741 421.084 233.741C420.899 233.741 420.722 233.814 420.592 233.945C420.461 234.075 420.388 234.252 420.388 234.437C420.416 236.825 419.065 239.417 416.592 240.039C413.849 240.734 411.231 238.267 411.575 235.55C411.686 234.664 410.289 234.669 410.182 235.55Z" fill="#161616"/>
<path d="M419.395 240.266C422.11 240.73 425.201 240.897 427.823 241.745C430.445 242.594 431.229 246.258 432.283 248.581C434.172 252.848 436.383 256.966 438.896 260.898C443.89 268.545 450.559 274.922 459.21 278.186C477.737 285.18 499.81 277.022 511.881 261.923C515.385 257.536 517.622 252.411 519.409 247.125C521.469 241.013 523.237 234.785 525.015 228.575C525.058 228.399 525.031 228.214 524.939 228.058C524.848 227.902 524.699 227.787 524.524 227.739C524.35 227.691 524.164 227.712 524.005 227.799C523.846 227.886 523.727 228.031 523.674 228.204C522.161 233.486 520.606 238.759 518.958 243.999C517.371 249.035 515.58 254.076 512.651 258.51C507.142 266.857 497.976 273.234 488.653 276.596C479.329 279.958 468.928 280.352 459.577 276.818C450.434 273.363 443.686 266.222 438.738 257.995C436.192 253.65 433.942 249.139 432.004 244.491C431.299 242.849 430.663 241.268 428.886 240.572C426.157 239.501 422.653 239.399 419.766 238.898C418.889 238.745 418.513 240.085 419.395 240.238V240.266Z" fill="#161616"/>
<path d="M548.137 156.291C534.394 160.205 525.108 169.244 522.272 172.058C516.973 177.351 512.601 183.494 509.338 190.233C501.963 205.406 502.204 219.356 502.409 226.567C502.696 236.621 504.474 241.49 507.026 253.344C510.296 268.626 512.458 284.125 513.496 299.718C518.889 304.383 528.881 311.609 543.059 314.558C548.837 315.754 566.835 319.478 584.169 308.821C590.633 304.793 596.148 299.414 600.334 293.054C603.42 260.128 605.973 232.457 608.651 204.126C609.695 193.043 610.651 183.012 604.938 173.519C594.491 156.082 567.74 150.703 548.137 156.291Z" fill="#EC615B"/>
<path d="M596.366 173.422C594.51 173.96 592.653 175.801 590.286 184.385C588.287 191.583 587.182 199 586.996 206.468C586.792 220.2 587.246 230.861 587.506 236.394C588.527 258.023 589.516 263.592 591.303 269.449C592.291 272.696 594.82 278.479 596.663 282.805C599.058 288.421 601.188 293.008 602.696 296.166C601.302 297.843 599.735 299.369 598.023 300.72C594.106 303.79 591.567 304.221 588.606 307.676C587.752 308.668 585.757 310.987 586.453 312.225C587.089 313.348 589.646 313.023 590.412 312.926C593.447 312.536 594.463 311.033 597.54 309.944C599.302 309.333 601.157 309.036 603.021 309.067C602.015 311.946 600.824 314.758 599.457 317.484C597.266 321.843 594.816 324.139 590.453 331.183C587.933 335.236 587.126 336.943 587.775 337.754C588.75 338.965 592.416 337.458 592.658 337.36C595.906 336.006 597.605 333.539 598.775 331.981C601.517 328.35 604.628 325.012 608.057 322.02C606.395 326.328 604.808 329.699 603.713 331.921C602.204 334.958 600.237 338.58 597.846 343.931C595.456 349.283 595.118 350.888 595.702 351.351C596.436 351.964 598.431 350.8 600.083 349.654C600.487 350.503 601.267 351.801 602.534 352.061C604.209 352.409 605.806 350.735 607.11 349.334C612.261 343.802 614.833 341.038 617.937 337.314C619.33 335.663 621.367 333.298 624.073 330.566C624.24 332.681 624.328 334.995 624.282 337.485C624.198 342.188 622.783 344.725 623.72 345.3C624.658 345.875 626.848 344.233 628.162 342.392C629.726 340.194 629.869 337.824 629.92 335.436C630.064 328.744 629.415 324.816 629.136 319.024C628.932 314.776 629.02 311.516 629.043 310.769C629.299 302.477 630.389 301.239 629.832 295.929C629.229 290.193 627.512 287.225 626.876 286.223C625.838 284.572 624.553 283.09 623.066 281.827C623.348 280.498 623.36 279.126 623.103 277.792C622.569 275.116 621.079 273.683 619.251 270.989C617.878 268.955 616.701 266.797 615.733 264.543C616.081 262.461 616.54 259.312 616.824 255.458C617.245 249.221 617.105 242.959 616.406 236.746C615.255 224.689 613.737 212.631 612.693 200.537C611.816 190.516 611.63 185.442 607.648 180.165C607.175 179.567 601.323 171.975 596.366 173.422Z" fill="white"/>
<path opacity="0.22" d="M605.885 178.115C606.937 186.54 607.865 195.196 608.669 204.085C610.479 224.786 611.273 244.5 611.329 263.078C613.776 265.588 615.874 268.416 617.566 271.485C618.777 273.688 620.434 276.656 621.279 280.909C621.469 281.901 621.488 282.3 621.692 283.914C622.379 289.321 623.21 293.151 623.548 294.951C624.555 300.21 625.595 310.287 625.693 320.41C625.766 328.754 625.176 337.091 623.929 345.341C625.558 344.52 627.86 343.023 629.215 340.379C630.607 337.638 630.282 335.102 629.92 331.22C629.92 331.22 629.229 323.8 629.067 316.816C628.886 309.322 629.995 308.469 629.814 301.708C629.647 294.552 629.35 291.533 628.087 288.514C627.093 286.188 625.724 284.04 624.036 282.156C623.538 275.895 620.837 270.013 616.41 265.554C616.605 262.748 616.847 258.542 616.958 253.432C617.181 243.197 617.464 226.252 613.459 205.666C611.626 196.306 609.094 187.097 605.885 178.115Z" fill="#AAAAAA"/>
<path d="M597.721 172.754C605.75 174.762 608.734 183.072 610.192 190.335C611.811 198.413 612.976 206.617 613.904 214.802C615.756 231.2 616.434 247.71 615.933 264.205C615.905 265.1 617.297 265.095 617.325 264.205C617.865 246.208 616.999 228.198 614.735 210.336C613.672 201.989 612.772 193.284 610.373 185.21C608.516 179.024 604.687 173.065 598.074 171.414C597.201 171.196 596.835 172.536 597.703 172.754H597.721Z" fill="#161616"/>
<path d="M611.124 263.769C618.759 266.087 621.701 273.943 623.098 281.08C623.27 281.957 624.616 281.586 624.444 280.709C622.945 273.053 619.617 264.909 611.496 262.424C610.637 262.164 610.27 263.504 611.124 263.769Z" fill="#161616"/>
<path d="M616.67 280.528C622.291 280.691 626.273 285.337 628.022 290.327C630.097 296.235 628.983 302.719 628.486 308.794C627.985 314.776 628.626 320.563 629.122 326.523C629.429 329.484 629.46 332.468 629.215 335.436C628.964 337.87 627.749 345.786 623.896 344.609L624.407 345.281C625.005 340.393 625.123 335.459 624.76 330.548C624.695 329.662 623.302 329.653 623.367 330.548C623.73 335.459 623.612 340.393 623.015 345.281C623.016 345.433 623.066 345.58 623.159 345.7C623.251 345.82 623.379 345.908 623.525 345.949C629.484 347.767 630.654 336.646 630.761 333.043C630.993 325.215 629.215 317.535 629.805 309.689C630.338 302.57 631.749 295.016 628.695 288.254C626.486 283.353 622.281 279.299 616.68 279.137C615.784 279.109 615.784 280.501 616.68 280.528H616.67Z" fill="#161616"/>
<path d="M615.932 279.234C611.472 282.689 608.307 287.331 604.989 291.825C603.279 294.232 601.379 296.5 599.308 298.605C596.853 301.007 593.99 302.904 591.196 304.88C589.261 306.248 582.489 310.802 586.736 313.607C588.787 314.961 591.952 313.088 593.897 312.388L603.824 308.821C604.659 308.52 604.288 307.175 603.453 307.476L595.596 310.301L591.883 311.641C591.224 311.877 590.56 312.151 589.892 312.346C589.4 312.53 588.884 312.64 588.36 312.67L586.968 311.135C586.406 309.053 591.934 306.071 593.261 305.144C595.224 303.822 597.115 302.398 598.928 300.877C605.889 294.821 609.602 285.903 616.949 280.218C617.654 279.67 616.661 278.692 615.96 279.234H615.932Z" fill="#161616"/>
<path d="M602.344 308.863C600.9 314.312 597.832 318.987 594.658 323.573C593.075 325.864 591.465 328.146 590.017 330.529C588.954 332.287 586.982 334.856 586.945 336.989C586.87 341.33 593.488 337.745 594.904 336.581C599.958 332.407 604.437 327.283 608.799 322.418C609.393 321.755 608.414 320.767 607.815 321.435C604.276 325.38 600.609 329.203 596.816 332.904C595.011 334.661 593.052 336.878 590.509 337.504C589.27 337.81 588.374 337.42 588.601 336.215C588.808 335.564 589.095 334.94 589.455 334.36C589.947 333.395 590.481 332.454 591.033 331.522C595.438 324.167 601.443 317.679 603.685 309.216C603.728 309.04 603.701 308.854 603.609 308.698C603.518 308.542 603.369 308.428 603.194 308.38C603.02 308.331 602.833 308.353 602.675 308.44C602.516 308.526 602.397 308.672 602.344 308.845V308.863Z" fill="#161616"/>
<path d="M607.439 321.649L598.816 340.625C597.614 343.273 596.092 345.944 595.173 348.703C594.76 349.951 594.528 351.681 595.814 352.497C597.401 353.499 598.919 352.033 599.907 350.897C602.051 348.448 604.084 345.884 606.075 343.319C609.943 338.339 613.589 333.221 617.014 327.965C617.506 327.214 616.299 326.513 615.812 327.265C613.185 331.284 610.434 335.235 607.56 339.118C605.985 341.226 604.372 343.305 602.72 345.355C601.915 346.348 601.106 347.334 600.292 348.314C599.93 348.745 599.568 349.181 599.197 349.612C598.468 350.452 598.441 350.795 597.201 350.628C595.962 350.461 596.148 350.373 596.436 349.357C596.649 348.734 596.906 348.126 597.206 347.539C597.763 346.297 598.334 345.063 598.895 343.829L602.079 336.818L608.642 322.377C609.008 321.57 607.811 320.86 607.439 321.676V321.649Z" fill="#161616"/>
<path d="M599.763 351.996C604.293 354.82 608.711 348.75 611.366 345.93C615.687 341.312 619.673 336.391 623.293 331.206C623.808 330.474 622.602 329.773 622.091 330.506C619.176 334.678 616.02 338.676 612.637 342.48C611.063 344.248 609.441 345.97 607.774 347.646C605.917 349.501 603.309 352.58 600.45 350.795C599.689 350.331 598.988 351.523 599.749 351.996H599.763Z" fill="#161616"/>
<path d="M597.322 171.683C591.813 176.042 589.599 182.924 588.337 189.583C586.709 198.547 585.922 207.644 585.989 216.754C585.989 226.057 586.634 235.346 587.539 244.579C588.397 253.311 588.857 262.438 590.945 270.984C593.173 280.083 599.721 287.28 602.023 296.319C602.241 297.186 603.587 296.82 603.365 295.948C601.466 288.528 596.617 282.425 593.79 275.371C590.569 267.33 590.347 258.041 589.437 249.513C587.543 231.719 586.276 213.647 588.722 195.839C589.855 187.599 591.377 178.124 598.306 172.652C599.011 172.1 598.018 171.122 597.322 171.669V171.683Z" fill="#161616"/>
<path d="M527.076 70.7071C516.916 79.2261 513.844 90.1334 512.085 96.38C507.309 113.339 511.213 127.293 514.656 139.601C518.726 154.153 521.019 162.362 528.788 166.132C540.483 171.813 554.722 162.64 556.722 161.309C558.453 162.512 560.513 163.15 562.621 163.136C564.083 163.085 570.177 162.478 579.329 143.881C585.186 131.977 588.755 124.715 589.609 113.497C590.073 107.542 591.317 90.996 580.614 76.2674C577.649 72.1865 572.339 64.8825 562.63 61.7198C545.087 56.0111 529.146 68.9866 527.076 70.7071Z" fill="white"/>
<path opacity="0.17" d="M557.6 72.3905C561.21 80.0763 563.56 88.292 564.561 96.7232C565.561 106.139 564.972 115.656 562.821 124.877C560.82 133.603 557.494 141.972 552.959 149.692L559.345 150.944C559.47 152.368 560.31 160.78 565.048 162.538C570.432 164.513 577.301 156.546 580.911 152.335C584.118 148.625 591.381 139.953 593.442 126.268C596.287 107.278 586.908 93.1987 582.304 86.2936C578.466 80.5292 572.019 70.8509 563.169 70.99C561.232 71.0449 559.331 71.5229 557.6 72.3905Z" fill="#AAAAAA"/>
<path d="M552.016 65.9723C554.362 79.115 561.248 91.0185 571.476 99.6077C573.825 97.8547 576.813 97.3956 579.166 98.555C582.768 100.331 582.916 104.908 582.953 105.975C583.003 108.145 582.372 110.276 581.148 112.069C577.635 117.105 570.757 116.673 570.325 116.641C565.539 124.068 562.717 132.587 562.125 141.4C561.702 148.241 561.057 158.689 567.62 166.257C577.477 177.637 599.977 178.342 609.737 167.82C620.522 156.189 612.178 134.704 608.697 125.73C603.411 112.11 598.673 112.555 596.217 100.79C593.15 86.1081 599.308 79.5832 593.618 69.6173C588.3 60.3007 578.266 57.8429 577.5 57.6666C563.619 54.4807 552.782 65.1932 552.016 65.9723Z" fill="#E9C46A"/>
<path d="M565.021 63.8901C548.307 65.7914 532.412 72.1433 518.996 82.2822C516.23 90.5938 514.727 99.2725 514.536 108.029C514.406 114.554 514.262 121.585 517.269 130.206C518.768 134.504 522.142 143.779 531.192 150.722C533.189 152.253 535.334 153.58 537.597 154.682C540.505 154.116 543.519 153.444 546.637 152.665C548.321 152.238 549.964 151.796 551.566 151.338C552.889 152.437 558.444 157.284 557.832 163.187C557.131 169.944 548.819 173.413 543.273 175.731C539.012 177.507 522.114 184.542 510.837 176.153C504.404 171.363 503.086 163.994 501.091 152.739C497.248 131.212 500.659 130.345 502.135 106.499C503.485 84.6334 502.831 80.7843 506.813 74.2826C513.515 63.3475 525.034 59.3454 531.253 57.124C546.614 51.6658 565.907 51.9069 567.801 57.4904C568.274 58.9929 567.601 61.0473 565.021 63.8901Z" fill="#E9C46A"/>
<path d="M518.323 82.0967C514.452 96.7232 511.686 112.491 515.696 127.405C518.833 139.077 526.138 149.924 537.226 155.28C538.028 155.67 538.739 154.469 537.931 154.079C526.936 148.765 519.831 137.973 516.861 126.361C513.185 111.864 515.933 96.649 519.645 82.4677C519.677 82.2955 519.643 82.1177 519.55 81.9694C519.457 81.8211 519.311 81.713 519.142 81.6665C518.973 81.6199 518.793 81.6383 518.637 81.7179C518.481 81.7975 518.361 81.9327 518.299 82.0967H518.323Z" fill="#161616"/>
<path d="M537.991 155.062C542.829 154.745 547.541 153.392 551.808 151.093C556.076 148.795 559.798 145.606 562.723 141.743C563.266 141.029 562.06 140.352 561.521 141.039C558.729 144.701 555.185 147.724 551.126 149.903C547.067 152.082 542.589 153.367 537.991 153.671C537.1 153.731 537.096 155.123 537.991 155.062Z" fill="#161616"/>
<path d="M550.958 151.691C552.864 155.735 554.951 159.683 557.219 163.535C557.315 163.687 557.467 163.796 557.642 163.839C557.817 163.881 558.002 163.855 558.158 163.764C558.314 163.673 558.428 163.526 558.477 163.352C558.526 163.179 558.506 162.993 558.421 162.835C556.156 158.982 554.069 155.033 552.16 150.986C551.775 150.179 550.578 150.884 550.958 151.691Z" fill="#161616"/>
<path d="M531.373 94.4601C531.738 106.082 531.87 117.708 531.768 129.338C531.773 129.488 531.826 129.633 531.919 129.75C532.012 129.868 532.141 129.953 532.286 129.992C532.431 130.03 532.585 130.022 532.725 129.967C532.865 129.912 532.983 129.813 533.062 129.686C535.197 126.848 537.264 123.959 539.263 121.019C539.769 120.277 538.562 119.581 538.061 120.318C536.065 123.256 533.998 126.145 531.86 128.986L533.16 129.338C533.268 117.708 533.137 106.082 532.765 94.4601C532.738 93.5651 531.345 93.5605 531.373 94.4601Z" fill="#161616"/>
<path d="M534.251 138.567C537.618 138.729 540.958 137.891 543.849 136.157C546.74 134.424 549.053 131.874 550.494 128.828C550.87 128.021 549.668 127.316 549.287 128.128C547.968 130.961 545.832 133.336 543.153 134.948C540.474 136.56 537.374 137.336 534.251 137.176C533.355 137.129 533.355 138.52 534.251 138.567Z" fill="#161616"/>
<path d="M548.893 118.301C549.078 118.301 549.255 118.228 549.385 118.097C549.516 117.967 549.589 117.79 549.589 117.606C549.589 117.421 549.516 117.244 549.385 117.114C549.255 116.983 549.078 116.91 548.893 116.91C548.708 116.91 548.531 116.983 548.401 117.114C548.27 117.244 548.197 117.421 548.197 117.606C548.197 117.79 548.27 117.967 548.401 118.097C548.531 118.228 548.708 118.301 548.893 118.301Z" fill="#161616"/>
<path d="M554.346 116.961C554.531 116.961 554.708 116.888 554.838 116.757C554.969 116.627 555.042 116.45 555.042 116.265C555.042 116.081 554.969 115.904 554.838 115.774C554.708 115.643 554.531 115.57 554.346 115.57C554.162 115.57 553.984 115.643 553.854 115.774C553.723 115.904 553.65 116.081 553.65 116.265C553.65 116.45 553.723 116.627 553.854 116.757C553.984 116.888 554.162 116.961 554.346 116.961Z" fill="#161616"/>
<path d="M552.982 121.362C553.166 121.362 553.343 121.289 553.474 121.158C553.605 121.028 553.678 120.851 553.678 120.666C553.678 120.482 553.605 120.305 553.474 120.174C553.343 120.044 553.166 119.971 552.982 119.971C552.797 119.971 552.62 120.044 552.489 120.174C552.359 120.305 552.286 120.482 552.286 120.666C552.286 120.851 552.359 121.028 552.489 121.158C552.62 121.289 552.797 121.362 552.982 121.362Z" fill="#161616"/>
<path d="M521.636 123.407C521.821 123.407 521.998 123.334 522.129 123.203C522.259 123.073 522.332 122.896 522.332 122.711C522.332 122.527 522.259 122.35 522.129 122.22C521.998 122.089 521.821 122.016 521.636 122.016C521.452 122.016 521.275 122.089 521.144 122.22C521.014 122.35 520.94 122.527 520.94 122.711C520.94 122.896 521.014 123.073 521.144 123.203C521.275 123.334 521.452 123.407 521.636 123.407Z" fill="#161616"/>
<path d="M525.386 121.362C525.571 121.362 525.748 121.289 525.879 121.158C526.009 121.028 526.082 120.851 526.082 120.666C526.082 120.482 526.009 120.305 525.879 120.174C525.748 120.044 525.571 119.971 525.386 119.971C525.202 119.971 525.025 120.044 524.894 120.174C524.763 120.305 524.69 120.482 524.69 120.666C524.69 120.851 524.763 121.028 524.894 121.158C525.025 121.289 525.202 121.362 525.386 121.362Z" fill="#161616"/>
<path d="M524.704 126.129C524.889 126.129 525.066 126.056 525.196 125.925C525.327 125.795 525.4 125.618 525.4 125.434C525.4 125.249 525.327 125.072 525.196 124.942C525.066 124.811 524.889 124.738 524.704 124.738C524.519 124.738 524.342 124.811 524.212 124.942C524.081 125.072 524.008 125.249 524.008 125.434C524.008 125.618 524.081 125.795 524.212 125.925C524.342 126.056 524.519 126.129 524.704 126.129Z" fill="#161616"/>
<path d="M521.2 89.6882C521.563 89.054 522.069 88.5134 522.678 88.1097C523.287 87.706 523.983 87.4504 524.708 87.3634C525.434 87.2764 526.17 87.3604 526.858 87.6087C527.545 87.857 528.165 88.2626 528.667 88.7932C528.799 88.916 528.974 88.9829 529.154 88.9798C529.335 88.9766 529.507 88.9036 529.634 88.7761C529.762 88.6487 529.835 88.4767 529.838 88.2965C529.841 88.1163 529.774 87.9419 529.651 87.81C528.997 87.132 528.194 86.6151 527.305 86.3C526.416 85.985 525.467 85.8805 524.531 85.9947C523.595 86.1089 522.698 86.4387 521.912 86.9581C521.125 87.4775 520.47 88.1724 519.998 88.9879C519.534 89.7531 520.736 90.4534 521.2 89.6882Z" fill="#161616"/>
<path d="M543.24 85.7417C546.331 82.5743 551.2 82.9593 553.659 86.6692C554.151 87.4158 555.358 86.7156 554.861 85.969C551.914 81.5217 546.006 80.9049 542.256 84.7447C541.63 85.3893 542.614 86.3724 543.24 85.7278V85.7417Z" fill="#161616"/>
<path d="M569.764 102.752C571.434 99.8674 574.549 97.8779 577.95 98.8379C581.352 99.7978 582.443 103.165 582.234 106.36C581.84 112.365 576.609 116.98 570.511 115.964C569.634 115.816 569.253 117.156 570.14 117.304C578.029 118.617 584.401 111.994 583.599 104.217C583.227 100.702 581.004 97.8733 577.412 97.2982C573.699 96.7046 570.39 98.9213 568.594 102.047C568.501 102.206 568.474 102.396 568.521 102.575C568.567 102.754 568.683 102.906 568.842 103C569.002 103.093 569.192 103.12 569.371 103.073C569.55 103.027 569.703 102.911 569.796 102.752H569.764Z" fill="#161616"/>
<path d="M523.261 114.396C524.155 114.396 524.88 112.219 524.88 109.532C524.88 106.845 524.155 104.667 523.261 104.667C522.366 104.667 521.641 106.845 521.641 109.532C521.641 112.219 522.366 114.396 523.261 114.396Z" fill="#161616"/>
<path d="M548.893 112.217C549.788 112.217 550.513 110.039 550.513 107.352C550.513 104.666 549.788 102.488 548.893 102.488C547.998 102.488 547.273 104.666 547.273 107.352C547.273 110.039 547.998 112.217 548.893 112.217Z" fill="#161616"/>
</g>
<defs>
<clipPath id="clip0_23_489">
<rect width="668" height="478" fill="white"/>
</clipPath>
</defs>
</svg>
