<svg width="190" height="62" viewBox="0 0 190 62" fill="none" xmlns="http://www.w3.org/2000/svg">
<path d="M14.352 51.72C11.984 51.72 9.808 51.464 7.824 50.952C5.84 50.408 4.352 49.88 3.36 49.368L4.08 40.68L7.776 40.968L7.824 43.944C7.824 44.104 7.888 44.424 8.016 44.904C8.176 45.352 8.352 45.848 8.544 46.392C8.736 46.904 8.896 47.368 9.024 47.784C9.184 48.2 9.28 48.472 9.312 48.6L6.288 45.384C7.28 45.864 8.416 46.376 9.696 46.92C11.008 47.432 12.432 47.688 13.968 47.688C15.536 47.688 16.832 47.288 17.856 46.488C18.912 45.688 19.44 44.52 19.44 42.984C19.44 41.736 19.056 40.712 18.288 39.912C17.52 39.08 16.544 38.344 15.36 37.704C14.208 37.064 12.96 36.424 11.616 35.784C10.272 35.144 9.008 34.392 7.824 33.528C6.672 32.664 5.712 31.608 4.944 30.36C4.176 29.112 3.792 27.576 3.792 25.752C3.792 23.8 4.272 22.136 5.232 20.76C6.192 19.352 7.488 18.28 9.12 17.544C10.784 16.808 12.672 16.44 14.784 16.44C16.384 16.44 18.08 16.6 19.872 16.92C21.696 17.24 23.424 17.64 25.056 18.12L24.384 26.664L20.976 26.424L20.88 23.784C20.88 23.624 20.8 23.288 20.64 22.776C20.512 22.264 20.336 21.688 20.112 21.048C19.92 20.408 19.712 19.832 19.488 19.32L22.848 22.488C21.856 21.976 20.736 21.48 19.488 21C18.24 20.488 16.976 20.232 15.696 20.232C14.224 20.232 13.008 20.632 12.048 21.432C11.12 22.2 10.656 23.272 10.656 24.648C10.656 25.8 11.024 26.776 11.76 27.576C12.528 28.344 13.504 29.032 14.688 29.64C15.904 30.248 17.168 30.888 18.48 31.56C19.824 32.2 21.088 32.952 22.272 33.816C23.488 34.648 24.464 35.688 25.2 36.936C25.968 38.184 26.352 39.72 26.352 41.544C26.352 43.72 25.808 45.576 24.72 47.112C23.664 48.616 22.224 49.768 20.4 50.568C18.608 51.336 16.592 51.72 14.352 51.72ZM32.2695 51.24L32.0295 48.216L37.9815 47.112L35.1015 49.8C35.1975 49.288 35.2935 48.648 35.3895 47.88C35.4855 47.08 35.5815 46.28 35.6775 45.48C35.7735 44.68 35.8215 44.056 35.8215 43.608V24.552C35.8215 24.104 35.7735 23.544 35.6775 22.872C35.6135 22.2 35.5175 21.512 35.3895 20.808C35.2935 20.072 35.1975 19.448 35.1015 18.936L37.9815 21.192L32.0775 20.184L32.3175 16.92C32.8935 16.952 33.5495 16.984 34.2855 17.016C35.0215 17.048 35.7255 17.08 36.3975 17.112C37.0695 17.144 37.6135 17.16 38.0295 17.16L42.7335 18.84C42.6695 19.448 42.5895 20.152 42.4935 20.952C42.4295 21.752 42.3655 22.584 42.3015 23.448C42.2375 24.312 42.2055 25.16 42.2055 25.992V42.168C42.2055 43.032 42.2375 43.976 42.3015 45C42.3975 46.024 42.5095 46.968 42.6375 47.832C42.7655 48.696 42.8615 49.352 42.9255 49.8L40.0935 47.352L46.6695 47.88L46.3815 51H39.2295C38.7815 51 38.1575 51.016 37.3575 51.048C36.5575 51.08 35.7095 51.112 34.8135 51.144C33.9175 51.176 33.0695 51.208 32.2695 51.24ZM45.4695 37.656C44.6055 37.656 43.5975 37.656 42.4455 37.656C41.2935 37.656 39.7255 37.64 37.7415 37.608V34.056C38.7655 34.088 39.7895 34.136 40.8135 34.2C41.8695 34.232 42.8935 34.248 43.8855 34.248C46.1895 34.248 48.0135 33.64 49.3575 32.424C50.7335 31.208 51.4215 29.432 51.4215 27.096C51.4215 24.824 50.8295 23.128 49.6455 22.008C48.4615 20.888 46.7175 20.328 44.4135 20.328C43.9335 20.328 43.2775 20.36 42.4455 20.424C41.6455 20.456 40.8295 20.504 39.9975 20.568C39.1975 20.632 38.5415 20.696 38.0295 20.76V17.16C39.3415 17.16 40.8135 17.128 42.4455 17.064C44.1095 16.968 45.5975 16.92 46.9095 16.92C50.2375 16.92 52.9255 17.8 54.9735 19.56C57.0215 21.32 58.0455 23.832 58.0455 27.096C58.0455 29.304 57.4535 31.208 56.2695 32.808C55.0855 34.376 53.5335 35.576 51.6135 36.408C49.7255 37.24 47.6775 37.656 45.4695 37.656ZM63.4883 51.24L63.2483 48.216L69.2003 47.112L66.3203 49.32C66.3843 48.936 66.4643 48.376 66.5603 47.64C66.6883 46.904 66.8003 46.152 66.8963 45.384C66.9923 44.616 67.0403 44.024 67.0403 43.608V24.552C67.0403 24.2 66.9923 23.688 66.8963 23.016C66.8323 22.344 66.7523 21.624 66.6562 20.856C66.5603 20.088 66.4643 19.384 66.3683 18.744L69.2003 21.192L63.2963 20.184L63.5363 16.92C64.1123 16.952 64.7683 16.984 65.5043 17.016C66.2403 17.048 66.9443 17.08 67.6163 17.112C68.2883 17.144 68.8323 17.16 69.2483 17.16H80.7683C81.0563 17.16 81.5203 17.16 82.1603 17.16C82.8003 17.128 83.4883 17.096 84.2243 17.064C84.9603 17 85.6323 16.952 86.2403 16.92L87.1523 17.784L87.4883 24.648L84.2723 24.888L83.9363 22.536C83.9043 22.248 83.6963 21.688 83.3123 20.856C82.9283 20.024 82.5603 19.288 82.2083 18.648L84.7523 20.952C84.1443 20.888 83.3443 20.824 82.3523 20.76C81.3603 20.696 80.3843 20.664 79.4243 20.664H71.1683L73.8563 19.416C73.7923 20.152 73.7283 20.952 73.6643 21.816C73.6003 22.68 73.5363 23.496 73.4723 24.264C73.4403 25 73.4243 25.576 73.4243 25.992V42.168C73.4243 42.776 73.4563 43.544 73.5203 44.472C73.5843 45.4 73.6643 46.28 73.7603 47.112C73.8563 47.912 73.9203 48.52 73.9523 48.936L71.9843 47.304H80.0003C81.0243 47.304 81.9843 47.224 82.8803 47.064C83.8083 46.904 84.4643 46.776 84.8483 46.68L82.4003 48.984C83.0083 48.28 83.5363 47.544 83.9843 46.776C84.4323 45.976 84.7043 45.368 84.8003 44.952L85.4243 42.024L88.5443 42.264L87.8243 50.328L86.9123 51.192C86.3043 51.16 85.6483 51.128 84.9443 51.096C84.2723 51.064 83.6163 51.032 82.9763 51C82.3683 51 81.8563 51 81.4403 51H70.4483C70.0003 51 69.3763 51 68.5763 51C67.7763 51.032 66.9283 51.064 66.0323 51.096C65.1363 51.128 64.2883 51.176 63.4883 51.24ZM80.7683 38.76L80.0963 34.008L82.4003 35.784C81.9203 35.752 81.3443 35.72 80.6723 35.688C80.0323 35.624 79.3763 35.576 78.7043 35.544C78.0323 35.48 77.4723 35.448 77.0243 35.448H71.3123V31.944H77.9843C78.5283 31.944 79.1683 31.88 79.9043 31.752C80.6403 31.624 81.2323 31.512 81.6803 31.416L80.0963 33.384L80.7683 28.392L83.4563 28.632V32.664C83.4563 34.584 83.5043 36.52 83.6003 38.472L80.7683 38.76ZM94.3789 51.24L94.1389 48.216L100.091 47.112L97.3069 49.08C97.3709 48.696 97.4509 48.152 97.5469 47.448C97.6749 46.744 97.7709 46.04 97.8349 45.336C97.9309 44.6 97.9789 44.024 97.9789 43.608V24.552C97.9789 24.136 97.9309 23.544 97.8349 22.776C97.7389 22.008 97.6269 21.24 97.4989 20.472C97.3709 19.704 97.2749 19.176 97.2109 18.888L100.043 21.144L94.1389 20.184L94.3789 16.92C94.9229 16.952 95.5469 16.984 96.2509 17.016C96.9549 17.048 97.6269 17.08 98.2669 17.112C98.9069 17.144 99.4189 17.16 99.8029 17.16H103.403L104.315 18.12C104.859 18.984 105.435 19.928 106.043 20.952C106.651 21.976 107.195 22.904 107.675 23.736C108.187 24.536 108.523 25.064 108.683 25.32L121.499 43.08L119.963 43.56V24.552C119.963 24.104 119.915 23.512 119.819 22.776C119.723 22.008 119.611 21.24 119.483 20.472C119.355 19.704 119.243 19.128 119.147 18.744L122.075 21.192L116.219 20.184L116.459 16.92C116.971 16.952 117.531 16.984 118.139 17.016C118.779 17.048 119.403 17.08 120.011 17.112C120.619 17.144 121.099 17.16 121.451 17.16C123.051 17.16 124.411 17.128 125.531 17.064C126.651 17 127.723 16.952 128.747 16.92L128.939 20.424L123.035 21L125.867 18.792C125.835 19.208 125.755 19.816 125.627 20.616C125.499 21.416 125.371 22.296 125.243 23.256C125.115 24.184 125.051 25.096 125.051 25.992V51H119.819L101.531 25.56L103.067 25.08V42.168C103.067 42.968 103.099 43.848 103.163 44.808C103.259 45.736 103.355 46.616 103.451 47.448C103.547 48.248 103.627 48.904 103.691 49.416L100.859 47.352L106.859 47.88L106.571 51H100.187C99.8989 51 99.4029 51.016 98.6989 51.048C98.0269 51.08 97.2909 51.112 96.4909 51.144C95.7229 51.176 95.0189 51.208 94.3789 51.24ZM161.176 51.24L160.936 48.216L166.888 47.112L164.008 49.32C164.072 48.936 164.152 48.376 164.248 47.64C164.376 46.904 164.488 46.152 164.584 45.384C164.68 44.616 164.728 44.024 164.728 43.608V24.552C164.728 24.2 164.68 23.688 164.584 23.016C164.52 22.344 164.44 21.624 164.344 20.856C164.248 20.088 164.152 19.384 164.056 18.744L166.888 21.192L160.984 20.184L161.224 16.92C161.8 16.952 162.456 16.984 163.192 17.016C163.928 17.048 164.632 17.08 165.304 17.112C165.976 17.144 166.52 17.16 166.936 17.16H178.456C178.744 17.16 179.208 17.16 179.848 17.16C180.488 17.128 181.176 17.096 181.912 17.064C182.648 17 183.32 16.952 183.928 16.92L184.84 17.784L185.176 24.648L181.96 24.888L181.624 22.536C181.592 22.248 181.384 21.688 181 20.856C180.616 20.024 180.248 19.288 179.896 18.648L182.44 20.952C181.832 20.888 181.032 20.824 180.04 20.76C179.048 20.696 178.072 20.664 177.112 20.664H168.856L171.544 19.416C171.48 20.152 171.416 20.952 171.352 21.816C171.288 22.68 171.224 23.496 171.16 24.264C171.128 25 171.112 25.576 171.112 25.992V42.168C171.112 42.776 171.144 43.544 171.208 44.472C171.272 45.4 171.352 46.28 171.448 47.112C171.544 47.912 171.608 48.52 171.64 48.936L169.672 47.304H177.688C178.712 47.304 179.672 47.224 180.568 47.064C181.496 46.904 182.152 46.776 182.536 46.68L180.088 48.984C180.696 48.28 181.224 47.544 181.672 46.776C182.12 45.976 182.392 45.368 182.488 44.952L183.112 42.024L186.232 42.264L185.512 50.328L184.6 51.192C183.992 51.16 183.336 51.128 182.632 51.096C181.96 51.064 181.304 51.032 180.664 51C180.056 51 179.544 51 179.128 51H168.136C167.688 51 167.064 51 166.264 51C165.464 51.032 164.616 51.064 163.72 51.096C162.824 51.128 161.976 51.176 161.176 51.24ZM178.456 38.76L177.784 34.008L180.088 35.784C179.608 35.752 179.032 35.72 178.36 35.688C177.72 35.624 177.064 35.576 176.392 35.544C175.72 35.48 175.16 35.448 174.712 35.448H169V31.944H175.672C176.216 31.944 176.856 31.88 177.592 31.752C178.328 31.624 178.92 31.512 179.368 31.416L177.784 33.384L178.456 28.392L181.144 28.632V32.664C181.144 34.584 181.192 36.52 181.288 38.472L178.456 38.76Z" fill="white"/>
<path d="M144.423 50.742C142.056 50.742 139.847 50.477 137.798 49.947C135.784 49.417 134.265 48.9223 133.24 48.463L133.982 39.188L138.063 39.4L138.01 42.792C137.939 43.0747 137.992 43.481 138.169 44.011C138.346 44.5057 138.558 45.018 138.805 45.548C139.088 46.078 139.335 46.5373 139.547 46.926C139.759 47.3147 139.865 47.562 139.865 47.668L135.837 43.428C136.897 43.852 138.063 44.3997 139.335 45.071C140.642 45.707 142.126 46.025 143.787 46.025C145.13 46.025 146.278 45.707 147.232 45.071C148.221 44.435 148.716 43.4457 148.716 42.103C148.716 40.9017 148.345 39.93 147.603 39.188C146.861 38.4107 145.925 37.7217 144.794 37.121C143.663 36.5203 142.444 35.9197 141.137 35.319C139.83 34.683 138.593 33.9587 137.427 33.146C136.296 32.298 135.36 31.238 134.618 29.966C133.911 28.6587 133.558 27.0687 133.558 25.196C133.558 23.2173 134.035 21.5213 134.989 20.108C135.978 18.6947 137.321 17.617 139.017 16.875C140.713 16.0977 142.656 15.709 144.847 15.709C146.508 15.709 148.257 15.8857 150.094 16.239C151.967 16.557 153.716 16.9457 155.341 17.405L154.705 26.68L150.995 26.521L150.836 23.553C150.836 23.3763 150.748 23.023 150.571 22.493C150.394 21.963 150.165 21.38 149.882 20.744C149.635 20.0727 149.405 19.4367 149.193 18.836L153.539 22.705C153.009 22.4577 152.338 22.1397 151.525 21.751C150.712 21.327 149.847 20.956 148.928 20.638C148.045 20.32 147.179 20.161 146.331 20.161C144.918 20.161 143.769 20.5143 142.886 21.221C142.003 21.8923 141.561 22.8287 141.561 24.03C141.561 25.0547 141.932 25.938 142.674 26.68C143.416 27.3867 144.352 28.0403 145.483 28.641C146.614 29.2063 147.815 29.807 149.087 30.443C150.394 31.0437 151.613 31.768 152.744 32.616C153.91 33.4287 154.846 34.4533 155.553 35.69C156.295 36.8913 156.666 38.4107 156.666 40.248C156.666 42.4033 156.118 44.276 155.023 45.866C153.963 47.4207 152.497 48.622 150.624 49.47C148.787 50.318 146.72 50.742 144.423 50.742ZM145.43 58.162L142.144 58.003L142.515 49.205H145.801L145.43 58.162ZM143.734 17.352L144.105 8.236L147.338 8.395L146.967 17.352H143.734Z" fill="#3AAF83"/>
</svg>
