<svg width="128" height="272" viewBox="0 0 128 272" fill="none" xmlns="http://www.w3.org/2000/svg">
<path d="M60.768 230.976C47.904 230.976 35.904 229.536 24.768 226.656C13.824 223.776 5.568 221.088 0 218.592L4.032 168.192L26.208 169.344L25.92 187.776C25.536 189.312 25.824 191.52 26.784 194.4C27.744 197.088 28.896 199.872 30.24 202.752C31.776 205.632 33.12 208.128 34.272 210.24C35.424 212.352 36 213.696 36 214.272L14.112 191.232C19.872 193.536 26.208 196.512 33.12 200.16C40.224 203.616 48.288 205.344 57.312 205.344C64.608 205.344 70.848 203.616 76.032 200.16C81.408 196.704 84.096 191.328 84.096 184.032C84.096 177.504 82.08 172.224 78.048 168.192C74.016 163.968 68.928 160.224 62.784 156.96C56.64 153.696 50.016 150.432 42.912 147.168C35.808 143.712 29.088 139.776 22.752 135.36C16.608 130.752 11.52 124.992 7.488 118.08C3.648 110.976 1.728 102.336 1.728 92.16C1.728 81.408 4.32 72.192 9.504 64.512C14.88 56.832 22.176 50.976 31.392 46.944C40.608 42.72 51.168 40.608 63.072 40.608C72.096 40.608 81.6 41.568 91.584 43.488C101.76 45.216 111.264 47.328 120.096 49.824L116.64 100.224L96.48 99.36L95.616 83.232C95.616 82.272 95.136 80.352 94.176 77.472C93.216 74.592 91.968 71.424 90.432 67.968C89.088 64.32 87.84 60.864 86.688 57.6L110.304 78.624C107.424 77.28 103.776 75.552 99.36 73.44C94.944 71.136 90.24 69.12 85.248 67.392C80.448 65.664 75.744 64.8 71.136 64.8C63.456 64.8 57.216 66.72 52.416 70.56C47.616 74.208 45.216 79.296 45.216 85.824C45.216 91.392 47.232 96.192 51.264 100.224C55.296 104.064 60.384 107.616 66.528 110.88C72.672 113.952 79.2 117.216 86.112 120.672C93.216 123.936 99.84 127.872 105.984 132.48C112.32 136.896 117.408 142.464 121.248 149.184C125.28 155.712 127.296 163.968 127.296 173.952C127.296 185.664 124.32 195.84 118.368 204.48C112.608 212.928 104.64 219.456 94.464 224.064C84.48 228.672 73.248 230.976 60.768 230.976ZM66.24 271.296L48.384 270.432L50.4 222.624H68.256L66.24 271.296ZM57.024 49.536L59.04 0L76.608 0.864006L74.592 49.536H57.024Z" fill="#3AAF83"/>
</svg>
